/* XPM */
static char *_4ccc622271f4ce6e1e04f3ce4f7ec9148qEi1V4CAmDsAOs[] = {
/* columns rows colors chars-per-pixel */
"20 20 233 2 ",
"   c black",
".  c gray25",
"X  c #484848",
"o  c gray27",
"O  c #3E3E3E",
"+  c #353535",
"@  c gray20",
"#  c #393939",
"$  c #414141",
"%  c gray28",
"&  c #656565",
"*  c #626262",
"=  c #191919",
"-  c #272726",
";  c gray5",
":  c #979797",
">  c #434343",
",  c #6F6F6F",
"<  c #959595",
"1  c #0C0C0C",
"2  c #0B0C0B",
"3  c #232323",
"4  c #1B1B1B",
"5  c #090909",
"6  c gray1",
"7  c #222222",
"8  c #252525",
"9  c #3A3A3A",
"0  c #838383",
"q  c gray7",
"w  c gray6",
"e  c #101010",
"r  c gray4",
"t  c #060505",
"y  c #0E0E0E",
"u  c #3F3E3F",
"i  c gray10",
"p  c #242322",
"a  c white",
"s  c gray23",
"d  c #131313",
"f  c gray8",
"g  c #181818",
"h  c #39393A",
"j  c #474749",
"k  c #1D1C1D",
"l  c #39393B",
"z  c #444444",
"x  c #B2A49C",
"c  c #372F2B",
"v  c #3E3937",
"b  c #BBBCBC",
"n  c #181815",
"m  c #1A1A18",
"M  c #010100",
"N  c #1D1C1A",
"B  c #161614",
"V  c #444343",
"C  c #2F2E2E",
"Z  c #151617",
"A  c #101315",
"S  c #0D0F10",
"D  c #0D0D0C",
"F  c #1C1C1D",
"G  c #131314",
"H  c #1C1D1D",
"J  c #151516",
"K  c #1D1D1E",
"L  c #141415",
"P  c #191919",
"I  c #1A1A19",
"U  c #0F1417",
"Y  c #161517",
"T  c #565659",
"R  c #242526",
"E  c #070707",
"W  c #191818",
"Q  c #080B0C",
"!  c #090D0F",
"~  c #060606",
"^  c gray12",
"/  c #1E1F1E",
"(  c #222223",
")  c #1B1B1B",
"_  c #0B0B0A",
"`  c #060505",
"'  c #1E1E1F",
"]  c black",
"[  c #515350",
"{  c #515351",
"}  c #010101",
"|  c gray17",
" . c #5B5B5A",
".. c gray5",
"X. c #0B0A09",
"o. c black",
"O. c black",
"+. c #111111",
"@. c #3A3A3D",
"#. c #0B0B0A",
"$. c black",
"%. c None",
"&. c black",
"*. c #1B1B1B",
"=. c #0D0D0C",
"-. c #0E0E0E",
";. c #0A0908",
":. c black",
">. c #1C1D1C",
",. c #212123",
"<. c #39393C",
"1. c #4C4D50",
"2. c #040404",
"3. c #0D1317",
"4. c #182025",
"5. c #100F0E",
"6. c #1B1B1B",
"7. c #100F10",
"8. c #0E1316",
"9. c #151312",
"0. c #191818",
"q. c #0A0D0E",
"w. c #211F21",
"e. c #0C1012",
"r. c #1F292D",
"t. c #1F272B",
"y. c #030101",
"u. c #1A1918",
"i. c #13191C",
"p. c #1F2C33",
"a. c #010000",
"s. c #111112",
"d. c #161616",
"f. c gray3",
"g. c #0C0C0C",
"h. c #323030",
"j. c #0E1011",
"k. c #0C1013",
"l. c #121619",
"z. c #060606",
"x. c #28292C",
"c. c #35373B",
"v. c #080909",
"b. c #080809",
"n. c #323437",
"m. c #29282A",
"M. c #0E0E0E",
"N. c black",
"B. c black",
"V. c #2F302F",
"C. c #484241",
"Z. c #5A5252",
"A. c #242222",
"S. c #60595A",
"D. c #434244",
"F. c gray4",
"G. c #1D2B31",
"H. c #0F1518",
"J. c #434446",
"K. c #66686B",
"L. c #494A4D",
"P. c #6F7174",
"I. c #040505",
"U. c #1F1E20",
"Y. c #515156",
"T. c #5A5B5F",
"R. c #6C6D71",
"E. c #727478",
"W. c #8C8E93",
"Q. c #4A4B4E",
"!. c #323134",
"~. c #545457",
"^. c #44413F",
"/. c #47433E",
"(. c #494540",
"). c #514D48",
"_. c #474441",
"`. c #343337",
"'. c #747377",
"]. c #B0A391",
"[. c #A8987F",
"{. c #B9A88D",
"}. c #C1AF92",
"|. c #766A59",
" X c #5C5E5C",
".X c #5C5E5B",
"XX c #69686C",
"oX c #B3A591",
"OX c #978873",
"+X c #B7A68B",
"@X c #BFAD91",
"#X c #62584B",
"$X c #5B5E5B",
"%X c #2D2D2F",
"&X c #7A7063",
"*X c #A19380",
"=X c #AB9E8A",
"-X c #A89A86",
";X c #685E50",
":X c #222223",
">X c #343436",
",X c #79797D",
"<X c #858589",
"1X c #6C6B6F",
"2X c #4C4C4E",
"3X c #506066",
"4X c #202326",
"5X c #292D30",
"6X c #0F0F10",
"7X c #38383B",
"8X c #68686D",
"9X c #747579",
"0X c #4E4E51",
"qX c #616165",
"wX c #161719",
"eX c #11191D",
"rX c #4D5453",
"tX c #494E4C",
"yX c #182429",
"uX c #0D1418",
"iX c black",
"pX c #191719",
"aX c #2C2C2F",
"sX c #424245",
"dX c #67676B",
"fX c #48484B",
"gX c #30464F",
"hX c #22262A",
"jX c #343B41",
"kX c #2A2B2D",
"lX c #2F3033",
"zX c #393F44",
"xX c white",
/* pixels */
"                                        ",
"                                        ",
"    . X . . o O + @ # $ % & *           ",
"  = - x c v b n m M N B V ; : >         ",
"  = C Z A S D F G H J K L P   , <       ",
"  1 I U G.H.Y T J.K.L.P.R E   2 3 4     ",
"  5 W Q ! I.U.Y.T.R.E.W.Q.~ ^ / ( =     ",
"  ; ) _ ` !.~.^./.(.)._.' ] [ { } 6     ",
"  7 |  ...`.'.].[.{.}.|.X.o. X.XO.      ",
"  8 9   +.@.XXoXOX+X@X#X#.$.%.$X&.  0   ",
"      *.=.-.%X&X*X=X-X;X;.:..X.X&.      ",
"  q >.,.<.1.:X>X,X<X1X2X2.3.3X3X4.5.w   ",
"  ; 6.7.4X5X6X7X8X9X0XqXwXeXrXtX8.9.e   ",
"  r 0.q.yXuXiXpXaXsXdXfXw.e.r.t.y.t y   ",
"  1 u.i.gXp.a.hXjXkXlXzXs.d.f.g.        ",
"  4 h.j.k.l.z.x.c.v.b.n.m.M.  r   u     ",
"  i p   N.B.V.C.Z.A.A.S.D.F.a s         ",
"    d = f i g h j k k j l = a z         ",
"                                        ",
"                                        "
};
