/* XPM */
static char *d5d406963dd04cdacf55dcd1b4913e67KoVQqYbUblUgXHKs[] = {
/* columns rows colors chars-per-pixel */
"20 20 164 2 ",
"   c black",
".  c #555555",
"X  c gray33",
"o  c gray34",
"O  c #585858",
"+  c #565656",
"@  c #4B4B4B",
"#  c #535353",
"$  c gray32",
"%  c #494949",
"&  c #464646",
"*  c #414141",
"=  c #5B5B5B",
"-  c #6C6C6C",
";  c DimGray",
":  c gray31",
">  c #676767",
",  c gray39",
"<  c gray35",
"1  c #5F5F5F",
"2  c gray36",
"3  c gray40",
"4  c #626262",
"5  c #4C4C4C",
"6  c #515151",
"7  c #4E4E4E",
"8  c #656565",
"9  c #5E6063",
"0  c #5C5E60",
"q  c #5E5F61",
"w  c #5E6061",
"e  c #5F6061",
"r  c #5C5E5F",
"t  c #5E6062",
"y  c gray28",
"u  c #5E5F60",
"i  c #544F49",
"p  c #5F6061",
"a  c #4D4C4C",
"s  c #464544",
"d  c #5E5F61",
"f  c #574F48",
"g  c #5D3001",
"h  c #241200",
"j  c #575048",
"k  c #464645",
"l  c #1D1C1B",
"z  c #5E5F60",
"x  c #633403",
"c  c #150B01",
"v  c black",
"b  c #575048",
"n  c #5D5E5F",
"m  c #171716",
"M  c #5A5A5B",
"N  c #595857",
"B  c #603203",
"V  c #0F0800",
"C  c black",
"Z  c #606163",
"A  c #603203",
"S  c #0C0600",
"D  c black",
"F  c #626365",
"G  c #4B4C4E",
"H  c #0B0600",
"J  c black",
"K  c #4D4E4F",
"L  c #5B5D5F",
"P  c #613303",
"I  c #1C0F01",
"U  c #0E0700",
"Y  c #5E5F61",
"T  c #4C4E4F",
"R  c None",
"E  c #653503",
"W  c #633403",
"Q  c #505253",
"!  c #545557",
"~  c #56585A",
"^  c #545657",
"/  c #57585A",
"(  c #4D4F51",
")  c #4F5153",
"_  c #5A5C5E",
"`  c #5D5F61",
"'  c #47494B",
"]  c #4A4C4D",
"[  c #5F6162",
"{  c #626365",
"}  c #454749",
"|  c #494A4C",
" . c #606263",
".. c #464849",
"X. c #484A4C",
"o. c #5C5E5F",
"O. c #5C5E60",
"+. c #616365",
"@. c #4E4133",
"#. c #703A02",
"$. c #773E04",
"%. c #763E04",
"&. c #703A02",
"*. c #4E4033",
"=. c #523C26",
"-. c #533A20",
";. c #483420",
":. c #623A11",
">. c #763D02",
",. c #753D02",
"<. c #623A10",
"1. c #633A10",
"2. c #783E03",
"3. c #794004",
"4. c #5A3916",
"5. c #783F04",
"6. c #52473D",
"7. c #6D3A04",
"8. c #793F04",
"9. c #6E3A04",
"0. c #443627",
"q. c #723B03",
"w. c #743D04",
"e. c #592E02",
"r. c #3C3227",
"t. c #4D3F31",
"y. c #763E04",
"u. c #633302",
"i. c #493D31",
"p. c #46382A",
"a. c #582E02",
"s. c #3F352A",
"d. c #493C2E",
"f. c #4A3C2E",
"g. c #713B03",
"h. c #693704",
"j. c #643403",
"k. c #663603",
"l. c #4F2A03",
"z. c #211201",
"x. c #3F2102",
"c. c #733C04",
"v. c #703B04",
"b. c #733C03",
"n. c #433628",
"m. c #753D04",
"M. c #5E3102",
"N. c #3D3327",
"B. c #4F4133",
"V. c #723B02",
"C. c #753E04",
"Z. c #613202",
"A. c #4A3F33",
"S. c #423426",
"D. c #733D04",
"F. c #572D02",
"G. c #3A3026",
"H. c #4F4234",
"J. c #703A02",
"K. c #4F4134",
"L. c #423527",
"P. c #433527",
"I. c #4D4032",
"U. c white",
/* pixels */
"    . X   9 0 q w e e w q r t   o O     ",
"  X X y u i =.-.-.;.;.-.-.=.i p a + X   ",
"@ # s d f :.>.,.g h h g ,.>.<.j d k $ % ",
"& l z f 1.2.3.x c v v c x 3.2.1.b n m * ",
"= M N 4.2.5.3.B V C C V B 3.5.2.4.N M = ",
"- Z 6.7.8.5.3.A S D D S A 3.5.8.9.6.F ; ",
". G 0.q.5.5.3.A H J J H A 3.5.w.e.r.K : ",
"> L t.q.5.5.3.P I U U I P 3.5.y.u.i.Y , ",
"< T p.q.5.5.5.R E W W E R 5.5.w.a.s.Q X ",
"1 ! d.q.3.3.3.8.3.3.3.3.5.5.5.5.q.f.~ 2 ",
"1 ^ d.g.h.j.k.w.5.5.5.5.5.5.5.5.q.d./ = ",
"o ( p.g.l.z.x.c.5.5.5.5.5.5.5.5.q.p.) . ",
"3 _ t.q.y.v.w.5.5.5.5.5.5.5.5.5.b.t.` 4 ",
"$ ' n.q.5.5.5.5.5.5.5.5.5.5.5.m.M.N.] : ",
"; [ B.V.5.5.5.5.5.5.5.5.5.5.5.C.Z.A.{ 3 ",
": } S.q.5.5.5.5.5.5.5.5.5.5.5.D.F.G.| 5 ",
";  .H.V.5.5.5.5.5.5.5.5.5.5.5.5.J.K.{ > ",
"6 ..L.q.5.5.5.5.5.5.5.5.5.5.5.5.q.P.X.7 ",
"8 o.I.V.5.5.5.5.5.5.5.5.5.5.5.5.V.I.O.8 ",
"; +.@.#.$.$.$.$.%.%.%.%.%.%.%.$.&.*.+.> "
};
