/* XPM */
static char *_ab34f4b03924b1fb6cb4aa72f46e081SRYA86MWXl13wjxg[] = {
/* columns rows colors chars-per-pixel */
"40 40 120 2 ",
"   c None",
".  c #1C1F22",
"X  c #1E2022",
"o  c #222427",
"O  c #262A2C",
"+  c #282C2F",
"@  c #2A2E31",
"#  c #2D3235",
"$  c #2E3538",
"%  c #2F393D",
"&  c #303437",
"*  c #313639",
"=  c #343A3D",
"-  c #2D3E44",
";  c #363D41",
":  c #393F42",
">  c #2A4248",
",  c #354145",
"<  c #3B4245",
"1  c #35464C",
"2  c #3E4549",
"3  c #37484C",
"4  c #3E4C52",
"5  c #385056",
"6  c #37575F",
"7  c #355861",
"8  c #3D5A62",
"9  c #40474B",
"0  c #42494D",
"q  c #464D51",
"w  c #484F54",
"e  c #445155",
"r  c #4A5156",
"t  c #47565C",
"y  c #4D555A",
"u  c #40585F",
"i  c #4F585D",
"p  c #50575C",
"a  c #51595E",
"s  c #425D63",
"d  c #4C5D64",
"f  c #545D62",
"g  c #585F65",
"h  c #4B6166",
"j  c #47636B",
"k  c #4C656D",
"l  c #576066",
"z  c #596166",
"x  c #52646A",
"c  c #5C646B",
"v  c #57686E",
"b  c #5F686E",
"n  c #446C76",
"m  c #4A6970",
"M  c #5D6A72",
"N  c #5B767D",
"B  c #60696F",
"V  c #636C73",
"C  c #677077",
"Z  c #667178",
"A  c #69727A",
"S  c #607982",
"D  c #617F89",
"F  c #48808B",
"G  c #56828C",
"H  c #5F8089",
"J  c #61838D",
"K  c #638992",
"L  c #6C9CA8",
"P  c #8E9CA1",
"I  c #97ADB4",
"U  c #91B2BD",
"Y  c #9CB5BD",
"T  c #A1ADB2",
"R  c #A2B2B7",
"E  c #A5B5BB",
"W  c #98BBC6",
"Q  c #A3BCC4",
"!  c #AFBBC1",
"~  c #9FCCD7",
"^  c #A2C3CC",
"/  c #ADC4CD",
"(  c #BBC2C4",
")  c #B6C1C8",
"_  c #BFC6CA",
"`  c #A4C9D5",
"'  c #ACCAD2",
"]  c #A8CED9",
"[  c #B3CED5",
"{  c #BDC9D0",
"}  c #ADD0DA",
"|  c #B4D4DD",
" . c #B4D8E2",
".. c #C4CBCF",
"X. c #C4CED4",
"o. c #C4CCD0",
"O. c #C5D1D6",
"+. c #C8D1D3",
"@. c #CBD0D3",
"#. c #C8D1D4",
"$. c #C9D2D6",
"%. c #C9D3D6",
"&. c #C8D2D7",
"*. c #CCD2D5",
"=. c #CBD4D8",
"-. c #CFD5D8",
";. c #C3D8DD",
":. c #CCD8DC",
">. c #CCD8DE",
",. c #D4D9DB",
"<. c #D2DADD",
"1. c #D1DADF",
"2. c #D4DADC",
"3. c #D6DCDF",
"4. c #D9DDDE",
"5. c #DCDFDF",
"6. c #DCE3E5",
"7. c #DBE4E8",
"8. c #E2E2E3",
"9. c #E4E7E7",
/* pixels */
"                                                                                ",
"                                                                                ",
"                                                                                ",
"    ! { @.8.1.7.:.@.O...2.=..._ o.$.6.:.1.3.9.6.,.*.4.5.-.$.X.$.$.) ( _ (       ",
"    P E T | / I U ~ ] / | / E Q ` ^ Q W  .} Q Q ` / [ [ R Q Q ' ' ;.! / Y       ",
"    4 8 4 F d < d G D c n k g 3 7 n k u L J M c K M d N e d e t x N M x q       ",
"    = , * m , = b S v z 8 3 0 ; # 6 % < H Z f f k e 2 e ; 5 $ q V d l w +       ",
"    + O # h # # < s 3 = ; $ # O # > O * j e = = ; % # O $ $ + = 9 ; ; = #       ",
"    @ : f s 0 q 0 - : < < < = 9 a ; 9 r 1 $ ; < ; < = q r < 0 r = * : < ;       ",
"    0 0 g 8 g : = < b z r y y q z f f = # p V f r a r y z f y = = g M i 2       ",
"    z q ; < < < a q V V V A V < 2 r : q r y A V V A b ; 0 r = i q g A V g       ",
"    a q O : 0 0 c < r f f z c : @ 2 2 r g : a f f z z # $ 0 < f y 2 f f y       ",
"    = < = V f ; y 2 * < < < 2 = 9 V y : a : = < < < 9 * y V 0 2 i * ; < =       ",
"    # * q f q # * : + @ = ; ; * y a 2 # = = O # ; ; = = a i : # ; * O * #       ",
"    O # * < < # $ : r : * = $ @ = < ; # * 2 r * = * $ @ : < = # * 0 w # #       ",
"    < y y = : = y b A c w g a a w = : ; f V A f r g i a 0 = ; < z V V y 9       ",
"    y w r q g 2 g V C B y V c q r r f 9 c V C c y V g q r y y q b V V g q       ",
"    < < * 9 2 ; V V c c < 2 q < = 0 ; 2 V V c z = 0 0 ; = q = r C V c a +       ",
"    + + + = # @ 0 r 2 < = # $ O @ = + $ q r < < * $ # O # = O = w q < : $       ",
"    # = p ; < q 0 # = ; < < = < y = 2 r < # = : < < * q q ; 2 r = $ = < ;       ",
"    : 0 c a f < = 0 z g q r r r c a f ; * y z a q y q a z a y = = f z y <       ",
"    y q < y 0 < y w A V V C V < 0 i < 0 w a A V V A c : q y ; r 0 z A V b       ",
"    a w + : 2 0 z < a l z b b < # < < y f < f l z b c & $ 2 : f r 9 g l f       ",
"    ; < * b f : a 2 = 2 < 2 0 = < V y < f ; ; 2 < 2 0 # q V 0 0 a * < 2 ;       ",
"    $ = q z q $ ; < + # ; < ; = y g 9 # : ; O * : < ; ; f f < $ < * O = *       ",
"    O @ = 2 < # # = q * $ * $ + ; 2 : # # < 0 # * $ # @ < < ; @ $ 2 9 @ #       ",
"    9 y w = ; * y c V z q f y y 0 = = = a b V a r a r y 2 = = < f V V r 9       ",
"    f y y 0 f 2 f V A V y V b r y q f 2 z V A c p V z r r r y q b V C g q       ",
"    9 2 = 0 0 : V V b c 2 0 e < = q < 0 V V b z : w 0 : ; q ; y C V b f *       ",
"    + @ O ; # @ q a q 2 * # * + @ ; + $ r a 0 2 $ $ $ O # ; O = y y 2 < O       ",
"    $ * r = : 0 9 # * = < < * ; q = : q < # * ; < : # 9 0 = < q = # = ; #       ",
"    9 q b y f 2 = 9 f a 0 q q r c y a : = w g y 0 e 0 a z y y ; = y g r :       ",
"    z 0 9 a w : r r A V V V B 2 q f 0 9 q f A V V V z < r f < q 0 c A V c       ",
"    z r @ : < 0 z < f c b V V < # < : y f < z c b V b * * < ; g w 0 z c z       ",
"    : < # z f < f 2 ; 2 2 2 q = ; b y 2 f ; < 2 2 0 q # 0 b 0 q a = 2 2 =       ",
"      @ q c q # < : @ $ = ; = # y z 9 # < ; + = < ; * * f g : * < * @ = #       ",
"        * ;                       =     @ # o o                     X .         ",
"                                                                                ",
"                                                                                ",
"                                                                                "
};
