/* XPM */
static char *__removebg_preview1708699592[] = {
/* columns rows colors chars-per-pixel */
"50 50 174 2 ",
"   c None",
".  c #141414",
"X  c #1B1A1A",
"o  c #21191C",
"O  c #2D191C",
"+  c #3A191F",
"@  c #221C23",
"#  c #241F2A",
"$  c #281D26",
"%  c #391B21",
"&  c #381F2B",
"*  c #252323",
"=  c #2B2425",
"-  c #25212D",
";  c #2A262B",
":  c #2C2A2B",
">  c #342D2C",
",  c #3C272C",
"<  c #3D322D",
"1  c #262333",
"2  c #292535",
"3  c #202138",
"4  c #29263A",
"5  c #2A293D",
"6  c #342635",
"7  c #3E2333",
"8  c #322C31",
"9  c #372C3D",
"0  c #363234",
"q  c #3D3535",
"w  c #36303B",
"e  c #3C383A",
"r  c #4F181E",
"t  c #4B1C22",
"y  c #451B20",
"u  c #541D23",
"i  c #5F1E24",
"p  c #651E26",
"a  c #691F27",
"s  c #4D2229",
"d  c #42212D",
"f  c #5C232C",
"g  c #50212E",
"h  c #4E2531",
"j  c #4C2C36",
"k  c #5D2B36",
"l  c #4C3338",
"z  c #692027",
"x  c #6B212A",
"c  c #67252B",
"v  c #72222C",
"b  c #7E212A",
"n  c #79282F",
"m  c #622C32",
"M  c #693031",
"N  c #53413B",
"B  c #5C493F",
"V  c #624B3F",
"C  c #2B2B44",
"Z  c #2E2E49",
"A  c #312E41",
"S  c #2F3047",
"D  c #2E314B",
"F  c #323144",
"G  c #31344D",
"H  c #3D3644",
"J  c #333651",
"K  c #363955",
"L  c #393850",
"P  c #373C59",
"I  c #393E5C",
"U  c #253064",
"Y  c #423D42",
"T  c #453A49",
"R  c #503B42",
"E  c #753C44",
"W  c #3B405E",
"Q  c #3E4463",
"!  c #3E4B69",
"~  c #49444F",
"^  c #52484B",
"/  c #4A475C",
"(  c #574F5E",
")  c #5C5559",
"_  c #7A4744",
"`  c #6C5549",
"'  c #7D574A",
"]  c #7E4B52",
"[  c #695755",
"{  c #755F51",
"}  c #7D6252",
"|  c #78645A",
" . c #414764",
".. c #4D4C63",
"X. c #454C68",
"o. c #504F60",
"O. c #4D526E",
"+. c #425169",
"@. c #515166",
"#. c #555368",
"$. c #4D5470",
"%. c #545A73",
"&. c #545676",
"*. c #635F65",
"=. c #5F627A",
"-. c #676365",
";. c #7C6C6B",
":. c #6D6270",
">. c #776678",
",. c #7C6C7C",
"<. c #79757B",
"1. c #767275",
"2. c #82222B",
"3. c #8D232E",
"4. c #9A232E",
"5. c #A52431",
"6. c #AA2532",
"7. c #B32633",
"8. c #BB2E3A",
"9. c #C12734",
"0. c #B03C48",
"q. c #C43744",
"w. c #885048",
"e. c #924851",
"r. c #99555D",
"t. c #B24A55",
"y. c #BA535D",
"u. c #876A58",
"i. c #905E67",
"p. c #8E656C",
"a. c #937460",
"s. c #877474",
"d. c #B16B78",
"f. c #AE707C",
"g. c #C64C59",
"h. c #C86975",
"j. c #C3727E",
"k. c #CD747D",
"l. c #9F867F",
"z. c #A6836B",
"x. c #AB8B76",
"c. c #B98F71",
"v. c #BE987F",
"b. c #BE9477",
"n. c #2D3E82",
"m. c #32438B",
"M. c #515986",
"N. c #4F5B96",
"B. c #545F95",
"V. c #556096",
"C. c #6A6D84",
"Z. c #776B81",
"A. c #5664A7",
"S. c #6E7DB8",
"D. c #866F84",
"F. c #8E7A86",
"G. c #847A82",
"H. c #98798A",
"J. c #947F91",
"K. c #BA7F8C",
"L. c #C97A85",
"P. c #998784",
"I. c #8B8B96",
"U. c #9F8596",
"Y. c #A8818A",
"T. c #A68090",
"R. c #AC8290",
"E. c #B48C96",
"W. c #888BA1",
"Q. c #9A99A4",
"!. c #B59DA7",
"~. c #D6A989",
"^. c #E5B694",
"/. c #C096A2",
/* pixels */
"                                                                                                    ",
"                                                                                                    ",
"                                                                                                    ",
"                                                          . * e : X .                               ",
"                                                        * ; ; ; = : =                               ",
"                                                      X @ * * * = o : X                             ",
"                                                      X o 0 q > * * 0 *                             ",
"                                                      X > <.I.<.~ * 0 *                             ",
"                                                      X * ^ | ) N : q X                             ",
"                                                      ; > z.~.v.x.< | X                             ",
"                                                      X < c.^.^.b., N * - - o                       ",
"                                                    t r z w.c.~.u.f j = 5 C - X                     ",
"                                                    n 2.5.2.' a.z.M s * 5 C # o                     ",
"                                                    r 5.7.z V } | M u 1 Z 5 @ o                     ",
"                                                    r 6.9.n ;.s.P._ f F Z C @                       ",
"                                                    o b 9.x @.C.$.f h Z 5 1 o                       ",
"                                                    X y 7.v J $.+.c , - @ o o                       ",
"                                                  o @ $ 2.v J +.T z A 5 1 $ o                       ",
"                                                o o 1 # p v K +.k g C I W K - o                     ",
"                                              o o @ 5 1 u c G H v 9 G P W I K -                     ",
"                                            X o o # Z # o y t 2.u K J 4 K I I 5                     ",
"                                          o o o o # C 2 # % a t A I J 1 K I I 5                     ",
"                                      o o o o o @ # C C C 2 6 J I I G 1 Z I I C                     ",
"                                  2 - o o o o @ 5 @ 4 C S >.T.U.%.I K 2 C K I K -                   ",
"                                @ 4 2 # # @ - 5 4 @ 4 C o.K.9.g.I.%.I 6 4 J I K 1                   ",
"                                = # 5 2 1 1 5 5     2 Z F.g.t.0.h.R.O.5 4 Z P K #                   ",
"                              ` u.u.2 5 C 4 4       - C ( d.e.r.j.Z.Q 5 4 Z P J #                   ",
"                                l ` = # 1 @         @ C C @.( i.T.X.I D 1 G J P 4                   ",
"                                        o           @ C Z C 2 ..O.I I J - I I G Z                   ",
"                                                      1 C Z 1 C ! W I K 1 G I J Z                   ",
"                                                      1 C C 1 4 J I W K 1 Z I I S                   ",
"                                                    @ 2 C C 2 A I K W K 1 C I W J                   ",
"                                                    @ 5 C Z 2 C I K K K 1 C D P J                   ",
"                                                    @ C C C 3 C I K K I # 7 u T F                   ",
"                                                    ( / C C 2 C I I I :.R t 4.3.%                   ",
"                                                    e.f./ C 2 5 I I Q J.y.p.l y O                   ",
"                                                    i.L.!.Z.C 1 J I $.!.k.h.m                       ",
"                                                      Y.E.@.C C 3 K Q I.L.8.E                       ",
"                                                      ] <.C C C 2 J I  .D.K.:.                      ",
"                                                      ~ L C C C # C I I  .&.C @                     ",
"                                                      # C C Z 6 % 7 Z I I G C 4 -                   ",
"                                                      1 C C 5 x p b d D G C 5 #                     ",
"                                                    o 4 C C 2 u   i , C 4 1                         ",
"                                                        9 T ;       @ w 8                           ",
"                                                        *.G.l         1.[                           ",
"                                                      @ -.Q.!       1 *.<.                          ",
"                                                    [ M.I.S.m.      A.A.V.A                         ",
"                                                  B l.N.B.m.U     ^ F.G.&.3                         ",
"                                                                                                    ",
"                                                                                                    "
};
