/* XPM */
static char *__removebg_preview1708699593[] = {
/* columns rows colors chars-per-pixel */
"50 50 189 2 ",
"   c None",
".  c #0E0E0E",
"X  c #1F1D1D",
"o  c #191417",
"O  c #21191C",
"+  c #2B191D",
"@  c #361A1E",
"#  c #231C23",
"$  c #241F2A",
"%  c #2D1E2A",
"&  c #391C22",
"*  c #351D25",
"=  c #262324",
"-  c #2A2425",
";  c #26222E",
":  c #2A262D",
">  c #2D2B2C",
",  c #312B2C",
"<  c #36222E",
"1  c #262333",
"2  c #292535",
"3  c #272539",
"4  c #29273B",
"5  c #2A293D",
"6  c #322C3B",
"7  c #3A2735",
"8  c #3E383C",
"9  c #393537",
"0  c #4E1E24",
"q  c #541C23",
"w  c #591E24",
"e  c #661E26",
"r  c #611F28",
"t  c #442529",
"y  c #5B232E",
"u  c #482633",
"i  c #5E2F3B",
"p  c #483B36",
"a  c #5B3131",
"s  c #6A212A",
"d  c #67272C",
"f  c #7C2129",
"g  c #712027",
"h  c #6C333A",
"j  c #792A33",
"k  c #53463C",
"l  c #6B413B",
"z  c #2B2B44",
"x  c #2D2E48",
"c  c #392F45",
"v  c #2F304B",
"b  c #31334C",
"n  c #3C3C4E",
"m  c #393348",
"M  c #242950",
"N  c #343652",
"B  c #363A55",
"V  c #3C3B52",
"C  c #373C59",
"Z  c #393E5C",
"A  c #343C69",
"S  c #502D43",
"D  c #403B4C",
"F  c #423C40",
"G  c #523D4E",
"H  c #463E53",
"J  c #3B405F",
"K  c #3D4462",
"L  c #3E4A67",
"P  c #3F506C",
"I  c #4B4349",
"U  c #584C4C",
"Y  c #46455B",
"T  c #4A4656",
"R  c #544E53",
"E  c #5D585A",
"W  c #634946",
"Q  c #645147",
"!  c #78584A",
"~  c #69585D",
"^  c #715D58",
"/  c #444A63",
"(  c #4A4C67",
")  c #595B75",
"_  c #6E5C66",
"`  c #785D65",
"'  c #6B5E71",
"]  c #725F71",
"[  c #716C6F",
"{  c #6B6477",
"}  c #776A70",
"|  c #79717E",
" . c #686465",
".. c #AB0D17",
"X. c #AE1D1A",
"o. c #B21B1B",
"O. c #BA1B19",
"+. c #B91A15",
"@. c #BD2314",
"#. c #BC381D",
"$. c #89222C",
"%. c #93222D",
"&. c #8E2934",
"*. c #9D2430",
"=. c #AC2023",
"-. c #BC3324",
";. c #B6342D",
":. c #A12531",
">. c #B62734",
",. c #C81A12",
"<. c #D31D10",
"1. c #D62D0F",
"2. c #DA3E0D",
"3. c #C42314",
"4. c #CE2212",
"5. c #CE281A",
"6. c #D32312",
"7. c #D52B14",
"8. c #D62D1A",
"9. c #D52719",
"0. c #D73413",
"q. c #D93616",
"w. c #DB3C11",
"e. c #D5331C",
"r. c #DA3D1A",
"t. c #D8371E",
"y. c #CD3D21",
"u. c #D63C23",
"i. c #C94119",
"p. c #D3441C",
"a. c #DB441D",
"s. c #DC4715",
"d. c #E25F1F",
"f. c #E27919",
"g. c #C84325",
"h. c #DA4321",
"j. c #CD562E",
"k. c #DE5322",
"l. c #DB5927",
"z. c #DD5530",
"x. c #E05C2A",
"c. c #D66A2E",
"v. c #E26420",
"b. c #BE3C49",
"n. c #A73A45",
"m. c #8D5E57",
"M. c #9C545D",
"N. c #AA404A",
"B. c #AF4B55",
"V. c #876756",
"C. c #996D5E",
"Z. c #90735F",
"A. c #945C68",
"S. c #9E7E69",
"D. c #837279",
"F. c #8C6A74",
"G. c #BA6974",
"H. c #B6737D",
"J. c #A36975",
"K. c #C3414D",
"L. c #CA656F",
"P. c #C76D78",
"I. c #B38F76",
"U. c #30428C",
"Y. c #525B87",
"T. c #4E5895",
"R. c #5D6683",
"E. c #736980",
"W. c #6F7184",
"Q. c #7D7083",
"!. c #65678D",
"~. c #6876AF",
"^. c #6F7CB4",
"/. c #707ABA",
"(. c #866C81",
"). c #817E81",
"_. c #A47483",
"`. c #B37785",
"'. c #848083",
"]. c #918194",
"[. c #94939E",
"{. c #B98086",
"}. c #A58291",
"|. c #A497A4",
" X c #D0818B",
".X c #CA8E97",
"XX c #D9A889",
"oX c #E2B08E",
"OX c #E7B997",
/* pixels */
"                                                                                                    ",
"                                                                                                    ",
"                                                                    . X o                           ",
"                                                                  X = 9 > X                         ",
"                                                                X = = = = > X                       ",
"                                                                O X = = = : =                       ",
"                                                                X 8 E I > > >                       ",
"        ..@.i.g.g.X.                                            X U '.[ 9 > >                       ",
"    O.@.,.7.l.t.h.p.,.O.;.                                      O a C.V.k p -                       ",
"  +.<.a.7.6.8.7.t.7.s.7.h.j.                                    - V.oXXXZ.k p o                     ",
"..5.8.<.7.2.q.a.q.r.k.0.8.d.c.;.                Q             o O ! XXOXV.t , ; 1 O                 ",
"o.5.6.a.r.w.6.9.7.c.l.s.0.s.f.-.                V.            s e &.C.I.! r , 2 z #                 ",
"  +.7.r.s.e.0.u.<.a.k.w.w.l.-.                ! S.            f %.%.h V.V.s : 4 4 #                 ",
"    3.4.8.z.k.9.q.6.<.4.,.#.                  k Q >           s >.%.Q Z.V.d < x 3 O                 ",
"      X.y.y.p.e.p.@...                      z b 4 3 O         w >.*._ | } d c b 2 O                 ",
"          =.o.o.@.                          6 N z 5 1         + %.:.H R.Y e 5 1 $ O                 ",
"                                              b x z 2       O X q *.m P G y : X O                   ",
"                                              x x z z #     O $ % $.m / i u b b 2 X                 ",
"                                              4 x z z # O O O 1 % $.D Y y 7 C J B ;                 ",
"                                              : v z z ; # # # 4 # w 7 u y b b J Z b                 ",
"                                              : 5 x 4 4 3 # # z # @ w f 7 B 4 N J N $               ",
"                                                $ x z z $ O # z 3 : q 7 B J 5 v Z N ;               ",
"                                                  1 3 1 O O # 4 z z T Y J J 4 x Z C 2               ",
"                                                  O O O O     3 z ' H.`.) J x 4 B Z 5               ",
"                                                              3 N _.K.b.].' v 4 N Z 5               ",
"                                                              3 Y G.n.B.P.Q.v 3 b Z 5               ",
"                                                              ; z [ A.M._./ v 3 x Z 5               ",
"                                                              $ 5 z J F.E.K C 5 B N b               ",
"                                                              $ z z 4 n J J J 4 C B v $             ",
"                                                                5 z 4 5 K J C 4 b C v $             ",
"                                                                4 z 4 4 N J C 4 x J N ;             ",
"                                                              # 5 z 4 z C C J 4 5 N B 2             ",
"                                                              ; z x 3 z Z N Z 5 3 b b 1             ",
"                                                              ; z z 3 5 Z C J ' 7 z S 0             ",
"                                                              R T z 3 z Z Z ) G.j < &.r             ",
"                                                              h J.( 5 5 Z Z (.L.`.t t               ",
"                                                              ` .X|.B 1 N Z ]. XN.                  ",
"                                                              W H.' z z 4 C ) `.B.~                 ",
"                                                                ` V z z 3 C Z { ].D                 ",
"                                                                6 x z 4 $ b Z J V 2                 ",
"                                                                $ z z u 0 u N B b x #               ",
"                                                                  z 4 s g s z b v 4 #               ",
"                                                                  1 1 @   & 2 2 $ #                 ",
"                                                                  R 9       m F                     ",
"                                                                  | R        .[                     ",
"                                                                T [.R.      ( W.                    ",
"                                                              D.~.^.U.    !./.T.                    ",
"                                                            p ~ A A M     Q ^ T                     ",
"                                                                                                    ",
"                                                                                                    "
};
