/* XPM */
static char *result[] = {
/* columns rows colors chars-per-pixel */
"50 50 236 2 ",
"   c #5A7128",
".  c #5D732A",
"X  c #5F742B",
"o  c #66792E",
"O  c #6A7C2F",
"+  c #6E7F31",
"@  c #708132",
"#  c #718132",
"$  c #748333",
"%  c #758434",
"&  c #7B8836",
"*  c #7F8B37",
"=  c #7D8A37",
"-  c #738233",
";  c #708031",
":  c #788534",
">  c #7E8A37",
",  c #7C8935",
"<  c #738332",
"1  c #798836",
"2  c #738232",
"3  c #6B7D30",
"4  c #64782D",
"5  c #5D742A",
"6  c #5D732C",
"7  c #5D742B",
"8  c #60772D",
"9  c #60762D",
"0  c #63782E",
"q  c #6F8133",
"w  c #798837",
"e  c #818E3A",
"r  c #818D3A",
"t  c #828E3A",
"y  c #748435",
"u  c #7E8B39",
"i  c #7E8C38",
"p  c #768536",
"a  c #758535",
"s  c #7F8C39",
"d  c #738435",
"f  c #6D8033",
"g  c #64782E",
"h  c #61772E",
"j  c #60772F",
"k  c #61772D",
"l  c #62782E",
"z  c #6E8033",
"x  c #778535",
"c  c #7C8A38",
"v  c #7D8A38",
"b  c #7C8A37",
"n  c #808D39",
"m  c #7D8B38",
"M  c #758435",
"N  c #7B8937",
"B  c #7A8836",
"V  c #738335",
"C  c #687B30",
"Z  c #5F762D",
"A  c #60762F",
"S  c #718234",
"D  c #748335",
"F  c #748334",
"G  c #738234",
"H  c #7A8837",
"J  c #818D39",
"K  c #7E8B38",
"L  c #6C7F32",
"P  c #5F762E",
"I  c #60762E",
"U  c #677B30",
"Y  c #738434",
"T  c #778736",
"R  c #808C39",
"E  c #798736",
"W  c #788736",
"Q  c #7F8C3A",
"!  c #7A8937",
"~  c #828E39",
"^  c #768535",
"/  c #6D7F32",
"(  c #65792F",
")  c #64792F",
"_  c #667A2F",
"`  c #677B2F",
"'  c #667B30",
"]  c #61772B",
"[  c #808D3A",
"{  c #738334",
"}  c #7A8938",
"|  c #788635",
" . c #7B8837",
".. c #728334",
"X. c #6A7D31",
"o. c #728234",
"O. c #728335",
"+. c #687C2E",
"@. c #657A2F",
"#. c #758536",
"$. c #748434",
"%. c #788737",
"&. c #838F3A",
"*. c #778636",
"=. c #62772E",
"-. c #708133",
";. c #748535",
":. c #758636",
">. c #6E8031",
",. c #687D30",
"<. c #768635",
"1. c #6C7E31",
"2. c #708134",
"3. c #697C30",
"4. c #708234",
"5. c #65792E",
"6. c #6B7D31",
"7. c #7D8B39",
"8. c #768534",
"9. c #6E8032",
"0. c #687C30",
"q. c #788636",
"w. c #7B8938",
"e. c #7E8C39",
"r. c #697C31",
"t. c #7C8937",
"y. c #62772D",
"u. c #6B7F32",
"i. c #828E3B",
"p. c #808B37",
"a. c #7D8A39",
"s. c #708233",
"d. c #7F8C37",
"f. c #828D3A",
"g. c #697D31",
"h. c #6E7F32",
"j. c #838E3A",
"k. c #6B7E31",
"l. c #778635",
"z. c #7E8A38",
"x. c #5F752D",
"c. c #667B2F",
"v. c #768636",
"b. c #5F762C",
"n. c #61762D",
"m. c #687C31",
"M. c #718131",
"N. c #6F8132",
"B. c #7C8938",
"V. c #677B31",
"C. c #60762C",
"Z. c #818C39",
"A. c #718233",
"S. c #63792E",
"D. c #677C30",
"F. c #6C7F31",
"G. c #60772E",
"H. c #6C7F33",
"J. c #758433",
"K. c #64792E",
"L. c #6C7E32",
"P. c #7E8B37",
"I. c #6B7E32",
"U. c #667A30",
"Y. c #63782F",
"T. c #728235",
"R. c #808C37",
"E. c #6E8133",
"W. c #7E8A36",
"Q. c #7F8B39",
"!. c #818D3B",
"~. c #6F8033",
"^. c #6A7E31",
"/. c #63792F",
"(. c #61762C",
"). c #5C742B",
"_. c #7B8A38",
"`. c #60772C",
"'. c #657A2E",
"]. c #6F8031",
"[. c #6D7E32",
"{. c #6D8032",
"}. c #798735",
"|. c #718334",
" X c #718133",
".X c #808C38",
"XX c #677A2F",
"oX c #6D7F33",
"OX c #788836",
"+X c #818E39",
"@X c #657A30",
"#X c #718134",
"$X c #63772E",
"%X c #697D30",
"&X c #788637",
"*X c #768435",
"=X c #7A8838",
"-X c #7F8D39",
";X c #647A2F",
":X c #798737",
">X c #7E8B3A",
",X c #7C8936",
"<X c #6A7D32",
"1X c #748433",
"2X c #62782D",
"3X c #718333",
"4X c #6F8134",
"5X c #6B7F31",
"6X c #7A8936",
"7X c #728132",
"8X c #62782F",
"9X c #798838",
"0X c #728232",
"qX c #7F8C38",
"wX c #748536",
"eX c #718232",
"rX c #657B2F",
"tX c #728233",
"yX c #828F3B",
"uX c #808C3A",
"iX c #758534",
"pX c #828D39",
"aX c #818E3B",
"sX c #7B8838",
"dX c #5E752D",
"fX c #6B7C2F",
"gX c #5E752B",
"hX c #5E742B",
"jX c #60752D",
"kX c #5D752B",
"lX c #708033",
"zX c #5F772E",
"xX c #6A7E32",
"cX c #6A7F33",
"vX c #60752E",
"bX c white",
/* pixels */
"  . X o O + @ # $ % % & * * * * * * * * * * = - ; : > , < # 1 * * * * * * * * * & 2 # + 3 4 5 5 5 6 ",
"7 8 8 9 9 0 q w e r r t t t t t t t t t t t t w y u t t i p a s t t t t t t t t w d f g h 9 9 9 8 j ",
"7 8 8 9 k l z x c v b n t t t t t t t t t t t m M u t t t u d N t t t t t t t t B V C Z 9 9 9 9 8 A ",
"7 9 Z 0 z S V D M F G H t t t t t e t t t t t u M m t t t J a v t t t t t t t t K y L k 9 9 Z 9 9 P ",
"5 I Z U d Y T u R E V H t t t t m W Q t t t t s y ! t ~ e N w r t t t t t t t t r ^ V / ( l ) _ ` ' ",
"] 9 9 ' V W [ t t H { } t e [ ! y W e t t t t m D W r t c | [ t t t t t t t e [  ...X.f ..o...O.{ O.",
"+.9 Z @.d u t t [ ^ V #.W T #.$.a R r s r t ~ H { ^ J r %.K &.t t t t t n N *.a y / 9 =.-.D ;.:.a y ",
">.( 9 ,.<.r t t b { 1.1.o.y d y a N *.p [ t e *.V ^ J R w r t t t t t r W 2.3.z 4.5.9 9 6.p m e n 7.",
"8.S 9.S *.e t e W f 9 9 C / 0.z V { V q.e t R ;.{ *.t m w.t t s e.t t e.y r.Z h 0 9 9 I r. .t t e t ",
"= ^ { V W e t e W 4.( 9 9 9 Z l q V D c t t v F F c t H c t t W $.t.t s M / y.9 9 9 9 9 u.! t t t i.",
"p.a.^ % N t t t v y S X.k 9 9 9 _ ..M s t t H M t.r r %.H t t N { a R t *.Y s.@.9 9 9 9 X.;.1 K r i.",
"d.f.[ s e t t t t N M V g.9 9 9 k h.M s j.R a c t t t %.;.c e n a V b t c y $.k.9 9 9 9 0 / o.F l.c ",
"B r t t t t t t t ~ m <.4.0 9 9 Z 3.F w.u W a n t t t N { y %.! $.{ w t [ ^ V U 9 9 9 9 9 h ) U L O.",
"2 z.t t t t t t t t t v d ' x.9 Z c...F y V a r t t t [ q.F { F E H l.e r v.Y k.9 9 9 9 9 9 9 b.n.m.",
"M.%.e t t t t t t t t [ a m.x.Z Z _ V V V V *.e t t t t r m N c J K y w H y D 4.0 9 9 9 9 9 9 9 9 I ",
"N.y s t t n m B.v r t s a V.x.9 C.U { *.*.*.K t t t t t t t t t ~ K $.q z O.y D g.Z 9 9 9 9 b.9 9 I ",
"@ a n t Z.*.V V F *.m E A.S.9 9 C.L | J t e t t t t t t t t t t t [ y ) I D.o.y F.G.9 9 9 h U X.6.H.",
"J.c t [ B.D D V V F $...0.9 9 9 @...b t t t t t t t t t t t t t t t T 0 Z 9 _ X.K.Z 9 9 h L.y ^ a a ",
"P.t B.y V V o.0.U I.I.U.9 9 9 =.q y K t t t t t t t t t t t r [ J R <.0.9 9 I 9 9 8 8 I Y.T.t.n s e.",
"R.s { _ ) U @.9 Z 9 9 9 9 9 Z U d F 7.t t t t t t t t t t t s ^ #.a $.f 9 9 9 9 9 9 9 9 =.E.H J t i.",
"W.E q k Z 9 9 9 9 9 9 9 9 9 Z @.S { *.a.R t t t t t t t r s r c V V y k.9 9 9 9 9 9 9 9 9 ( s.E Q.!.",
"# ~.0.k ) =.9 9 9 9 9 9 9 9 9 9 0 @.^.V H t t t t t t t e.a *.*.F o.^.l 9 9 9 9 9 9 9 9 9 9 /./ y p ",
"(.0 I.9.o.~.) Z 9 9 Z 9 9 9 9 9 Z 9 X.^ s t t t t t t t r W F { F 6.9 9 9 9 9 9 9 9 9 9 9 9 9 =.f V ",
").Y.o.% ;.F A.X.m.m.S.9 9 9 9 9 9 0 o.1 t t t t t t t t t J e._.a L.9 9 9 9 9 9 9 9 Z 9 9 9 9 9 @.2.",
"`.m.d c s W F y M $.S _ 9 9 9 9 9 G.k.M c r J s v H B.J t t t R x z k 9 0 r._ 0 6.L.'.9 Z 9 9 9 K.S ",
"].{ $.u t r a.7.s c M 4.0 9 9 9 I K.[.{ F p l.M { { D N J Q.B.*.z @.Z k {.y ..S V y Y f U l k S.L D ",
"}.*.w r t t t t t t  .V 0.9 9 n.1.A.1.U U.g.-.z _ m.|.y ^ y F L k 9 I _ ..{ d d V E.L S V S  XS y  .",
".Xr t t t t s N s t u y 3.9 Z XXs.c.9 Z x.9 y.h Z Z ^.Y S g.~.q ^./ oXS ..C 0...o.0 9 K.2.y d v.B.t ",
"OXv +Xt t t Q.;.v.r m y ^.9 S.f @XZ 9 9 9 9 9 9 9 9 k 0.( 9 0.V S #X{ { k.9 h 4.9.9 9 9 I.y } n t [ ",
"# $.N t t t t c M R v #.S 6.E.4.@.0./ 6.k 9 9 9 $Xk 9 9 9 9 X./ l =./.) k 9 9 C ) 9 n.%Xo.%.e t s &X",
"# { q.e t t ~ Q.*Xs t u x a a a $.V d { @.9 9 U S L h 9 9 h -./ k I 9 9 9 9 9 9 9 9 =.s.F H t [ H =X",
"# ^ 7.t r u K E F t.t t J R [ [ -XW V A.l 9 9 L.$...) 9 9 k L.S {.;X9 9 9 9 9 9 9 9 9 g.4.y :X<.H t ",
"8.R t t v M $.$.{ *Xs t t t t t t w.V S Y.Z 9 / $.A.0 9 9 9 9 0 0.q ) 9 9 9 9 9 9 9 9 9 l ) L { c >X",
",Xt e v A.u.<Xr.L...^ c R J e r K p V y ~.X.L.y W 9.9 9 9 9 9 9 9 L k.9 9 =.I._ 9 9 9 @.U.) L W s *.",
"1XH *.s.2X9 Z Z 8 D.4.d a l.W ^ 3Xq 4XS -.4.O.l.m 5X9 9 9 9 9 9 9 L.X.9 9 @Xd 2.0 b._ o.{ ..6Xr v d ",
"7XF ..r.Z 8 ( ) 8 9 K.%X/ / k.U 8Xh l l y.h m.M c / 9 9 _ / I.' U / l 9 C.) ..V q L s.$.y y W m s 9X",
"0X4.( n.k I.{ ..I.h 9 9 8 9 Z =.` @.h 9 9 9 _ D H |.0.C S F F O.{ / k G.9 y.-.F V M B K s u } a c Q ",
"A.g.Z 8 k.E K W V k.k Z 9 9 Z X.d { ~./ / {.o.^ B.y V <.q.% %.w *.F q g.h K.S F W s t t t t t qX<.wX",
"eXz rXI.<.n t n ^ ..L @.=.9 I 0 0.z + 3...*.7.n [ a V v B.u t t t s H #.q s.a N e t t t t t t t H V ",
"$ ^ y x K t t t u x $.{ z 5.9 Z 9 U S U.h.M l.b t ! W m N e t t t t f.n K v R t t t t t t t t t H V ",
"* J s J t t t t t J e.w.y S oXI./ tXF r.6._ L a n f.n *.:Xt t t t t t t t t t t r s u s R R u  .a w.",
"d.-Xs t t s H n t t yXuXM { a y y S L.) I.I C d v t n ^ ^ [ t t t t t t t t t t B.y F { { ;.M V %.i.",
"8.iXw t t ! { E n n e s a N -XN y ` 9 @X9.=./ 1 R pXt u *.w.aXt t t t t t t t t E { 2.) S.^.tXF ^ sX",
"0XD _.t t w V $.$.y w :Xw e t t :XU dXX.9.K.{ m R J f.t [ W ! uXf.~ t t t t t t v F -.h Z 9 5.I.-.o.",
"fXS 1 R c M O.L.U.U ~.y u t t t c q h @.c.k X.S $.W e.t.t.s c W t.J t t t t t t J E ..k.l Z 9 9 h ) ",
"gXK.%Xz q L @.9 Z Z K.y R t t t N S 0 Z Z 9 9 l U S ;.{ $.1 e s *.q.r t t t t t t [ *.V q U.9 9 9 A ",
"hX8 9 9 h 9 9 9 9 9 k s.c t t r l.0.Z 9 Z 9 9 9 jX` ..a 7.c 1 n Q a ! t t t t t t t u y V O.U 9 8 A ",
"hX8 9 Z 9 9 9 9 9 9 h 2.^ n t J { h Z 9 g U 0 9 Z k {.*.e f.w l.B.M ^ [ t t t t t t t 1 { y S Y.8 A ",
"kX9 0 0.@.h 9 9 9 Z l 4.W J t t q.X._ X.S Y z K.K.k k.M u pXuX*.V V x n ~ t t t t t ~ b { S lX) Z zX",
"5 jXxXF ..cX=.Z Z y.xXy u e e e u ^ Y <.E l.{ S A.L o.D W R r s w.H u r [ r e e e e r ! V L.I 9 x.vX"
};
