/* XPM */
static char *_98908a63d9d495cb040bb218a412d14PmV5duOPiF36aw8u[] = {
/* columns rows colors chars-per-pixel */
"50 50 206 2 ",
"   c None",
".  c #0B0806",
"X  c #090807",
"o  c #1B0808",
"O  c #12110F",
"+  c #1A1715",
"@  c #25140B",
"#  c #3C150D",
"$  c #250F11",
"%  c #2A1511",
"&  c #251A18",
"*  c #311711",
"=  c #330507",
"-  c #2A211A",
";  c #392A1D",
":  c #0B1122",
">  c #141626",
",  c #251428",
"<  c #1E2120",
"1  c #182337",
"2  c #232222",
"3  c #2A2523",
"4  c #392B28",
"5  c #3D3422",
"6  c #21263A",
"7  c #3A3B3A",
"8  c #393636",
"9  c #2A3234",
"0  c #42180E",
"q  c #59120A",
"w  c #421D15",
"e  c #4C1C10",
"r  c #471710",
"t  c #551E12",
"y  c #5C1D1E",
"u  c #680E0E",
"i  c #750B08",
"p  c #7F0B0B",
"a  c #741D13",
"s  c #4D2211",
"d  c #48241B",
"f  c #59261A",
"g  c #5B301F",
"h  c #6F2114",
"j  c #622819",
"k  c #742D1C",
"l  c #792817",
"z  c #7C341A",
"x  c #743418",
"c  c #6E3716",
"v  c #401E20",
"b  c #482C28",
"n  c #572E22",
"m  c #593625",
"M  c #483A36",
"N  c #6B2D2A",
"B  c #7A3322",
"V  c #6B3030",
"C  c #722526",
"Z  c #7A631A",
"A  c #4A4A30",
"S  c #7B5424",
"D  c #765135",
"F  c #0B1F44",
"G  c #0F295D",
"H  c #1C2C55",
"J  c #332840",
"K  c #242B59",
"L  c #0F2A61",
"P  c #082A6B",
"I  c #443753",
"U  c #3E555E",
"Y  c #4A4B4B",
"T  c #454646",
"R  c #5C4E47",
"E  c #4E5152",
"W  c #535354",
"Q  c gray35",
"!  c #635A4F",
"~  c #735941",
"^  c #615D55",
"/  c #77664D",
"(  c #4C5B7B",
")  c #8D0707",
"_  c #90100C",
"`  c #BB0707",
"'  c #BB0707",
"]  c #B11208",
"[  c #832E1A",
"{  c #922F1C",
"}  c #8D331E",
"|  c #99371E",
" . c #97361D",
".. c #A83E14",
"X. c #863923",
"o. c #9D3A23",
"O. c #9C3F28",
"+. c #933722",
"@. c #8A3939",
"#. c #AC3D22",
"$. c #A43A20",
"%. c #B33E21",
"&. c #B63624",
"*. c #C60707",
"=. c #DF0907",
"-. c #E60606",
";. c #C92A0F",
":. c #D73D0F",
">. c #D52A1B",
",. c #824619",
"<. c #A0551C",
"1. c #927B1F",
"2. c #B5751A",
"3. c #B6641D",
"4. c #974020",
"5. c #865133",
"6. c #A94527",
"7. c #B44225",
"8. c #BA4729",
"9. c #B74E34",
"0. c #A3443A",
"q. c #8A693E",
"w. c #AF7427",
"e. c #A16A3F",
"r. c #C75417",
"t. c #F25715",
"y. c #C66B1D",
"u. c #F76E1A",
"i. c #C24729",
"p. c #C44A2B",
"a. c #CA4725",
"s. c #DC4D2A",
"d. c #D34D2C",
"f. c #DE542C",
"g. c #DB5836",
"h. c #CC5335",
"j. c #E2512D",
"k. c #EB5129",
"l. c #E15927",
"z. c #FE562C",
"x. c #FC582E",
"c. c #F5542D",
"v. c #EE5A34",
"b. c #EF5E39",
"n. c #E75733",
"m. c #F65C34",
"M. c #FA5B32",
"N. c #F45E39",
"B. c #F85F38",
"V. c #C56C2E",
"C. c #DD7D22",
"Z. c #E36B21",
"A. c #FD6C29",
"S. c #FA662D",
"D. c #FC7128",
"F. c #FC7827",
"G. c #EA653A",
"H. c #F4613B",
"J. c #F9613A",
"K. c #F86533",
"L. c #B1774B",
"P. c #814B6A",
"I. c #A55A72",
"U. c #EB6543",
"Y. c #F16947",
"T. c #B8893D",
"R. c #AEAD24",
"E. c #A5A626",
"W. c #A8AF35",
"Q. c #E3841C",
"!. c #F88B1C",
"~. c #EAB71F",
"^. c #C88933",
"/. c #E99320",
"(. c #FC9B22",
"). c #FB9325",
"_. c #F78033",
"`. c #F98F27",
"'. c #CDB420",
"]. c #D0B820",
"[. c #F8AA23",
"{. c #F4B922",
"}. c #D8D81F",
"|. c #D8DC30",
" X c #DDC523",
".X c #F4CC22",
"XX c #F4D323",
"oX c #F2DE22",
"OX c #F9DA28",
"+X c #EFE523",
"@X c #ECED23",
"#X c #EDEB23",
"$X c #F1E623",
"%X c #F0F123",
"&X c #B48F4E",
"*X c #A7B448",
"=X c #9DB567",
"-X c #0D3381",
";X c #15429B",
":X c #264688",
">X c #315A97",
",X c #2D4BA1",
"<X c #2F5CB8",
"1X c #445C9F",
"2X c #1251D2",
"3X c #1863F4",
/* pixels */
"                                                                                                    ",
"                                                                                                    ",
"                                                                                                    ",
"                                    m.m.z.m.H.                                                      ",
"                                  B.M.M.x.    M.H.              B.                                  ",
"                                        B.B.M.z.B.N.          H.m.                                  ",
"                                          B.z.z.z.z.M.        M.M.                                  ",
"                                            M.z.z.z.z.        M.z.M.                                ",
"                                            J.x.B.x.M.M.      B.M.x.                                ",
"                                              M.z.M.U.B.      M.x.B.m.              H.              ",
"                                              B.z.x.H.M.M.    m.B.  M.              N.              ",
"                                                x.z.x.z.x.      M.B.x.M.            m.B.            ",
"                                                x.x.x.z.z.B.    x.z.x.B.            M.M.            ",
"                                                M.x.x.z.z.x.    m.z.z.M.M.          M.x.            ",
"                                                  x.z.z.M.x.    m.z.z.z.M.          M.M.H.          ",
"                                                  x.z.z.M.x.      z.M.x.z.M.          x.z.m.        ",
"                                                  x.z.z.z.z.M.    x.M.x.z.x.          x.z.M.        ",
"            B.                    B.                z.M.x.z.M.      z.z.M.x.          M.B.x.        ",
"            M.                  M.m.                x.  x.M.M.      z.M.Y.B.            B.x.m.      ",
"            M.                  z.m.                x.m.x.M.B.      z.M.M.m.m.          z.z.x.      ",
"            N.H.              H.M.m.                M.z.z.z.M.      z.z.z.z.x.          M.m.m.M.    ",
"            m.x.              M.M.                  m.z.z.M.M.    x.x.M.z.z.x.          m.H.N.B.    ",
"            x.z.            N.N.M.                  m.z.z.M.B.    x.    z.z.M.          m.M.x.z.    ",
"            x.x.            H.                      B.J.z.z.M.    z.M.M.x.x.M.          M.z.z.z.    ",
"              M.H.          M.M.J.B.7.} o.n.        M.x.M.x.M.    z.z.z.x.B.            x.z.M.x.    ",
"              M.x.B.  B.    B.x.k.[ 0 l  .n.        z.M.  H.B.    z.z.z.z.x.            z.z.M.x.    ",
"              M.B.  x.x.K.B.M.z.[ t i.M.            z.x.  B.    m.z.z.z.z.M.          H.M.z.z.z.    ",
"              H.B._.D.F.D.F.A.l.t %.%.$.#.v.      m.z.z.z.M.    M.z.z.z.z.x.          x.z.z.z.z.    ",
"          N.B.K.A.`.[.[.).[.F.3.f t t [ r  .      M.M.x.z.B.    z.z.z.z.x.          M.z.x.M.x.M.    ",
"          m.F.F.(.XX+XXX.XXX(.C.j @ s { #.8.    m.z.M.z.M.    M.z.M.M.z.M.        m.x.z.M.  x.M.    ",
"          B.).{..X+X#X#X#XoXXX2.- w.Q...c #.j.J.x.M.z.M.    M.x.x.z.z.M.        M.z.B.x.z.z.M.      ",
"          S.(.+X#X#X#X#X#X#X#X'.A q.(.(./.S B k.x.M.z.M.B.M.M.N.b.x.x.        m.z.z.x.z.z.z.m.      ",
"          S.).$X%X%X%X%X#X}.|.R.A ! ^.(.(.^.3 z c.M.M.J.  x.z.H.H.M.    H.M.M.B.M.z.M.B.x.B.        ",
"            V.&XE.*XE.W.=XU >X9 7 W / Z.u.V.5 1.6.c.M.  M.z.z.z.x.x.M.M.B.z.x.U.U.x.x.M.B.          ",
"            0.,X1 :X> ;X3X2X-X: 2 W ^ 9.t.&.5 ].Z s.z.z.z.z.z.z.z.M.x.z.M.x.z.M.M.x.M.              ",
"            G.I       L L H   O 2 W W @.>.N l ~.R.4.m.M.M.z.M.H.M.x.x.z.z.z.z.x.M.                  ",
"            f.# # % # k o.e.D - T W 7 V C $ ] !. X,.j.M.B.  H.H.B.M.M.M.M.M.                        ",
"            j.X.O.      >.L.+ 2 Y Q T & n a ' a.T.S #.M.M.                                          ",
"              9.m       >.5.o % 8 W Y d s.%.y   T.S s +.j.                                          ",
"            H.O.+ ~ &X  X.t ) *.u 2 T R 9.%.b T.OX2.,.<.x 8.                                        ",
"            s.b T +   d r ' -.*.i o 2 W 4 p.h ;.{.Q.i ;.y.z b.B.                                    ",
"          m.+.M Y d 6.i.h ' -.*.= X 7 W 3   o._ :.:.` =.r.x m.M.                                    ",
"      g.p.6.M E 4 7.  J.N = ) *.q < T 8 X.    +.q p ` ` q e k.x.                                    ",
"    v.+.n m     j s.  d.I P > o D     * i.      h.7.h , 6 6 P.N.B.                                  ",
"    o.%     L.  B s.f.k M :XF         g i.          a.K <X( 1XI.x.                                  ",
"    j w f + ; O @ p.h.* & @ 0 w m g n w 7.          d.v G R R J 7.                                  ",
"                            f.o.o.o.k k n.             .X . . . +.                                  ",
"                                                                                                    ",
"                                                                                                    ",
"                                                                                                    "
};
