/* XPM */
static char *aeff9491d47d47acef00fe98294a84bbIUfkNqEbuZfNUpkT[] = {
/* columns rows colors chars-per-pixel */
"50 50 256 2 ",
"   c white",
".  c #FBFBFB",
"X  c white",
"o  c white",
"O  c white",
"+  c gray16",
"@  c #0E0000",
"#  c white",
"$  c white",
"%  c white",
"&  c gray99",
"*  c #773C01",
"=  c #1C0003",
"-  c black",
";  c white",
":  c white",
">  c #010101",
",  c white",
"<  c white",
"1  c #F9F9F9",
"2  c gray9",
"3  c white",
"4  c #090807",
"5  c white",
"6  c white",
"7  c white",
"8  c gray4",
"9  c white",
"0  c white",
"q  c white",
"w  c white",
"e  c white",
"r  c #030201",
"t  c #FEFEFE",
"y  c #05070B",
"u  c black",
"i  c white",
"p  c white",
"a  c None",
"s  c #000003",
"d  c #C96400",
"f  c #160C03",
"g  c #070706",
"h  c #1F1E1D",
"j  c #343332",
"k  c white",
"l  c #242323",
"z  c white",
"x  c #060303",
"c  c #02060A",
"v  c #050403",
"b  c #040200",
"n  c white",
"m  c #FEFEFE",
"M  c gray1",
"N  c #5D2F02",
"B  c #000002",
"V  c #FEFEFE",
"C  c #837965",
"Z  c #D06700",
"A  c white",
"S  c #3A3A3A",
"D  c #FB7E00",
"F  c #2F2E2C",
"G  c #2C1C0C",
"H  c #00000A",
"J  c #09090C",
"K  c #E57200",
"L  c #CB6700",
"P  c white",
"I  c white",
"U  c #020207",
"Y  c #BD5E00",
"T  c #2F2316",
"R  c #8D480C",
"E  c #0E0F0F",
"W  c #FBFBFB",
"Q  c #FF8100",
"!  c #301F0B",
"~  c #FFE9B6",
"^  c #030100",
"/  c #01018E",
"(  c #000005",
")  c #040403",
"_  c #FFE5B7",
"`  c white",
"'  c #DD6E00",
"]  c white",
"[  c #020202",
"{  c #020105",
"}  c #5C5145",
"|  c #0A0A0B",
" . c #202025",
".. c #C38105",
"X. c white",
"o. c white",
"O. c #040409",
"+. c #06065C",
"@. c #994D02",
"#. c yellow",
"$. c #C4C42F",
"%. c #414040",
"&. c white",
"*. c #2E1700",
"=. c #363027",
"-. c #BDA582",
";. c #C8B38F",
":. c #1D1E1E",
">. c #2321B2",
",. c #8F836E",
"<. c #7E0001",
"1. c #B56900",
"2. c #830507",
"3. c #F5E504",
"4. c #F9F9F9",
"5. c #FB9C00",
"6. c #20208D",
"7. c #543312",
"8. c white",
"9. c #221100",
"0. c white",
"q. c white",
"w. c #D46A00",
"e. c #070808",
"r. c #A08F73",
"t. c white",
"y. c #020244",
"u. c #6C6456",
"i. c #AB5600",
"p. c #4D4D4C",
"a. c #464139",
"s. c #800000",
"d. c #616165",
"f. c #EA7900",
"g. c #E9E9E7",
"h. c #251506",
"j. c #820000",
"k. c #F0A800",
"l. c #9A9A9A",
"z. c #534E46",
"x. c #20160C",
"c. c #39342F",
"v. c #E2C69D",
"b. c #EFD6A8",
"n. c #F98907",
"m. c #A9998C",
"M. c #BEA3A5",
"N. c #FFBE00",
"B. c #740000",
"V. c #FCE1B5",
"C. c #FDC800",
"Z. c #E4C200",
"A. c #923105",
"S. c #1211C7",
"D. c #3D3DC2",
"F. c #737272",
"G. c white",
"H. c #808588",
"J. c #2B1A0D",
"K. c #A25100",
"L. c #534333",
"P. c white",
"I. c #ABABA9",
"U. c #5D576E",
"Y. c #D6D8D9",
"T. c gray22",
"R. c #191919",
"E. c #968D8C",
"W. c #B7B7B6",
"Q. c #756A56",
"!. c #B3B3B4",
"~. c #4C2600",
"^. c #726A63",
"/. c #3A3834",
"(. c #5A5145",
"). c #0807AC",
"_. c #830600",
"`. c #1D1107",
"'. c #0E0E6E",
"]. c #FFECBB",
"[. c #C15C00",
"{. c #352D10",
"}. c #C0C2C8",
"|. c #9C5D1E",
" X c #F78C3D",
".X c #875521",
"XX c #644526",
"oX c #F2CDA8",
"OX c #DA7508",
"+X c #D4BE97",
"@X c #C2A1A2",
"#X c #D6AEB0",
"$X c #881000",
"%X c #C5C5C7",
"&X c #CEA312",
"*X c #A67324",
"=X c #F0E06F",
"-X c #7F0000",
";X c #891306",
":X c #A5A5B8",
">X c #FB9A01",
",X c #F9B577",
"<X c #C89438",
"1X c #1211CC",
"2X c #676094",
"3X c #2D2CBE",
"4X c #C6B1B7",
"5X c #767676",
"6X c #00003B",
"7X c #806449",
"8X c #191668",
"9X c #000028",
"0X c #EAECEC",
"qX c #28282D",
"wX c #554636",
"eX c #CECFCF",
"rX c #D1D1D0",
"tX c #E5A272",
"yX c #3F4142",
"uX c #C98440",
"iX c #9D8D44",
"pX c #FFD300",
"aX c #B17676",
"sX c #906D50",
"dX c #616565",
"fX c #D0BABD",
"gX c #A44911",
"hX c #B97373",
"jX c #91221F",
"kX c #A25A19",
"lX c #A85202",
"zX c #C2C433",
"xX c #7F0000",
"cX c #5B5BBA",
"vX c #8F8167",
"bX c #902100",
"nX c #932509",
"mX c #3F2572",
"MX c #E8CE00",
"NX c #F8EE00",
"BX c #8C7EB2",
"VX c #473F72",
"CX c #989BB6",
"ZX c #983000",
"AX c #7E8387",
"SX c yellow",
"DX c #EED800",
"FX c #05053C",
"GX c #514CB7",
"HX c #332D63",
"JX c #5571E3",
"KX c #2322BB",
"LX c #800005",
"PX c #000A11",
"IX c #47704C",
"UX c #47704C",
/* pixels */
"UXUXUXUXUXUXUXUXUXUXUXUXUXUXUXUXUXUXUXUXUXUXX &   UXUXUXUXUXUXUXUXUXUXUXUXUXUXUXUXUXUXUXUXUXUXUXUXUX",
"UXUXUXUXUXUXUXUXUXUXUXUXUXUXUXUXUXUXUXUXUXUX0 n , UXUXUXe $ : V X UXUXUXUXUXUXUXUXUXUXUXUXUXUXUXUXUX",
"UXUXUXUXUXUXUXUXUXUXUXUXUXUXUXUXUXUXUXUXUXUX0 &.9 UXUXUX0 7 7 i X UXUXUXUXUXUXUXUX% . UXUXUXUXUXUXUX",
"UXUXUXUXUXUXUXUXUXUXUXUXUXUXUXUXUXUXUXUXUXUXO < q O . . O e k UXUXUXUXUXUXUXUXUXUX& I UXUXUXUXUXUXUX",
"UXUXUXUXUXUXUXUXUXUXUXUXUXUXUXUXUXUXUXUXUXUXUX, M.#X@XM.#Xj.= UXUXUXUXUXUXUXUXUXUXX k UXUXUXUXUXUXUX",
"UXUXUXUXUXUXUXUXUXUXUXUXUXUXUXUXUXUXUXUXUXUX= <.B.2.2.nXgX2.s.UXUXUXUXUXUXUXUXUXX $   UXUXUXUXUXUXUX",
"UXUXUXUXUXUXUXUXUXUXUXUXUXUXUXUXUXUXUXUX- <.<.xXA.<XZX1.NX[.-X_.s.@ UXUXUXUXUXUXe ` X UXUXUXUXUXUXUX",
"UXUXUXUXUXUXUXUXUXUXUXUXUXUXUXUXUXUXUX. aX-XbX1...#.Z.3.SX..;X1.$Xs.UXUXUXUXUXUXo : . UXUXUXUXUXUXUX",
"UXUXUXUXUXUXUXUXUXUXUXUXUXUXUXUXUXUXUX; hX$XA.Z.3.#.#.#.#.DXMX1._.j.UXUXUXUXUXUXUXUXUXUXUXUXUXUXUXUX",
"UXUXUXUXUXUXUXUXUXUXUXUXUXUXUXUXUXUXUXX jX..A.R $.$.$.$.$.zX3.a 2.j.UX> v v b y UXUXUXUXUXUXUXUXUXUX",
"UXUXUXUXUXUXUXUXUXUXUXUXUXUXUXUXUXUXUXUXB.*XC GXD.S.D.>.6.6.C iX;XB.4 x ) g x g B = UXUXUXUXUXUXUXUX",
"UXUXUXUXUXUXUXUXUXUXUXUXUXUXUXUXUXUXUXUX<.mXCX%X}.JX:X>.6.6.).'.{ s s M 8 UXb ^ H ( @ UXUXUXUXUXUXUX",
"UXUXUXUXUXUXUXUXUXUXUXUXX 3 o UXUXUXUXUXUXS.3XKXD.S.3X1X1X2Xm.l r x u UXUXUXUXUX[ H 4 UXUXUXUXUXUXUX",
"UXUXUXUXUXUXUXUXUXUXUXk n m < 1 # UXUXUXUXcXFXHX4X4XVXm.fX=X=Xj O.H H 4 > c UXUX- u > UXUXUXUXUXUXUX",
"UXUXUXUXUXUXUXUXUX# & 9 A ; o t p o UXUX0 g. .2X_ V.BXoX~ ~ b.c.u [ s J e.s B v = UXUXUXUXUXUXUXUXUX",
"UXUXUXUXUXUXUXUXX 4.V . , UXUX  X.n 9 . z @X=.v._ _ V._ _ ;.C T = - @ y ( { x U { M v UXUXUXUXUXUXUX",
"UXUXUXUXUXUXUXUXo z , UXUXUX& 5 ; 7 m X t & 4 vX,X XoX_ ;.F g y UXUXUXUXUXUXu M ( U O.B UXUXUXUXUXUX",
"UXUXUXUXUXUXo X UXUXUXUX  # 1 0 UX. $ 3 $ W - 4 sXtXv.;.a.2 M 8 y UXUXUXUXUXUXUX@ b ^ H B - UXUXUXUX",
"UXUXUXUXUXUX5 z UXUXUXUXo p o UXUXUXW I w 6 - b g + l h + h e.O.s > UXUXUXUXUXUXUXUX= ^ x > UXUXUXUX",
"UXUXUXUXUXUX, , UXUXUXUXUXX   UXUXUX1 ; , , 4 R.E h E r | + %.S 2 s > UXUXUXUXUXUXUXUX= ) u UXUXUXUX",
"UXUXUXUX1 w . UXUXUXUX  5 k UXUXUXUX6 &.: 4 :.+ l l 2 2 + %.F S F r s > UXUXUXUXUXUXUX@ B 8 UXUXUXUX",
"UXUXUXUXo 6   UXUXUXUX  : 3 UXUXUXUX# w & J + 2 h l 2 j S + r 2 j + + J > UXUXUXUXUXUXUXUXUXUXUXUXUX",
"UXUXUX. k % UXUXUXX 1 . 7 5 k % UXUXO 3 UX) + f f l ! ! {.! f r 2 %.S F J = UXUXUXUXUXUXUXUXUXUXUXUX",
"UXUXUXo 4.o UXUXUX0 ] . A &.` , UXUXW I > x + ! N + ..k.Z.k.L h.| F 2 + R.b UXUXUXUXUX0 1 UXUXUXUXUX",
"UXUXUX% , % UX, t # . . n i ` , UXX ] 5 ( r h * * + &XC.N.N...`.s r E j j ) - UXUXUXUX5 & UXUXUXUXUX",
"UXUX. . UXUX. O t # UX% 5 n A , UX# i < d.E h.Y * + &XpX3.5.Z *.u ) l %.S  .5X$ UXUXUXUXUXUXUXUXUXUX",
"UXUX9 6 UXUX5 z UXUXUXUX  p m W P 7 < W T.+ ! R {..X>Xk.>XQ d *.8 PXl S S F T.1 UXUXUXUXUXUXUXUXUXUX",
"UXUX1 o UXUX3 # UXUXUXUXo m &.A t.V dXM  .j h.N h |.OXkXlXY N c.8 [ :./.j j :.B UXUXUXUXUXUXUXUXUXUX",
"UXUXUXUXo 6 % UXUXUXUXUXo p P o :Xp.=.2 j 2 r r E + F :.U r E l.# @ g Q.;.}  .v UXUXUXUXUXUXUXUXUXUX",
"% UX: $ i I   UXUXUXUXUXX w X b (.,.+X} h 2 f * * * * * * * ! l.X UX{ } b.+Xz.u UXUXUXUXUXUXUXUXUXUX",
"& V $ 0 z O UXUXUXUXUXUX, t : d.,.~ ].m.| * a D D Q n.5.C.5.N AX. v u.b._ ~ C 4 UX. O UXUXUXUXUXUXUX",
"# W UXo 8.# UXUXUXUXUXUXe G.q M.T -.v.C f a n.d R Q N.C.5.n.XXB UX4 C V.~ ].C 4 UX6 p UXUXUXUXUXUXUX",
"UXUXe 0 q ; UXUXUXUXk e i ; 3 UXy T =./.* D d @.* Y f.OX[.<X,.J.8 = x.vX-.-.u.v UXz A P UXUXUXUXUXUX",
"UXUX5 & k 7 ; ; 0 : ; z . % UXUXUXUXH.^.i.K * N N a..XsXx.z.^. .c UX= M g g [ UXUX: o.p UXUXUXUXUXUX",
"UXUXUXUXUXe ; : & t , UXUXUXUXUXUXy T a K L Z R %.W.yXE.C -.,X|.x.@ UXUXUXUXt X.7 w o.< UXUXUXUXUXUX",
"UXUXo O UXUXUXUXUXUXUXUXUXUXUXX k }.7.K w.L a XXW.< !.} uX XD ' J.8 UXUXUXUXp o.o.A ` 7 . UXUXUXUXUX",
"UXUXV 6 UXUXUXUXUXUXUXUXUXUXUXt t.l.7.' L d @.(.t 5 Y.L.i.Z f.D a T y UXUXUX3 $ m o.0.0.: UXUXUXUXUX",
"UXUXX ; # UXUXUXUXUXUXUXUXUXUXO 4.L.d w.L Y 7.%Xn n n I.N d K D Q R p.3 UXUXUXUX& 0.q.P.$ UXUXUXUXUX",
"UXUX  w k UXUXUXUXUXUXUX% UXUXUX= 9.w.' L Y *.c   .   c G @.Z K Q d 7XH.UXUXUXUXo X.q.< UXUXUXUXUXUX",
"UXUXUXUXO % UXUXUXUXUX% I P UXUX= 9.w.' Z Y *.8 UXUXUXUXc G K.Z K Q d G 8 UXUXUXUX# X.< UXUXUXUXUXUX",
"UXUXUXo p o UXUXUXUXUX3 $ X UXUX= 9.a a a K.J.8 UXUXUXUXUXM * d ' D f.~.> UXUXUXUXUX# 8.; UXUXUXUXUX",
"UXUXUX. 3   P k UXUXUXw 6 UXUXUX@ g f f f x b - UXUXUXUXUXy wXR @.i.N ^ = UXUXUXUXUXUXq w UXUXUXUXUX",
"UXUXUXUXUXUXz ; UXUXe 6   UXUXUXUXc O.+.9X4 UXUXUXUXUXUXUXUX0Xz.U f h e.> UXUXUXUXUXUXq G.o UXUXUXUX",
"UXUXUXUXUXUXUX, i q m < UXUX- @ [ g U +.+.6Xc UXUXUXo < q q P.eX`.| h U qXg.5 9 q q w z t.& UXUXUXUX",
"UXUXUXUXUXUXUX. ; w w e UX- v G 8X/ / / / y.b UXUXUXO 9 ] w i m p.y.+.+ '.d.g.< ] ] $ UX& o UXUXUXUX",
"UXUXUXUXUXUXUXUXUXUXUXUXUX> =.r.E.>.)./ H x u UXUXUX6 m p UXI I I.y.>.U.U.c.F.Y.7 7 . UXUXUXUXUXUXUX",
"UXUXUXUXUXUXUXUXUXUXUXUXUXc ) G G J s ( 8 y @ UXUX. < ` i w & I rXj } r.r.Q.h 4 X # % UXUXUXUXUXUXUX",
"UXUXUXUXUXUXUXUXUXUXUXUXUX- @ @ @ @ @ - UXUXUXUXUXUX  P 7 8.6 i A !.^ T F.u.{ u UXUXUXUXUXUXUXUXUXUX",
"UXUXUXUXUXUXUXUXUXUXUXUXUXUXUXUXUXUXUXUXUXUXUXUXUXUXUXUXUXUXUXUX1 6 UX, w z UXUXUXUXUXUXUXUXUXUXUXUX",
"UXUXUXUXUXUXUXUXUXUXUXUXUXUXUXUXUXUXUXUXUXUXUXUXUXUXUXUXUXUXUXUXUXUXUXUXUXUXUXUXUXUXUXUXUXUXUXUXUXUX"
};
