/* XPM */
static char *_4277a2831394bece5cb495bce3c7f22wMUqpTbDPPkRxwF1[] = {
/* columns rows colors chars-per-pixel */
"50 50 225 2 ",
"   c None",
".  c #050405",
"X  c #0B0405",
"o  c #0B0B0B",
"O  c #090709",
"+  c #100607",
"@  c #140D0D",
"#  c #1B0D0C",
"$  c #110806",
"%  c #19100D",
"&  c #090718",
"*  c #150E14",
"=  c #131313",
"-  c #1B1514",
";  c #1C1B1C",
":  c #191619",
">  c #210E0C",
",  c #2D150B",
"<  c #24140C",
"1  c #331A0C",
"2  c #261915",
"3  c #281A15",
"4  c #231A19",
"5  c #371E17",
"6  c #3E210F",
"7  c #26201C",
"8  c #362219",
"9  c #090A2A",
"0  c #141D26",
"q  c #0D1430",
"w  c #1D2225",
"e  c #18262D",
"r  c #1C2C37",
"t  c #1A313A",
"y  c #232324",
"u  c #2C2C2C",
"i  c #262929",
"p  c #392925",
"a  c #2B2932",
"s  c #23333D",
"d  c #2B3334",
"f  c #343433",
"g  c #3C3C3C",
"h  c #373638",
"j  c #36302F",
"k  c #441F11",
"l  c #42210C",
"z  c #492814",
"x  c #572C16",
"c  c #5B341A",
"v  c #692C0C",
"b  c #68350E",
"n  c #7B340D",
"m  c #6A2D13",
"M  c #612E13",
"N  c #732E13",
"B  c #6A3817",
"V  c #743915",
"C  c #472E28",
"Z  c #483429",
"A  c #57382A",
"S  c #563A31",
"D  c #4E3730",
"F  c #683C2E",
"G  c #78410F",
"H  c #794419",
"J  c #7A4829",
"K  c #6E4C30",
"L  c #141458",
"P  c #111147",
"I  c #293A41",
"U  c #3B3A42",
"Y  c #222449",
"T  c #131366",
"R  c #121475",
"E  c #211B6B",
"W  c #1C2063",
"Q  c #2C267B",
"!  c #513D51",
"~  c #443772",
"^  c #2B4452",
"/  c #384A55",
"(  c #33434D",
")  c #514C50",
"_  c #6F4F45",
"`  c #514D72",
"'  c #6D5575",
"]  c #72716D",
"[  c #803C0F",
"{  c #8C4A0E",
"}  c #8B4B13",
"|  c #864919",
" . c #8E5817",
".. c #9D5B13",
"X. c #99571B",
"o. c #914A13",
"O. c #AA5D15",
"+. c #A15715",
"@. c #A95A0F",
"#. c #97771C",
"$. c #BC630B",
"%. c #BA6308",
"&. c #AB611A",
"*. c #B46618",
"=. c #B07714",
"-. c #9B5A25",
";. c #875837",
":. c #9A5C3A",
">. c #88502B",
",. c #A95D20",
"<. c #96692A",
"1. c #977B27",
"2. c #A86A28",
"3. c #AB7427",
"4. c #B97722",
"5. c #B96A25",
"6. c #C46409",
"7. c #C76608",
"8. c #D26C0C",
"9. c #DA760E",
"0. c #C76C16",
"q. c #CC7216",
"w. c #DA7917",
"e. c #EA7C0F",
"r. c #E77D15",
"t. c #D07822",
"y. c #EB6E33",
"u. c #855D4B",
"i. c #886154",
"p. c #986B57",
"a. c #997553",
"s. c #A66F5B",
"d. c #A5785D",
"f. c #AE7444",
"g. c #8D6D76",
"h. c #A67B66",
"j. c #B17A62",
"k. c #CD7C58",
"l. c #C86E40",
"z. c #B69218",
"x. c #9E8134",
"c. c #AC8822",
"v. c #D69016",
"b. c #F6840D",
"n. c #F6880C",
"m. c #EA970C",
"M. c #F1990A",
"N. c #EC8213",
"B. c #E58618",
"V. c #F28314",
"C. c #F08C10",
"Z. c #E78D0F",
"A. c #DEA01D",
"S. c #EEA50A",
"D. c #F5B50C",
"F. c #EDA613",
"G. c #F4B412",
"H. c #F5BD13",
"J. c #F5BB1A",
"K. c #F1A911",
"L. c #C68639",
"P. c #D2832D",
"I. c #E4933D",
"U. c #D9A430",
"Y. c #EEB431",
"T. c #F4C00F",
"R. c #8A857C",
"E. c #B58069",
"W. c #B59069",
"Q. c #CC924F",
"!. c #EF8A59",
"~. c #D7A642",
"^. c #D8A744",
"/. c #D0AB5C",
"(. c #F1AF4F",
"). c #C6896A",
"_. c #D89676",
"`. c #CF9567",
"'. c #F39C6E",
"]. c #E69D78",
"[. c #E89365",
"{. c #D9B769",
"}. c #CCA47A",
"|. c #F5A375",
" X c #F4A47A",
".X c #F8A579",
"XX c #EFA47B",
"oX c #E0C97B",
"OX c #F1CD51",
"+X c #151788",
"@X c #15199D",
"#X c #2C3185",
"$X c #332D90",
"%X c #1F23A9",
"&X c #3C38A4",
"*X c #2D2DB5",
"=X c #453899",
"-X c #433FB6",
";X c #7B7F98",
":X c #5858B5",
">X c #5049AF",
",X c #7B55AB",
"<X c #684FAC",
"1X c #696EB7",
"2X c #1E23C7",
"3X c #1A22DB",
"4X c #3035C1",
"5X c #1A23E2",
"6X c #424AC3",
"7X c #A4768F",
"8X c #835CA4",
"9X c #818188",
"0X c #B2888E",
"qX c #B7A99A",
"wX c #8D90A2",
"eX c #B3AAA4",
"rX c #CC9595",
"tX c #C7AC8E",
"yX c #EDA481",
"uX c #EED282",
"iX c #EEC7A0",
"pX c #9293D3",
"aX c #ADAFD6",
"sX c #CDD0DF",
"dX c #E8EBF5",
/* pixels */
"                                                                                                    ",
"                                                                                                    ",
"                                                                                                    ",
"                                      m B B m H 2.d.J                                               ",
"                                  N n 2.U.2.} L.uXuX<.v M v                                         ",
"                            B m  .4.{ A.J.A.v.Y.OXY...a.`.3.V x                                     ",
"                            n n ..Y.A.G.H.H.H.H.D.J.{.oX~. .                                        ",
"                          N 4.4.V ;.~.~.~.~.~.~.^.^.{.(.v.[ m                                       ",
"                          N 3.x.! &X>X:X:X:X-X*X&X=X$Xg.Q.f.V c       . O O o . .                   ",
"                            ! ` 9XwX;XsXdXaX:X2X$X#X#X*X*XQ     o O o o         o o .               ",
"                            *X4X1XpX1XpXaXpX6X5X5X3X>X<X~ & . . o                   o .             ",
"                              %X+X#X<X8X,X=X$X,X,X8X/.(.:.X . . O                       =           ",
"                                q ` _. XXXg.' ].'. X(.(.:.$     O . .   .                           ",
"                                h 0XyX X XrXrXXX X|.[.!.:.+           = . . O . .                   ",
"                                A [.|.|.'. X X|.|.[.>.x A                     = . . O . .           ",
"                                  F k.y.y.!..X'.).F @                                 O O O         ",
"                                    A f.t.k.).s.C f =                                     o O O     ",
"                                      2 3 2 # - i u ; = = = .                                 O .   ",
"                                  ; : O i y . . . : f g g f : O                                 .   ",
"                              ; y i h = u y O ; w h g j d U h O . O                                 ",
"                              s I e / t ^ I t / / / ^ r t ^ / s s s w                               ",
"                            0 r I 0 e 0 I d w i i i w 0 0 0 e ( / / h y                             ",
"                            @ ; d # H , u J *.=.z.z.=...x . O f h y i u O                           ",
"                          = . ; j k -.1 i 1.H.D.S.S.G.v.G X O = @ O y h u o                         ",
"                          O O o 6 +.O.1 i <.F.S.T.G.m.9.G +   o . y g g h =                         ",
"                          O i y l *.} 8 Z c.G.D.G.m.b.9.G X     o i ! g g h =                       ",
"                          ; f i l X., p 2.N.M.S.K.C.r.&.x X     o i h i a g ; =                     ",
"                        i h f : < c @ f ;.2.3.c.#. .H 6 O         y D _ _ p h :                     ",
"                  _ _ # ; h ; . . X X 4 7 4 7 ; O . X . O         = p d.].i.j -                     ",
"              i.s.).].p.2 d y X l X.+.+.+...........| 6 O         2 D E. XXXj.S                     ",
"            # h. X X.X_.5 * J *.0.V.e.V.b.n.n.M.G.G.Z.V O         i._..X X X XS                     ",
"              C p._._.).3 > O.V.b.w.v q.b.M.G.F.m.Z.P.K ;       % p.]..X.X.X XS                     ",
"                  8 8 8 # -.N.r.0.*.M &.0.w.v.q.L.Q.tXR.g o         u.).).).).S                     ",
"                        c *.r.O.x B -.l , V X.f.qXeX] ) h .           3 2 2 2                       ",
"                      H t.8.6.$.*.X., o     j ] ) ] tXiXW.c                                         ",
"                    z w.9.7.$.$.@.V 2       u ) a.}.I.V.V.5.>                                       ",
"                    z w.7.%.$.$.| #           1 &.%.8.e.b.w.| 5                                     ",
"                  c 2.0.$.$.$.o.z               c O.$.9.b.b.r.,.l                                   ",
"                  b B.7.$.$.$.V @               <  .$.7.9.V.b.B.x                                   ",
"                  b N.9.6.$.$.V @                 z | @.$.8.e.N.t.V                                 ",
"                  b r.7.$.$.$.V @                   3 H 6.6.8.N.b.r.| X                             ",
"                  z &.} { { } B                       c +.$.7.r.V.q.H X                             ",
"                  o $ O O X @                           z H H | -.z +                               ",
"                    9 T T 9                               @ O O 4 4 = .                             ",
"                & & 9 R R +XL                               O O ; y = O                             ",
"          # * E +X@X@X@X@X2XT :                               & T W a Y T 9                         ",
"        p p.s.7X:X3X3X2XR L 9                                 9 @X4X~ ) ~ U -                       ",
"        - C C Z a P P P                                       * q ' 0XE.E.h.D =                     ",
"                                                                = 7 p p p p ; o                     ",
"                                                                                                    "
};
