/* XPM */
static char *result[] = {
/* columns rows colors chars-per-pixel */
"50 50 198 2 ",
"   c #010101",
".  c #01000F",
"X  c #0C0B0B",
"o  c #090704",
"O  c #150B01",
"+  c #1B0D00",
"@  c #130F0B",
"#  c #191208",
"$  c #000015",
"%  c #080715",
"&  c #0E1012",
"*  c #141414",
"=  c #1D1B15",
"-  c #1B1B1B",
";  c #171818",
":  c #251200",
">  c #2C1500",
",  c #2A1A0A",
"<  c #331900",
"1  c #3A1D00",
"2  c #221E18",
"3  c #352009",
"4  c #28211A",
"5  c #322A0D",
"6  c #00002A",
"7  c #1E1F21",
"8  c #01023B",
"9  c #1F2020",
"0  c #232323",
"q  c #2C2923",
"w  c #2B2B2B",
"e  c #272628",
"r  c #342E26",
"t  c #3B352B",
"y  c #363129",
"u  c #29293A",
"i  c #333333",
"p  c #3C3B3B",
"a  c #383736",
"s  c #7E0000",
"d  c #462300",
"f  c #542B02",
"g  c #523313",
"h  c #633101",
"j  c #6D3700",
"k  c #743A01",
"l  c #7D3F01",
"z  c #743E08",
"x  c #433E39",
"c  c #7E4000",
"v  c #45423D",
"b  c #544434",
"n  c #594F3F",
"m  c #654526",
"M  c #02024A",
"N  c #00005B",
"B  c #14145E",
"V  c #000069",
"C  c #191869",
"Z  c #010173",
"A  c #39296B",
"S  c #473F72",
"D  c #414142",
"F  c #524D4C",
"G  c #544D41",
"H  c #5B5246",
"J  c #595958",
"K  c #4C4E51",
"L  c #655847",
"P  c #78644C",
"I  c #766956",
"U  c #5D5B67",
"Y  c #5C5676",
"T  c #696969",
"R  c #797865",
"E  c #747474",
"W  c #7C7B7A",
"Q  c #830602",
"!  c #891200",
"~  c #88170C",
"^  c #850B10",
"/  c #922403",
"(  c #983000",
")  c #8E2F17",
"_  c #8D4905",
"`  c #934A00",
"'  c #9C4E00",
"]  c #965514",
"[  c #AA5500",
"{  c #A65301",
"}  c #B45B00",
"|  c #BC5E00",
" . c #A44911",
".. c #B76E00",
"X. c #B96500",
"o. c #AF7709",
"O. c #844E29",
"+. c #9C6024",
"@. c #A86F37",
"#. c #C56200",
"$. c #CC6600",
"%. c #D36900",
"&. c #DB6D00",
"*. c #D06700",
"=. c #DC7405",
"-. c #E47200",
";. c #E67900",
":. c #F47B00",
">. c #FD7F00",
",. c #906D50",
"<. c #86785F",
"1. c #8B7C63",
"2. c #B97372",
"3. c #BB8112",
"4. c #C28500",
"5. c #CE9C00",
"6. c #D38200",
"7. c #FF8300",
"8. c #FD9B00",
"9. c #F69803",
"0. c #EC8E13",
"q. c #CEA312",
"w. c #E8A700",
"e. c #FBA600",
"r. c #FFBC00",
"t. c #E6BF00",
"y. c #ED8925",
"u. c #E4C600",
"i. c #FDC400",
"p. c #FFCB00",
"a. c #FFD300",
"s. c #EED800",
"d. c #F7EF00",
"f. c #F9E100",
"g. c #FFFF00",
"h. c #E8E30F",
"j. c #C4C32E",
"k. c #C3C431",
"l. c #9D8D44",
"z. c #8F8167",
"x. c #958569",
"c. c #9E8D70",
"v. c #84827F",
"b. c #A49275",
"n. c #C6894E",
"m. c #FF8E53",
"M. c #C6A17D",
"N. c #F1AB6E",
"B. c #EADC6C",
"V. c #F6E472",
"C. c #000085",
"Z. c #1C1C8C",
"A. c #020294",
"S. c #24248F",
"D. c #0707AC",
"F. c #1919BA",
"G. c #2723AA",
"H. c #2524BD",
"J. c #3A3ABE",
"K. c #5D5C8A",
"L. c #71659E",
"P. c #514CB7",
"I. c #0808CF",
"U. c #1A18C9",
"Y. c #3B39C7",
"T. c #8C7EB2",
"R. c #9A9A9A",
"E. c #968D8C",
"W. c #A59A85",
"Q. c #B9A683",
"!. c #989AB6",
"~. c #AC9AA7",
"^. c #AAABA9",
"/. c #AEAFB1",
"(. c #B6B6B6",
"). c #C9B48F",
"_. c #C6B28E",
"`. c #D4BE97",
"'. c #F6B784",
"]. c #C6B1B7",
"[. c #D4B6B9",
"{. c #D5AAAA",
"}. c #DEC69D",
"|. c #F3C899",
" X c #EDD4A8",
".X c #E8D0AA",
"XX c #FEE3B6",
"oX c #FFEAB9",
"OX c #FFE8B7",
"+X c #FFE9AF",
"@X c #BBBBC3",
"#X c #A2A2C5",
"$X c #CBCDCE",
"%X c #D1D1D0",
"&X c #E9EAE8",
"*X c #FFFFFF",
"=X c #F4F4F4",
"-X c None",
/* pixels */
"-X-X-X-X-X-X-X-X-X-X-X-X-X-X-X-X-X-X-X-X-X-X-X-X-X-X-X-X-X-X-X-X-X-X-X-X-X-X-X-X-X-X-X-X-X-X-X-X-X-X",
"-X-X-X-X-X-X-X-X-X-X-X-X-X-X-X-X-X-X-X-X-X-X-X-X-X-X*X-X-X-X-X-X-X-X-X-X-X-X-X-X-X-X-X-X-X-X-X-X-X-X",
"-X-X-X-X-X-X-X-X-X-X-X-X-X-X-X-X-X-X-X-X-X-X-X-X-X-X*X-X-X-X-X-X-X-X-X-X-X-X-X-X-X-X-X-X-X-X-X-X-X-X",
"-X-X-X-X-X-X-X-X-X-X-X-X-X-X-X-X-X-X-X-X-X-X-X-X-X*X-X-X-X-X-X-X-X-X-X-X-X-X-X-X-X-X-X-X-X-X-X-X-X-X",
"-X-X-X-X-X-X-X-X-X-X-X-X-X-X-X-X-X-X-X-X-X[.-X-X{.-X-X-X-X-X-X-X-X-X-X-X-X-X-X-X-X-X-X-X-X-X-X-X-X-X",
"-X-X-X-X-X-X-X-X-X-X-X-X-X-X-X-X-X-X-X-XQ  .) s ^ s -X-X-X-X-X-X-X-X-X-X-X-X-X-X-X-X-X-X-X-X-X-X-X-X",
"-X-X-X-X-X-X-X-X*X-X-X-X-X-X-X-X-X-X-Xs { d...( 5.( s -X-X-X-X-X-X-X-X-X-X-X-X-X-X-X-X-X-X-X-X-X-X-X",
"-X-X-X-X-X-X-X-X-X-X-X-X-X-X-X-X-X! ..! %.g.d.u.g...X./ s -X-X-X-X-X-X-X-X-X-X-X-X-X-X-X-X-X-X-X-X-X",
"-X-X-X-X-X-X-X-X-X-X-X-X-X-X-X-X-X-X} s.s.g.g.g.g.f.u.( ! 2.-X-X-X-X-X-X-X-X-X-X-X-X-X-X-X-X-X-X-X-X",
"-X-X-X-X-X-X-X-X-X-X-X-X-X-X-X-X-Xs } h.k.j.j.j.k.j.O.) 4.) -X-X-X-X-X-X-X-X-X-X-X-X-X-X-X-X-X-X-X-X",
"-X-X-X-X-X-X-X-X-X-X          -X-X~ l.R S.S.F.J.F.J.P.R o.Q -X-X-X-X-X-X-X-X-X-X-X-X-X-X-X-X-X-X-X-X",
"-X-X-X-X-X-X-X-X-X    -X-X-X-X    % Z D.Z.Z.H.#X-X@X@X!.A -X-X-X-X-X-X-X-X-X-X-X-X-X-X-X-X-X-X-X-X-X",
"-X-X-X-X-X-X-X-X  -X-X-X-X-X-X-X    0 W.K.I.U.H.U.Y.H.H.I.-X-X-X-X-X-X-X-X-X-X-X-X-X-X-X-X-X-X-X-X-X",
"-X-X-X-X-X-X-X-X-X-X-X-X-X-X-X      y V.B.[.~.Y ].].A M -X-X-X-X-X-X-X-X*X*X-X-X-X-X-X-X-X-X-X-X-X-X",
"-X-X-X-X-X-X-X-X-X-X-X-X        -X-Xt  XOXOX.XT.OXOXL.u &X-X-X-X-X-X-X-X-X*X-X-X-X-X-X-X-X-X-X-X-X-X",
"-X-X-X-X-X-X-X-X-X        -X-X-X-X-Xt 1._.XXXXXXXXOX}.w -X-X-X-X*X*X-X-X-X-X-X-X-X-X-X-X-X-X-X-X-X-X",
"-X-X-X-X-X-X-X    -X-X-X-X-X-X-X-X-X-X  r ).XX|.m.'.z.-X-X-X-X*X-X-X-X-X-X-X-X-X-X-X-X-X-X-X-X-X-X-X",
"-X-X-X-X-X-X    -X-X-X-X-X-X-X-X-X-X-X-X; v ).|.N.,.-X-X-X-X-X-X-X-X-X-X-X-X-X-X-X-X-X-X-X-X-X-X-X-X",
"-X-X-X-X-X    -X-X-X-X-X-X-X-X-X-X  X & 9 w 9 4 e * -X-X-X-X-X-X-X-X-X-X-X-X-X-X-X-X-X-X-X-X-X-X-X-X",
"-X-X-X-X-X  -X-X-X-X-X-X-X-X-X-X  * a x w X   & - X ; -X-X-X-X-X-X-X-X-X-X-X-X-X-X-X-X-X-X-X-X-X-X-X",
"-X-X-X-X-X-X-X-X-X-X-X-X-X-X-X    i a w D w - * 0 0 w - -X-X*X-X-X-X-X-X-X-X-X-X-X-X-X-X-X-X-X-X-X-X",
"-X-X-X-X-X-X-X-X-X-X-X-X-X-X* w w i ; o w p i 7 0 9 ; e o -X-X-X-X-X-X-X-X-X-X-X-X-X-X-X-X-X-X-X-X-X",
"-X-X-X-X-X-X-X-X-X-X-X-X-XX i p D ; o + , 5 5 5 e # @ w o -X-X-X-X-X-X-X-X-X-X-X-X-X-X-X-X-X-X-X-X-X",
"-X-X-X-X-X-X-X-X-X-X-X-X-X; w ; w X : ..w.u.w.o.q h 3 e o -X-X-X-X-X-X*X*X*X-X-X-X-X-X-X-X-X-X-X-X-X",
"-X-X-X-X-X-X-X-X-X-X-X-Xo i i *     > =.i.r.p.q.q j z 2   -X-X-X-X-X-X*X-X*X-X-X-X-X-X-X-X-X-X-X-X-X",
"-X-X-X-X-X-X-X-X-X-X-XW - p D e   -X< %.8.f.a.q.q k | , * J -X-X-X-X-X*X*X-X-X-X-X-X-X-X-X-X-X-X-X-X",
"-X-X-X-X-X-X-X-X-X-X-Xa w p p 0 -X-X: #.7.8.e.9.] 5 _ , e a -X-X-X-X-X*X-X-X-X-X-X-X-X-X-X-X-X-X-X-X",
"-X-X-X-X-X-X-X-X-X-X-X- i t a 0 -X-Xw f | { -X=.+.7 h , i e -X-X-X*X*X*X*X-X-X-X-X-X-X-X-X-X-X-X-X-X",
"-X-X-X-X-X-X-X-X-X-X-X; G ).I o -X-XR.X o   7 w w &     ; i & t J ^.-X-X-X-X-X-X-X-X-X-X-X-X-X-X-X-X",
"-X-X-X-X-X-X-X-X-X-X-Xn }. XL   -X-XR., j c c c _ c k o ; 7 n `.z.L -X-X-X-X-X-X-X-X-X-X-X-X-X-X-X-X",
"-X-X-X-X-X-X-X-X-X-X-X1.oXXX XP -X-X-Xf e.p.8.7.>.:.7.} c X b.oXoXx.T -X-X-X-X-X-X-X-X-X-X-X-X-X-X-X",
"-X-X-X-X-X-X-X-X-X-X-X<.oXOXOX<.-X-X-Xm 0.9.i.r.7.` #.7.} O 1.}.b.x -X*X*X-X-X-X-X-X-X-X-X*X-X-X-X-X",
"-X-X-X-X-X-X-X*X-X-X-XP Q.Q.c.-X-X-X2 E.n.$.=.6.#.l ` $.:.z p i 2 -X-X-X-X-X-X-X-X-X-X-X-X*X-X-X-X-X",
"-X-X-X-X-X-X-X*X-X-X-X-XX X -X-X-X-X7 T K -X@.O.x f h l -.[ I -X-X-X-X-X-X-X-X-X-X-X-X-X-X-X-X-X-X-X",
"-X-X-X-X-X-X-X*X-X-X*X-X-X-X-X-X-X-X+.N.M.W E.D (.D ` *.$.-.} < -X-X-X-X-X-X-X-X-X-X-X-X-X-X-X-X-X-X",
"-X-X-X-X-X-X-X*X*X*X*X-X-X-X-X-X-X< -.>.y.n.H ^.-X(.m } *.%.-.g $X-X-X-X-X-X-X-X-X-X-X-X-X-X-X-X-X-X",
"-X-X-X-X-X-X*X*X*X*X-X-X-X-X-X-X< } >.:.%.[ b -X-X-XF ' $.$.&.h R.*X-X-X-X-X-X-X-X-X-X-X-X-X-X-X-X-X",
"-X-X-X-X-X-X*X*X*X-X-X-X-X-X-XK ` 7.>.-.$.f ^.*X*X*X$Xg X.*.%.#.b -X-X-X-X-X-X-X-X-X-X-X-X-X-X-X-X-X",
"-X-X-X-X-X-X-X*X*X-X-X-X-X-X-XP $.>.-.$.' < -X-X-X-X-X> | $.-.%.: -X-X-X-X-X-X-X-X-X-X-X-X-X-X-X-X-X",
"-X-X-X-X-X-X-X*X-X-X-X-X-X-Xd $.7.-.*.{ < -X-X-X-X-X-X< | *.&.%.: -X-X-X-X-X-X-X-X-X-X-X-X-X-X-X-X-X",
"-X-X-X-X-X-X*X-X-X-X-X-X-X-Xd :.>.&.$.z -X-X-X-X-X-X-X> { } } } + -X-X-X-X-X-X-X-X-X-X-X-X-X-X-X-X-X",
"-X-X-X-X-X-X*X-X-X-X-X-X-X-Xo h [ ' _ b -X-X-X-X-X-X-X-X+ + O O o -X-X-X-X-X-X-X-X-X-X-X-X-X-X-X-X-X",
"-X-X-X-X-X*X*X-X-X-X-X-X-X-Xo ; @   F &X-X-X-X-X-X-X-X-X-X6 M $ -X-X-X-X-X-X-X-X-X-X-X-X-X-X-X-X-X-X",
"-X-X-X-X-X*X-X-X*X*X-X-X&Xw X - X X %X*X*X*X-X-X-X-X-X-X8 V N $   -X-X-X-X-X-X*X*X-X-X-X-X-X-X-X-X-X",
"-X-X-X-X-X-X-X-X-X-X-X&XU C u B 8 D =X-X-X-X-X-X-X-X-X-XM A.C.A.A.C 2 -X-X-X-X-X-X-X-X-X-X-X-X-X-X-X",
"-X-X-X-X-X-X-X-X-X-X-XE p U Y G.M ^.-X-X-X-X*X-X-X-X-X-X$ 6 C.D.G.W.c.y -X-X-X-X-X-X-X-X-X-X-X-X-X-X",
"-X-X-X-X-X-X-X-X-X-X-X- I c.c.F a %X-X-X-X-X*X-X-X-X-X-X-X-X-X$ % 2 = o -X-X-X-X-X-X-X-X-X-X-X-X-X-X",
"-X-X-X-X-X-X-X-X-X-X-X  T E -   (.*X-X-X*X-X-X-X-X-X-X-X-X-X-X-X-X-X-X-X-X-X-X-X-X-X-X-X-X-X-X-X-X-X",
"-X-X-X-X-X-X-X-X-X-X-X-X-X-X-X-X-X-X-X-X-X-X-X-X-X-X-X-X-X-X-X-X-X-X-X-X-X-X-X-X-X-X-X-X-X-X-X-X-X-X",
"-X-X-X-X-X-X-X-X-X-X-X-X-X-X-X-X-X-X-X-X-X-X-X-X-X-X-X-X-X-X-X-X-X-X-X-X-X-X-X-X-X-X-X-X-X-X-X-X-X-X"
};
