/* XPM */
static const char *Z3JvdW5k[] = {
/* columns rows colors chars-per-pixel */
"50 50 145 2 ",
"   c #AE7F71",
".  c #C07E65",
"X  c #5E9B2F",
"o  c #569131",
"O  c #5B9734",
"+  c #5E9D33",
"@  c #619F33",
"#  c #64A234",
"$  c #6AA636",
"%  c #6EA936",
"&  c #70A732",
"*  c #72AC37",
"=  c #79AF37",
"-  c #74AE38",
";  c #7CB336",
":  c #77B138",
">  c #7CB439",
",  c #80B73A",
"<  c #84BA3B",
"1  c #89BE3C",
"2  c #8DC13D",
"3  c #92C53E",
"4  c #96C83F",
"5  c #99CB3F",
"6  c #A29A4D",
"7  c #BD9949",
"8  c #A28E51",
"9  c #A29A57",
"0  c #A89B5C",
"q  c #9CA247",
"w  c #93A349",
"e  c #91B440",
"r  c #93BA40",
"t  c #9CA651",
"y  c #A0BD47",
"u  c #A3AB58",
"i  c #A4B850",
"p  c #AEBF5A",
"a  c #BEB252",
"s  c #AC8365",
"d  c #BC8F69",
"f  c #BB9178",
"g  c #B4B368",
"h  c #EE9F59",
"j  c #CDB64B",
"k  c #C6B254",
"l  c #C8B05A",
"z  c #C6BE5B",
"x  c #D3B558",
"c  c #F1A85B",
"v  c #C88C64",
"b  c #CD8A6A",
"n  c #D5946A",
"m  c #C38579",
"M  c #CE947B",
"N  c #E1996D",
"B  c #E59674",
"V  c #EE9B71",
"C  c #F09A72",
"Z  c #C0A560",
"A  c #C1A863",
"S  c #CAA66D",
"D  c #C4B462",
"F  c #C8BB67",
"G  c #DFB06B",
"H  c #C2AD71",
"J  c #D2B970",
"K  c #DEB17F",
"L  c #F8BC6A",
"P  c #F6AE7A",
"I  c #F9B476",
"U  c #93C240",
"Y  c #97C940",
"T  c #9CCD41",
"R  c #A0CF41",
"E  c #A6C54E",
"W  c #BCC44D",
"Q  c #BBCB4F",
"!  c #A4D242",
"~  c #A9D643",
"^  c #ADD944",
"/  c #B2DE45",
"(  c #BAD54A",
")  c #BADE49",
"_  c #ABC750",
"`  c #BEC453",
"'  c #B6E047",
"]  c #BAE347",
"[  c #B7E048",
"{  c #BDE548",
"}  c #BFE848",
"|  c #C5CA5B",
" . c #C3D653",
".. c #CAD259",
"X. c #C1E847",
"o. c #C1E44B",
"O. c #C4EB4A",
"+. c #C9EE4B",
"@. c #CCF24C",
"#. c #D2F64D",
"$. c #D7F84E",
"%. c #DBFC4F",
"&. c #C9E354",
"*. c #CAE951",
"=. c #D3E35B",
"-. c #D2F350",
";. c #D9FA50",
":. c #CAC865",
">. c #D3CB66",
",. c #D5CE6D",
"<. c #DAC86F",
"1. c #DAC074",
"2. c #D7C278",
"3. c #E9CD60",
"4. c #E3C071",
"5. c #FBC773",
"6. c #FBCF77",
"7. c #ECD272",
"8. c #FBDC72",
"9. c #D9E361",
"0. c #DD7887",
"q. c #DF7792",
"w. c #CA8384",
"e. c #DB838C",
"r. c #D5958A",
"t. c #CF9693",
"y. c #D89695",
"u. c #E88784",
"i. c #ED8E80",
"p. c #E78A8D",
"a. c #EE9B82",
"s. c #E38691",
"d. c #E4989A",
"f. c #EB9C99",
"g. c #E2A78B",
"h. c #E7A98C",
"j. c #ECA88F",
"k. c #F5AE84",
"l. c #F4A589",
"z. c #ECB786",
"x. c #F6BF89",
"c. c #EBA791",
"v. c #F8C487",
"b. c #F9CC84",
"n. c #F6C189",
/* pixels */
"%.%.%.%.%.%.%.%.%.%.%.%.%.%.%.%.%.%.%.%.%.%.%.%.%.%.%.%.%.%.%.%.%.%.%.%.%.%.%.%.%.%.%.%.%.%.%.%.%.%.",
"%.%.%.%.%.%.%.%.%.%.%.%.%.%.%.%.%.%.%.%.%.%.%.%.%.%.%.%.%.%.%.%.%.%.%.%.%.%.%.%.%.%.%.%.%.%.%.%.%.%.",
"%.%.%.%.%.%.%.%.%.%.%.%.%.%.%.%.%.%.%.%.%.%.%.%.%.%.%.%.%.%.%.%.%.%.%.%.%.%.%.%.%.%.%.%.%.%.%.%.%.%.",
"%.%.%.%.%.%.%.%.%.%.%.%.%.%.%.%.%.%.%.%.%.%.%.%.%.%.%.%.%.%.%.%.%.%.%.%.%.%.%.%.%.%.%.%.%.%.%.%.%.%.",
"%.%.%.%.%.%.%.%.%.%.%.%.%.%.%.%.%.%.%.%.%.%.%.%.%.%.%.%.%.%.%.%.%.%.%.%.%.%.%.%.%.%.%.%.%.%.%.%.%.%.",
"%.%.%.%.%.%.%.%.%.%.%.%.%.%.%.%.%.%.%.%.%.%.%.%.%.%.%.%.%.%.%.%.%.%.%.%.%.%.%.%.%.%.%.%.%.%.%.%.%.%.",
"%.%.%.%.%.%.%.%.%.%.%.%.%.%.%.%.%.%.%.%.%.%.%.%.%.%.%.%.%.%.%.%.%.%.%.%.%.;.%.=.,.9.2.:.$.$.$.$.$.$.",
"$.$.$.$.$.$.$.$.$.$.$.$.$.$.$.$.$.$.$.$.$.$.$.$.$.$.$.$.$.$.$.$.$.$.$.$.$.-.=.1.c.z.f.r...#.$.$.#.#.",
"#.#.#.#.#.#.#.#.#.#.#.#.#.#.#.$.$.#.#.#.#.#.#.#.#.#.$.$.#.#.#.#.#.#.#.#.#.| y.j.n.b.k.s.A @.#.#.#.#.",
"@.@.@.@.@.@.#.#.#.#.#.#.#.#.#.#.#.#.#.#.@.@.@.@.#.#.#.#.#.#.#.#.@.@.#.@.@. .M a.5.8.I p.S +.@.@.@.@.",
"@.@.@.@.@.@.@.@.@.@.@.@.@.@.@.@.@.@.@.@.@.@.@.@.@.@.@.@.@.@.@.@.@.@.@.@.@.+.S u.h L V 0.m o.@.@.@.@.",
"@.@.@.@.@.*.*.&.+.@.@.@.+.+.@.@.@.@.@.@.@.@.@.@.@.@.@.@.@.@.@.@.@.@.@.@.@.+.Z v j N n a Q O.+.+.+.+.",
"+.+.+.+.&.>.<.J  .+.+.+.X.{ X.+.+.+.+.+.+.+.+.+.+.+.+.+.+.+.+.+.+.+.+.+.+.+.} o.O.W W O.+.+.+.+.+.+.",
"O.O.+.o.F 4.7.G z X.O.O.X.O.X.+.+.+.+.+.+.+.+.+.+.+.+.+.+.+.+.+.+.O.+.+.X.+.+.+.+.O.} O.X.X.X.X.X.X.",
"X.X.X.} z G 3.G D o.X.X.X.X.X.X.X.X.X.X.X.X.X.X.X.X.X.X.X.X.X.X.X.X.X.X.X.X.X.X.X.X.X.X.X.X.} } } } ",
"' / ] { ` k x l W } } } o.X.X.} } X.X.} } } } } } } } } } } } } } } } } } } } } } } } } } } } } } } ",
"5 5 ^ ] ) ) ( ( { } } } } } } } } } { } } } } ] ] } } } } { { } } } ] ] ] { ] ] { { { { ] ] ] ] ] ] ",
"^ ! ! / ] ] ] ] ] ] ] ] ] ] ] ] ] ] ] ] ] ] ] [ / ] ] ] ] ] ] ] ] ] ] ] ] ] ] ] ] ] ] ] ] ] ] ] ] ] ",
"[ / ^ / [ [ [ [ [ [ [ [ [ [ [ [ [ [ [ [ [ [ [ [ / [ [ [ [ [ [ [ [ [ [ [ [ [ [ [ [ [ [ [ [ [ / / / / ",
"/ / / / / / / / / / / / / / / / / / / / / / / / / / / [ / / / / / / / / / / / / / / / / / / / / / / ",
"^ ^ ^ ^ ^ / / / / / / ^ / / / / / / / / / / / / / / / / / / / / / / / / / / / / ^ ^ ^ ^ ^ ^ ^ ^ ^ ^ ",
"^ ^ ^ ^ ^ ^ ^ ^ ^ ^ ^ ^ ^ ^ ^ ^ ^ ^ ^ ^ ^ ^ ^ ^ ^ ^ ^ ^ ^ ^ ^ ^ ^ ^ ^ ^ ^ ^ ^ ^ ^ ^ ^ ^ ^ ^ ^ ^ ^ ^ ",
"^ ^ ^ ~ ~ ~ ~ ^ ^ ^ ^ ^ ^ ^ ~ ~ ^ ^ ^ ^ ^ ^ ^ ^ ^ ^ ^ ^ ^ ^ ^ ^ ^ ^ ^ ~ ~ ~ ~ ~ ~ ~ ~ ~ ~ ~ ~ ~ ~ ~ ",
"~ ! ! ~ ~ ~ ~ ~ ~ ~ ~ ~ ~ ~ ~ ~ ~ ~ ~ ~ ~ ~ ~ ~ ~ ~ ~ ~ ~ ~ ~ ~ ~ ~ ~ ~ ~ ~ ! ! ! ! ! ! ! ! ~ ! ! ! ",
"! ! ! ! ! ! ! ! ! ! ! ! ! ! ! ! ! ! ! ! ! ! ! ! ! ! ! ! ! ! ! ! ! ! ! ! ! ! ! ! ! ! ! ! ! ! ! ! ! ! ",
"! ! ! ! ! ! ! ! ! ! ! ! ! ! ! ! ! ! ! ! ! ! ! ! E p _ g i ! ! ! ! ! ! ! ! ! ! ! ! ! ! ! ! ! R R R R ",
"T T T T T T T T R R R R T R T R R R R R R R R E H g.K d.f y T T T T T T T T T T T T T T T T T T T T ",
"T T T T T T T T T T T T T T T T T T T T T 5 u t.h.x.v.l.e.9 5 T T T T T T T T T T T T T T T T T T T ",
"5 5 5 T T T 5 5 T T 5 5 T T T T T T T T T 5 t w.a.6.8.P e.0 5 5 5 4 2 3 3 3 5 5 T 5 5 5 5 T T 5 5 5 ",
"4 4 4 4 4 4 4 4 4 4 3 2 3 4 4 Y Y Y Y Y 4 4 U d i.c L C q.  3 4 2 1 , , ; < 3 4 4 4 4 3 3 3 3 3 3 3 ",
"3 3 3 3 3 3 3 3 3 3 3 1 1 3 3 3 3 3 3 3 3 3 U s . 7 B b 8 w 3 2 < ; , < , , 2 3 3 3 3 3 3 3 3 3 3 3 ",
"3 3 3 3 3 3 3 3 3 3 3 2 2 3 3 3 3 3 3 3 3 3 3 e e r 6 q 3 2 3 2 < < 1 3 2 1 2 3 2 2 2 3 3 2 2 2 2 2 ",
"2 2 2 2 2 2 2 2 2 2 2 2 2 2 2 2 2 2 2 2 2 2 2 2 2 2 1 2 2 2 2 2 2 2 2 2 2 2 2 2 2 2 2 2 2 2 2 2 2 1 ",
"1 1 1 1 1 2 2 2 2 2 2 2 2 2 2 2 2 2 2 2 2 2 2 2 2 2 2 2 1 1 1 1 2 2 1 1 1 1 1 1 1 1 1 1 1 1 1 1 1 1 ",
"1 1 1 1 1 1 1 1 1 1 1 1 1 1 1 1 1 1 1 1 1 1 1 1 1 1 1 1 1 1 1 1 1 1 1 1 1 1 1 1 1 1 1 1 1 1 1 1 1 1 ",
"< < < < < < < < < < < < < < < < < < < < < < < < < < < < < < < < < < < < < < < < < < < < < < < < , , ",
", , , , , , , , , , , , , , , , , , , , , , , , , , , , , , , , , , , , , , , , , > > , , , , , , , ",
"> > > > , , , , , , , , , , , , , , , , , , , , , , , , , , , > > > > > > , , , > - = > > > > > > > ",
"> > > > > > > > > > > > > > > > > > > > > > > > > > > > > > > > > > > > > > > > > - & ; > > > > > > ",
"> > > > > > > > > > > > > > > > > > > > > > > > > > > > > > > > > > > > > > > > > > - > > > > > > : ",
": : : : : : : : : : : : : : : : : : : : : : : : : : : : : : : : : : : : : : : : : : : : - : - - - - ",
"- - - - - - - - - - - - - - - - - - - - - - - - - - - - - - - - - - - - - - - - - - * * - - - - * * ",
"* * * * * * * * * * * * * * * * * * * * * * * * * * * * * * * * * - * * * * * * * * * * * * * * % * ",
"% % % % % % % % % % % % % % % * % % % % * * * * * % % % % % % % % % % % % % % % % % % % % % % % % % ",
"$ $ $ $ $ $ % % $ $ $ $ $ % % % % % % % % % % % % % % % % $ $ $ $ $ $ $ % % $ $ $ $ $ $ $ $ $ $ $ $ ",
"$ $ $ $ $ $ $ $ $ $ $ @ @ $ $ $ $ $ $ $ $ $ $ $ $ $ $ $ $ $ $ $ $ $ $ $ $ $ $ $ $ $ $ $ $ $ $ $ $ $ ",
"# # # # # # # $ # # # # X # $ $ $ $ # $ $ # $ $ $ $ $ $ $ $ $ $ $ $ # # # # # # # # # # # # # # # # ",
"# # # # # # # # # # # # # # # # # # # # # # # # # # # # # # # # # # # # # # # # # # # # # # # # # # ",
"@ @ @ @ @ @ @ @ @ @ @ @ # # @ @ # @ @ @ @ @ @ @ @ @ @ @ # @ @ @ @ @ @ @ @ @ @ + @ @ + + + + + + + + ",
"+ + + + + + + + + + + + + + + + + + + + + + + + + + + + + + + + + + + + + + + O o O + + + + + + + O "
};
