/* XPM */
static char *c802065166e947969e424ae1ec052574[] = {
/* columns rows colors chars-per-pixel */
"50 50 80 1 ",
"  c #9E5C35",
". c #A35E36",
"X c #A65F38",
"o c #A56137",
"O c #A76138",
"+ c #AC633A",
"@ c #AF693C",
"# c #B3663D",
"$ c #B4693D",
"% c #B96C3F",
"& c #BC713F",
"* c #B66B41",
"= c #BA6E41",
"- c #BD7344",
"; c #C27443",
": c #C87744",
"> c #C57845",
", c #CC7B45",
"< c #C37A49",
"1 c #CB7F4A",
"2 c #D07E47",
"3 c #D37F48",
"4 c #C7804D",
"5 c #CB834E",
"6 c #D18047",
"7 c #D4824A",
"8 c #DB864B",
"9 c #D68A4F",
"0 c #DE894C",
"q c #CC8650",
"w c #C78851",
"e c #CE8B53",
"r c #D08A53",
"t c #D28A52",
"y c #D18F56",
"u c #D78E54",
"i c #D68F54",
"p c #DA8D51",
"a c #DD8F52",
"s c #D59056",
"d c #DD9053",
"f c #D99256",
"g c #DC9054",
"h c #DB9457",
"j c #DE9557",
"k c #D69459",
"l c #D6955A",
"z c #DB9659",
"x c #D9965A",
"c c #DA985B",
"v c #DD995B",
"b c #DF9C5D",
"n c #E18A4D",
"m c #E28C4F",
"M c #E38D4F",
"N c #E18E51",
"B c #E48F50",
"V c #E19253",
"C c #E49152",
"Z c #E59354",
"A c #E09455",
"S c #E69555",
"D c #E59857",
"F c #E19758",
"G c #E29959",
"H c #E79A58",
"J c #E69C5B",
"K c #E09D5D",
"L c #E89F5D",
"P c #EA9F5C",
"I c #DEA05F",
"U c #E5A05E",
"Y c #EAA15D",
"T c #E6A461",
"R c #E9A863",
"E c #EDA862",
"W c #EBAA65",
"Q c #EDAF68",
"! c #EBB06A",
"~ c #F1B36A",
/* pixels */
"#######################################$$$$$######",
"#<7;$################################-777333,,;=$#",
"-jB0:####*-=###############-ely4=####sSnnnnnnnn8,#",
"<Vnn8%##<fa8,-###########$e!~EYJf>$#$cSnnnnnnnnn:O",
"<Nnn,##<KCnnn8,%#########eQLNnnnm0,%#eHnnnnnnnn8+X",
"=77-O#-KZnnnnnn7;#######<RSnnnnnnnn3%-Gmnnnnnn0% #",
"#OoO+*xHnnnnnnnn8;#####-bSnnnnnnnnnn2%5Annnnnn; +#",
"#####eLnnnnnnnnnn8=####rHnnnnnnnnnnnn,=fCnnnn: O##",
"####<UNnnnnnnnnnnn7%##-Fmnnnnnnnnnnnn0;<gmn0; O###",
"###=vCnnnnnnnnnnnn8=#$rCnnnnnnnnnnnnnn8=-<;# O####",
"###rHnnnnnnnnnnnnn8%#-Annnnnnnnnnnnnnnn2$+XX+#####",
"##<Gmnnnnnnnnnnnnn7##5Vnnnnnnnnnnnnnnnn0;#########",
"#$iCnnnnnnnnnnnnnn,+-dnnnnnnnnnnnnnnnnnn7$########",
"#<Gnnnnnnnnnnnnnn0%+5Nnnnnnnnnnnnnnnnnnn0;###*=$##",
"#4Dnnnnnnnnnnnnnn2O=gnnnnnnnnnnnnnnnnnnnn,###qa:##",
"#*9nnnnnnnnnnnnn0%+1Vnnnnnnnnnnnnnnnnnnnn7##*hC6+#",
"##-8nnnnnnnnnnnn,O$iNnnnnnnnnnnnnnnnnnnnn8$#$5,+.#",
"##+-0nnnnnnnnnn8#+-Annnnnnnnnnnnnnnnnnnnn8####X.##",
"###+;0nnnnnnnnn;O#5Snnnnnnnnnnnnnnnnnnnnn7O#######",
"####+;0nnnnnnn6+#$sCnnnnnnnnnnnnnnnnnnnnn&.#######",
"#####O-8nnnnn8#+#=vmnnnnnnnnnnnnnnnnnnnn:.+#######",
"######O#,8007$O##-Gnnnnnnnnnnnnnnnnnnnn; O########",
"#######+O+$#oO###<Hnnnnnnnnnnnnnnnnnn0& O##$==$###",
"#########++O+####<Annnnnnnnnnnnnnnnn8$ +$-5ijg7$##",
"#################-Annnnnnnnnnnnnnnn7+.+-lTHCmn0%##",
"#################=gnnnnnnnnnnnnnn0:oX#=cLBnnnnn;+#",
"#######$#########$7mnnnnnnnnnnnn8% O#$iDnnnnnnn,+#",
"####*<r7,;=$######-0nnnnnnnnnnn7@.+##<Jnnnnnnnn7+#",
"###=lLCmnn83;$####$>0nnnnnnnnn,oX####5Snnnnnnnn8$#",
"###yLmnnnnnn03;#####;8nnnnnn7%.O#####5Vnnnnnnnnn%+",
"##-TNnnnnnnnnn8,$###+%,7882&o.+######5Nnnnnnnnnn-+",
"##yYnnnnnnnnnnnn,$###+O++O..+########5mnnnnnnnnn;O",
"#$bHnnnnnnnnnnnnn:######$############<mnnnnnnnnn;O",
"#=TSnnnnnnnnnnnnn7$###$ex773,:;%#####=7nnnnnnnnn;X",
"#-TCnnnnnnnnnnnnn7$###-WSnnnnn07;#####$,8nnnnnn0$X",
"#-Tmnnnnnnnnnnnnn7$###qEnnnnnnnn8%#####+%,80nn8; +",
"#<Rmnnnnnnnnnnnnn7####yYnnnnnnnn0=#######++$%%+ O#",
"#<Rmnnnnnnnnnnnnn2####sLnnnnnnnn0%#####$###+OOO###",
"#-RNnnnnnnnnnnnnn,####lHnnnnnnnn8####-yxr<*#######",
"#*ISnnnnnnnnnnnnn;####lHnnnnnnnn6O##*xYSCV7-######",
"##wJnnnnnnnnnnnn0%####sLnnnnnnnn-O##<Lmnnnm8=#####",
"##$eVnnnnnnnnnnn7#####5Ynnnnnnn8++##4Hnnnnn0=#####",
"###@40nnnnnnnnnn:+=*$#=bNnnnnnn-X###qDnnnnnn%+####",
"####+-8nnnnnnnn7+-xp>##5Vnnnnn,o+###qLnnnnn0$+####",
"#$=##O#,0nnnnn7@+iCn0;#=pnnnn7OO####<Lmnnnn8++####",
"#5g>##+O$>772&oO=gnnn,##>0nn7+X#####$50nnnn,X#####",
"$rm3$###+OOOoX+#=ann0-+#$3n,+X########=,807+X#####",
"#>,$#######+####$182$X###$$.O##########+$#..######",
"#OX+##############+.X#####O+############+O+#######",
"##################+###############################"
};
