/* XPM */
static char *result[] = {
/* columns rows colors chars-per-pixel */
"50 50 225 2 ",
"   c #020100",
".  c #0B0C0E",
"X  c #170B09",
"o  c #1B160D",
"O  c #121212",
"+  c #1D1C14",
"@  c #170B14",
"#  c #281408",
"$  c #391809",
"%  c #3A0C18",
"&  c #281B13",
"*  c #3A1916",
"=  c #250D13",
"-  c #2A2818",
";  c #372415",
":  c #36321B",
">  c #3D200E",
",  c #271F21",
"<  c #3A292D",
"1  c #343032",
"2  c #4B1C0D",
"3  c #46190C",
"4  c #470B1D",
"5  c #4B1715",
"6  c #571816",
"7  c #611B1A",
"8  c #45220D",
"9  c #4B230D",
"0  c #53230D",
"q  c #58280D",
"w  c #452513",
"e  c #4C2718",
"r  c #542B11",
"t  c #5D2C13",
"y  c #5C3417",
"u  c #4B3217",
"i  c #642509",
"p  c #74290B",
"a  c #692C18",
"s  c #772814",
"d  c #6A3312",
"f  c #683612",
"g  c #763B14",
"h  c #7C3C13",
"j  c #763714",
"k  c #7D300F",
"l  c #590E24",
"z  c #581925",
"x  c #490A27",
"c  c #6C1A24",
"v  c #691725",
"b  c #75192A",
"n  c #422F2C",
"m  c #493624",
"M  c #473134",
"N  c #792322",
"B  c #673423",
"V  c #7A531D",
"C  c #514A24",
"Z  c #454222",
"A  c #655929",
"S  c #706630",
"D  c #383A4F",
"F  c #44434A",
"G  c #4C4853",
"H  c #444E62",
"J  c #51576B",
"K  c #5A6377",
"L  c #883816",
"P  c #963C18",
"I  c #892816",
"U  c #AB371B",
"Y  c #B13A14",
"T  c #811D2C",
"R  c #881C36",
"E  c #9A262D",
"W  c #97292C",
"Q  c #8B3222",
"!  c #9C322D",
"~  c #943820",
"^  c #942132",
"/  c #9A2534",
"(  c #8C2730",
")  c #AC3525",
"_  c #AB3928",
"`  c #B53624",
"'  c #A32633",
"]  c #A72A38",
"[  c #B32B39",
"{  c #AB3735",
"}  c #B23136",
"|  c #B73836",
" . c #A02D25",
".. c #CB3F29",
"X. c #C83639",
"o. c #D83B3C",
"O. c #864215",
"+. c #8C4316",
"@. c #8A4A18",
"#. c #934516",
"$. c #974618",
"%. c #93551E",
"&. c #B3420F",
"*. c #AE4311",
"=. c #A34515",
"-. c #B74815",
";. c #B3551A",
":. c #BB5A1B",
">. c #AA4914",
",. c #9E601F",
"<. c #8D5124",
"1. c #BC492C",
"2. c #BC4027",
"3. c #B94732",
"4. c #A84B30",
"5. c #887636",
"6. c #8F6F2D",
"7. c #A8762D",
"8. c #BB7B2B",
"9. c #BD7136",
"0. c #CA4818",
"q. c #D34A1B",
"w. c #DF4C10",
"e. c #C9541B",
"r. c #CA5E1D",
"t. c #C85717",
"y. c #DA521D",
"u. c #DC5B19",
"i. c #D55418",
"p. c #E4551A",
"a. c #E25E18",
"s. c #EB5518",
"d. c #F15E1C",
"f. c #CD631D",
"g. c #C7601D",
"h. c #D7681F",
"j. c #E2631A",
"k. c #EC641B",
"l. c #ED6B1E",
"z. c #E7641A",
"x. c #F46C1D",
"c. c #F3621B",
"v. c #C44E29",
"b. c #C94621",
"n. c #CD5628",
"m. c #D4552C",
"M. c #D65824",
"N. c #D84233",
"B. c #D14F30",
"V. c #E34D23",
"C. c #EA4C2A",
"Z. c #E84928",
"A. c #ED5223",
"S. c #E54637",
"D. c #E95232",
"F. c #F05B33",
"G. c #DA6925",
"H. c #D77926",
"J. c #CA702C",
"K. c #E86725",
"L. c #F46C24",
"P. c #F56B29",
"I. c #F46427",
"U. c #EC7222",
"Y. c #E77525",
"T. c #F67522",
"R. c #F97621",
"E. c #F57A24",
"W. c #F97C24",
"Q. c #EC6F35",
"!. c #AE2941",
"~. c #B42B41",
"^. c #D73643",
"/. c #B16A49",
"(. c #B57245",
"). c #C36D73",
"_. c #938038",
"`. c #B08D3A",
"'. c #C6953C",
"]. c #D08E36",
"[. c #EB8429",
"{. c #F98126",
"}. c #FA8428",
"|. c #F58C2B",
" X c #FA8C2B",
".X c #F78428",
"XX c #FB942D",
"oX c #FC982F",
"OX c #F6932E",
"+X c #E4973B",
"@X c #FC9D32",
"#X c #FB9631",
"$X c #EB8C30",
"%X c #FDA434",
"&X c #FEAB36",
"*X c #FEAE3B",
"=X c #F4A83B",
"-X c #FEB43C",
";X c #B39B41",
":X c #D28B47",
">X c #CEA544",
",X c #CAAD48",
"<X c #C8A746",
"1X c #D9AD4C",
"2X c #E4B747",
"3X c #F9B944",
"4X c #F2AB44",
"5X c #FEC146",
"6X c #FEC44A",
"7X c #FFC94C",
"8X c #E6C652",
"9X c #5A6A87",
"0X c #67748D",
"qX c #6A7995",
"wX c #6E7E99",
"eX c #677694",
"rX c #71809C",
"tX c #79859A",
"yX c #7585A1",
"uX c #7C8CA5",
"iX c #7F8FAA",
"pX c #8292AB",
"aX c #8A9AB3",
"sX c #8798B0",
"dX c None",
/* pixels */
"dXdXdXdXdXdXdXdXdXdXdXdXdXdXdXdXdXdXdXdXdXdXdXdXdXdXdXdXdXdXdXdXdXdXdXdXdXdXdXdXdXdXdXdXdXdXdXdXdXdX",
"dXdXdXdXdXdXdXdXdXdXdXdXdXdXdXdXdXdXdXdXdXdXdXdXdXdXdXdXdXdXdXdXdXdXdXdXdXdXdXdXdXdXdXdXdXdXdXdXdXdX",
"dXdXdXdXdXdXdXdXdXdXdXdXdXdXdXdXdXdXdXdXdXdXdXdXdXdXdXdXdXdXdXdXdXdXdXdXdXdXdXdXdXdXdXdXdXdXdXdXdXdX",
"dXdXdXdXdXdXdXdXdXdXdXdXdXdXdXdXdXdXdXdXdXdXdXdXdXdXdXdXdXdXdXdXdXdXdXdXdXdXdXdXdXdXdXdXdXdXdXdXdXdX",
"dXdXdXdXdXdXdXdXdXdXdXdXdXdXdXdXdXdXdXdXdXdXdXdXdXdXdXdXdXdXdXdXdXdXdXdXdXdXdXdXdXdXdXdXdXdXdXdXdXdX",
"dXdXdXdXdXdXdXdXdXdXdXdXdXdXdXdXdXdXdXdXdXdXdXdXdXdXdXdXdXdXdXdXdXdXdXdXdXdXdXdXdXdXdXdXdXdXdXdXdXdX",
"dXdXdXdXdXdXdXdXdXdXdXdXdXdXdXdXdXdXdXdXdXdXdXdXdXdXdXdXdXdXdXdXdXdXdXdXdXdXdXdXdXdXdXdXdXdXdXdXdXdX",
"dXdXdXdXdXdXdXdXdXdXdXdXdXdXdXdXdXdXdXdXdXdXdXdXdXdXdXdXdXdXdXdXdXdXdXdXdXdXdXdXdXdXdXdXdXdXdXdXdXdX",
"dXdXdXdXdXdXdXdXdXdXdXdXdXdXdXdXdXdXdXdXO dXdXdXdXdXdXO dXdXdXdXdXdXdXdXdXdXdXdXdXdXdXdXdXdXdXdXdXdX",
"dXdXdXdXdXdXdXdXdXdXdXdXdXdXdXdXdXdXdXdX+ S dXdXdXdXdX+ A dXdXdXdXdXdXdXdXdXdXdXdXdXdXdXdXdXdXdXdXdX",
"dXdXdXdXdXdXdXdXdXdXdXdXdXdXdXdXdXdXdXdX- <X%.dXdXdXdX- <X7.dXdXdXdXdXdXdXdXdXdXdXdXdXdXdXdXdXdXdXdX",
"dXdXdXdXdXdXdXdXdXdXdXdXdXdXdXdXdXdXdXdX- >XE.$.dXdXdX& ,X3XV dXdXdXdXdXdXdXdXdXdXdXdXdXdXdXdXdXdXdX",
"dXdXdXdXdXdXdXdXdXdXdXdXdXdXdXdXdXdXdXdX- ,X{.U.9 dXdXS 8X-XV dXdXdXdX. dXdXdXdXdXdXdXdXdXdXdXdXdXdX",
"dXdXdXdXdXdXdXdXdXdXdXdXdXdXdXdXdXdXdXdX5.4XW.R.;.$ + `.6X%Xf.8 dXdXdX; g dXdXdXdXdXdXdXdXdXdXdXdXdX",
"dXdXdXdXdXdXdXdXdXdXdXdXdXdXdXdXdXdXdX: ;X*XW.I.y.P _.3X*XXXE.9 dXdXC `.[.g dXdXdXdXdXdXdXdXdXdXdXdX",
"dXdXdXdXdXdXdXdXdXdXdXO O dXdXdXdXdXdXS 5X%XR.m.4.9.=X*XXXW.K.9 dX9 `.*XXXL dXdXdXdXdXdXdXdXdXdXdXdX",
"dXdXdXdXdXdXdXdXdXdXdX: A dXdXdXdXdXw J.-X XM._ 4X|.oXOX{.L.N.b m `.oX%XW.L dXdXdXdXdXdXdXdXdXdXdXdX",
"dXdXdXdXdXdXdXdXdXdXdXy ].A - : dXdX5 Q. XT.1.Y U.G.H.l.l.M.!.:X1X-X%X Xx.V dXdXdXdXdXdXdXdXdXdXdXdX",
"dXdXdXdXdXdXdXdXdXdXdXr XX2X2X8X6.@ z D.R.G.~ w.Y V $ Y _ 9 5.7X-X%X}.T.R.V dXdXdXdXdXdXdXdXdXdXdXdX",
"dXdXdXdXdXdXdXdXdXdXdXt |.5X-X-X|.$.R D.c.y.E U <.$XV 3 #.@.5.6X%X XE.R.R.L dXdXdXdXdXdXdXdXdXdXdXdX",
"dXdXdXdXdXdXdXdXdXdXdXq U.%X-X5X%XY.] S.s.q.v @.[.}.+.f O.#.6.&X XT.T.R.T.h dXdXdXdXdXdXdXdXdXdXdXdX",
"dXdXdXdXdXdXdXdXdXdXdX0 k.XX&X-X*X}.v.] Z.0.% L U.M.n.:.q +.O.W.R.T.R.P._ # dXdXdX; o dXdXdXdXdXdXdX",
"dXdXdXdXdXdXdXdXdXdXdX0 k.E.XX%X*X%XG.^ [ b % <.B.m.f.3 # +.L T.P.Q.n.^.R = dXy d >.w dXdXdXdXdXdXdX",
"dXdXdXdXdXdXdXdXdXdXdX* ;.R.T.{. XXX Xe.a V 8.&X#XW.+.  f k -.k.N.!.{ 3.3.=.$.+XOXY.w dXdXdXdXdXdXdX",
"dXdXdXdXdXdXdXdXdXdXdXdXd x.R.T.T.W.U.$.,.%X%XOXY.;.# # +.i s.N.| n.U.}.}.W.{.%X X@.dXdXdXdXdXdXdXdX",
"dXdXdXdXdXdXdXdXdXdXdXdXdXP l.T.x.x.&.j U.W.{.G.$ X   h 8 p N.} M.}.*X7X3X%X}.E.R.d dXdXdXdXdXdXdXdX",
"dXdXdXdXdXdXdX- C dXdXdXdXdXL V.A.C.U g W.j.@.a F . $ ;.q q.) b.E.3X7X-X-X%XW.W.f.r dXdXdXdXdXdXdXdX",
"dXdXdXdXdXdXdXu '.`._.; o o z ] X.^.W L Y.f   c ).r :.u.7 } !.V..X-X&X%X X}.T.P.Q dXdXdXdXdXdXdXdXdX",
"dXdXdXdXdXdXdXw H.-X=X,X,X,X1X:X3.b t h.$.Q $ 3 a f.a.s E / !.C.T.{.{.W.x.L.K.{ % dXdXdXdXdXdXdXdXdX",
"dXdXdXdXdXdXdXdXg oX-X-X-X-X X XE.G.j e.a.d.j.j.j.c.U 7 E R ~.A.x.x.x.x.y.X.{ ! a > dXO dXdXdXdXdXdX",
"dXdXdXdXdXdXdXdXf .XXX&X@X XW. XW.R.M.s p p I ) b.S.D.=.6 l [ S.s.s.C.` _ 1.+X*X X;.j o dXdXdXdXdXdX",
"dXdXdXdXdXdXdXdX# ;.R.}.W.R.R.R.R.R.L...T z 5 / ^.S.P.p.3 l ' X.S.o.} 1.G.-X5X3XXXR.r.& dXdXdXdXdXdX",
"dXdXdXdXdXdXdXdXdXp Y t.x.c.q.b.b.b.q.Z.[ 2 e.K.P.P.R.T.-.5 ' / [ ^ v.T.#X%X%X#XW.f.d dXdXdXdXdXdXdX",
"dXdXdXdXdXdXdXdXdXdXX 6 U U /././.4.) ` E 2 a.R.W.R.T.R.r.$ b b  .s.P.W.@XW.x.x.r.y dXdXdXdXdXdXdXdX",
"dXdXdXdXdXdXdXdXdXdXdXm (.J.3X5X4X}.K.` b 3 w.L.T.R.R.R.U.d 4 ' s.x.R.R.R.c.w.0.0 dXdXdXdXdXdXdXdXdX",
"dXdXdXdXdXdXdXdXdX: C >X-X&X@X{.E.T.I.S.E 3 -. .n.T.T.z.L.;.% T 0.q.y.M.i.2.! b & dXdXdXdXdXdXdXdXdX",
"dXdXdXdXdXdXdXdXw 7.+XU.T.W.E.R.T.T.F.^.^ 2 u.b.W n.T.{ N.U.d 4 v R ] _ ! 1.[.$X+.dXdXdXdXdXdXdXdXdX",
"dXdXdXdXdXdXdXdXdXf.&.Y i.z.z.x.x.d.N.[ ^ 2 u.~ b W U.{ ^.d.p c ' ^.C.c.T..X%X5X].r dXdXdXdXdXdXdXdX",
"dXdXdXdXdXdXdXdXdXdXdXdXw 2 i 0.q.`  .c * % u.L x N T.! X.A.i = z / X.S.T.W.Y.G.G.*.k & dXdXdXdXdXdX",
"dXdXdXdXdXdXdXdXdXdXdXdX9XJ 1 m n < < J rXM *.a D M :.B ^ Q , H J < < W -.&.a n * # $ dXdXdXdXdXdXdX",
"dXdXdXdXdXdXdXdXdXdX0X9XwXyXrXrXuXpXpXsXaXtXG K wX9X1 H D G eXpXaXpXtXJ F F 0XwX9XdXdXdXdXdXdXdXdXdX",
"dXdXdXdXdXdXdXdXdXdXdXdXdXdX9X9XeXrXrXrXrXrXrXrXyXpXyXyXrXuXaXaXaXpXrXrXrXrXrXeXdXdXdXdXdXdXdXdXdXdX",
"dXdXdXdXdXdXdXdXdXdXdXdXdXdXdXdXdXdXdXdXdXdXdXdXdXqXqXqXeXqXqXqXqXqXdXdXdXdXdXdXdXdXdXdXdXdXdXdXdXdX",
"dXdXdXdXdXdXdXdXdXdXdXdXdXdXdXdXdXdXdXdXdXdXdXdXdXdXdXdXdXdXdXdXdXdXdXdXdXdXdXdXdXdXdXdXdXdXdXdXdXdX",
"dXdXdXdXdXdXdXdXdXdXdXdXdXdXdXdXdXdXdXdXdXdXdXdXdXdXdXdXdXdXdXdXdXdXdXdXdXdXdXdXdXdXdXdXdXdXdXdXdXdX",
"dXdXdXdXdXdXdXdXdXdXdXdXdXdXdXdXdXdXdXdXdXdXdXdXdXdXdXdXdXdXdXdXdXdXdXdXdXdXdXdXdXdXdXdXdXdXdXdXdXdX",
"dXdXdXdXdXdXdXdXdXdXdXdXdXdXdXdXdXdXdXdXdXdXdXdXdXdXdXdXdXdXdXdXdXdXdXdXdXdXdXdXdXdXdXdXdXdXdXdXdXdX",
"dXdXdXdXdXdXdXdXdXdXdXdXdXdXdXdXdXdXdXdXdXdXdXdXdXdXdXdXdXdXdXdXdXdXdXdXdXdXdXdXdXdXdXdXdXdXdXdXdXdX",
"dXdXdXdXdXdXdXdXdXdXdXdXdXdXdXdXdXdXdXdXdXdXdXdXdXdXdXdXdXdXdXdXdXdXdXdXdXdXdXdXdXdXdXdXdXdXdXdXdXdX",
"dXdXdXdXdXdXdXdXdXdXdXdXdXdXdXdXdXdXdXdXdXdXdXdXdXdXdXdXdXdXdXdXdXdXdXdXdXdXdXdXdXdXdXdXdXdXdXdXdXdX"
};
