/* XPM */
static char *fe8bc2e610dd4b16bd0ec2cbf69f90baUMmwIyYNydtle71z[] = {
/* columns rows colors chars-per-pixel */
"50 50 205 2 ",
"   c None",
".  c #0A0805",
"X  c #100D0A",
"o  c #1A0A09",
"O  c #0D1212",
"+  c #191715",
"@  c #27140D",
"#  c #3B180F",
"$  c #240E11",
"%  c #261A16",
"&  c #371914",
"*  c #250308",
"=  c #352619",
"-  c #0E1226",
";  c #201328",
":  c #3D1D21",
">  c #1B2022",
",  c #1E2535",
"<  c #232323",
"1  c #2B2623",
"2  c #392D2A",
"3  c #20263B",
"4  c #3B3B3B",
"5  c #383435",
"6  c #343233",
"7  c #48180F",
"8  c #54180A",
"9  c #481F14",
"0  c #541C12",
"q  c #5A1F13",
"w  c #420607",
"e  c #6D0E0E",
"r  c #7B0A08",
"t  c #61130D",
"y  c #661F11",
"u  c #751C12",
"i  c #4D220F",
"p  c #432119",
"a  c #49271B",
"s  c #5C2518",
"d  c #652818",
"f  c #782716",
"g  c #793717",
"h  c #581F20",
"j  c #4A2B26",
"k  c #5B2D21",
"l  c #483624",
"z  c #583021",
"x  c #573625",
"c  c #473B37",
"v  c #523C33",
"b  c #6A2E2C",
"n  c #7A3321",
"m  c #783625",
"M  c #6A3031",
"N  c #722627",
"B  c #7D4115",
"V  c #796018",
"C  c #4A4B30",
"Z  c #764E20",
"A  c #795425",
"S  c #6C4830",
"D  c #132C5E",
"F  c #0E2349",
"G  c #232E59",
"H  c #102B60",
"J  c #072969",
"K  c #473954",
"L  c #3B5052",
"P  c #4B4B4C",
"I  c #454647",
"U  c #4F5153",
"Y  c #525354",
"T  c gray35",
"R  c #584D4A",
"E  c #63564B",
"W  c #605E55",
"Q  c #765D45",
"!  c #76664D",
"~  c #4B5C7C",
"^  c #860606",
"/  c #950F0B",
"(  c #BB0706",
")  c #B70607",
"_  c #AB1208",
"`  c #842E1A",
"'  c #902D19",
"]  c #9A371F",
"[  c #843618",
"{  c #AA3B1F",
"}  c #883A23",
"|  c #923621",
" . c #953B24",
".. c #9A3B24",
"X. c #883A3A",
"o. c #A53D22",
"O. c #AA3D23",
"+. c #B23D23",
"@. c #CA0606",
"#. c #DF0807",
"$. c #E60606",
"%. c #CA2C0E",
"&. c #D62B17",
"*. c #D52F22",
"=. c #97401F",
"-. c #9E521A",
";. c #83471A",
":. c #AB4013",
">. c #8E791B",
",. c #AF611C",
"<. c #B3741A",
"1. c #9D4027",
"2. c #845836",
"3. c #A64827",
"4. c #BC4426",
"5. c #BB4528",
"6. c #BD492B",
"7. c #B34E35",
"8. c #AE4C34",
"9. c #8C693F",
"0. c #A66D3F",
"q. c #BD7130",
"w. c #AC7329",
"e. c #D7400F",
"r. c #C85014",
"t. c #F25415",
"y. c #C96C1A",
"u. c #EE6C1C",
"i. c #CB4A28",
"p. c #DB4D2B",
"a. c #D14F2E",
"s. c #DB522E",
"d. c #C14E32",
"f. c #CF5435",
"g. c #DE5B39",
"h. c #E75229",
"j. c #F6552C",
"k. c #FE572C",
"l. c #FC582E",
"z. c #E35633",
"x. c #EC5934",
"c. c #E55935",
"v. c #F65E37",
"b. c #FA5C33",
"n. c #F65E39",
"m. c #F85F38",
"M. c #D77426",
"N. c #FB682C",
"B. c #FD7727",
"V. c #FD7229",
"C. c #FC7C28",
"Z. c #E26730",
"A. c #F6613B",
"S. c #F8613A",
"D. c #F96532",
"F. c #A4764B",
"G. c #854B67",
"H. c #A55A72",
"J. c #C17749",
"K. c #F36542",
"L. c #F26946",
"P. c #F66B48",
"I. c #EC6D4B",
"U. c #ADAD1E",
"Y. c #B78F3C",
"T. c #B0AC20",
"R. c #AEB027",
"E. c #B1B731",
"W. c #AAAC26",
"Q. c #DE821E",
"!. c #EF8A1A",
"~. c #CBB41F",
"^. c #C68834",
"/. c #E99420",
"(. c #FB9325",
"). c #FD9C22",
"_. c #FA922C",
"`. c #F78434",
"'. c #F8AA23",
"]. c #EBB820",
"[. c #F5BB22",
"{. c #D6D61F",
"}. c #D9D128",
"|. c #F5CD22",
" X c #F3D323",
".X c #F5DC25",
"XX c #EFE423",
"oX c #ECED23",
"OX c #EDEB23",
"+X c #F0F123",
"@X c #F2EB22",
"#X c #BB8C4E",
"$X c #B0BB40",
"%X c #A5BA5C",
"&X c #C09240",
"*X c #0D3483",
"=X c #184496",
"-X c #274784",
";X c #304C99",
":X c #2C5690",
">X c #2D5DBB",
",X c #455E9F",
"<X c #1150CC",
"1X c #1A64EE",
"2X c #FF9F86",
/* pixels */
"                                                                                                    ",
"                                                                                                    ",
"                                                                                                    ",
"                                                      K.b.l.A.A.                                    ",
"                                  v.              A.b.    l.b.b.n.                                  ",
"                                  A.K.          A.S.k.b.S.b.                                        ",
"                                  b.b.        b.k.k.k.l.S.                                          ",
"                                b.l.b.        k.k.l.k.b.                                            ",
"                                l.b.A.      b.b.b.m.l.                                              ",
"              A.              n.b.l.b.      A.I.b.k.b.                                              ",
"              A.              b.  A.A.    b.b.L.b.k.A.                                              ",
"            n.b.            b.l.A.b.      l.k.l.k.l.                                                ",
"            b.b.            n.l.k.b.    b.k.k.b.b.b.                                                ",
"            l.b.          b.b.l.k.b.    b.k.k.b.b.b.                                                ",
"          A.b.b.          l.k.k.k.b.    l.b.k.k.l.                                                  ",
"        n.k.l.          b.k.l.b.l.      b.m.k.k.l.                                                  ",
"        b.k.l.          b.k.l.b.b.    b.k.k.k.k.b.                                                  ",
"        l.A.b.          b.b.k.k.      l.k.l.b.l.                A.                    A.            ",
"      b.k.b.            m.L.b.k.      b.b.b.  b.                b.b.                  b.            ",
"      l.k.k.          v.b.b.b.k.      v.b.b.v.b.                b.l.                  b.            ",
"    b.n.A.b.          l.k.k.k.k.      l.k.k.k.b.                v.b.A.              K.K.            ",
"    v.K.L.A.          l.k.k.b.b.b.    b.b.k.k.b.                  b.b.              l.v.            ",
"    l.b.b.b.          l.k.k.    l.    v.b.k.k.b.                  n.A.A.            k.b.            ",
"    l.k.k.b.          b.b.k.b.b.l.    b.k.k.m.A.                      A.            l.b.            ",
"    l.b.k.k.            S.l.k.k.l.    b.l.b.l.b.        c.o. .4.S.S.l.l.          A.b.              ",
"    b.b.k.k.            l.k.k.k.k.    A.S.  b.k.        z.] f 7 ` h.l.b.    n.  A.b.b.              ",
"    k.k.k.b.K.          b.k.k.k.k.b.    b.  b.k.            b.i.q ` l.b.D.A.l.b.  b.b.              ",
"    l.k.k.k.b.          b.k.k.k.k.b.    b.l.k.k.v.      x.O.o.+.+.s h.V.B.V.B.V.`.n.n.              ",
"    b.l.m.l.k.b.          l.k.k.k.k.    b.k.l.b.b.      ] 7 ` 0 0 s ,.C.'.(.'.'.(.N.D.A.A.          ",
"    b.b.  b.k.l.b.        b.k.b.b.k.b.    b.k.b.k.n.    6.+.' i @ d M.). X|. XXX X).C.C.b.          ",
"      b.l.k.l.S.k.b.        b.k.k.l.b.b.    b.k.b.b.S.s.o.g :.Q.w.% <.|..XOXOXoXXX|.[._.n.          ",
"      n.k.k.k.k.k.k.b.        b.l.K.K.l.b.  b.k.b.l.h.m Z /.).).9.C ~.@XoXoXoXoXoXoXXX(.N.          ",
"        n.k.S.l.k.b.A.b.b.A.    b.A.K.k.l.  b.b.b.j.[ 1 ^.).).^.E C W.}.{.oX+X+X+X+X.X(.D.          ",
"          b.b.k.l.L.L.l.k.b.b.b.l.k.l.k.k.b.  b.j.3.>.2 q.u.u.! Y 4 6 :XL %XE.U.$XR.Y.M.            ",
"              b.l.b.b.k.l.m.k.b.b.k.k.k.k.k.l.l.p.V ~.l +.t.7.W Y < - *X<X1X=X> -X, ;X8.            ",
"                  b.l.l.k.k.k.l.b.b.A.b.l.b.m.b.=.T.].f b &.X.Y Y < O   G H D       K Z.            ",
"                        b.b.b.b.b.b.A.A.  A.b.h.;.}.!._ $ N M 4 Y P 1 2.0.1.n # % # # s.            ",
"                                          S.b.O.A Y.i.( u k % P T P < + J.*.       .} z.            ",
"                                          z.| 9 A #X  h { p.p P Y 5 $ o 2.*.      l 7.2X            ",
"                                        6.g -.B <..X&Xj +.7.R I < e ( ^ 0 }   #XQ + ..P.            ",
"                                    n.  g y.%.r !.[.%.f i.2 Y < o r @.$.) 7 j   + I j s.            ",
"                                    b.b.g r.#.) e.e./ ..  1 Y 4 O w @.$.) f 6.3.a P c ..v.          ",
"                                    b.h.0 8 ) ) r t |     n 5 I < t ( ^ * b K.  5.2 U v o.6.g.      ",
"                                  A.n.G.3 , ; y 4.g.      4.@     S o - J K p.  s.s     x a  .x.    ",
"                                  j.H.,X~ >XG i.          5.k         F -Xc f z.s.m   F.    & o.    ",
"                                  +.6 E E D : a.          O.p x z z 9 # @ % & f.d.@ O = + s p d     ",
"                                  ... X X . |             c.n n .. ...s.                            ",
"                                                                                                    ",
"                                                                                                    ",
"                                                                                                    "
};
