/* XPM */
static char *_4f787a556e54cc9ac550b61dcf33596EcasufInAkVK35wv[] = {
/* columns rows colors chars-per-pixel */
"20 20 191 2 ",
"   c None",
".  c #46170E",
"X  c #47180E",
"o  c #48180E",
"O  c #4B1A0F",
"+  c #4C1B0F",
"@  c #562212",
"#  c #5B2513",
"$  c #5C2513",
"%  c #5D2613",
"&  c #5E2713",
"*  c #652114",
"=  c #642214",
"-  c #652214",
";  c #662214",
":  c #672314",
">  c #662414",
",  c #672414",
"<  c #682314",
"1  c #682415",
"2  c #692415",
"3  c #692515",
"4  c #6A2415",
"5  c #6A2515",
"6  c #6B2515",
"7  c #6A2615",
"8  c #6B2615",
"9  c #6B2715",
"0  c #6C2415",
"q  c #6C2515",
"w  c #6C2615",
"e  c #6D2715",
"r  c #6E2615",
"t  c #6D2516",
"y  c #6D2716",
"u  c #612914",
"i  c #622815",
"p  c #652B15",
"a  c #6E2816",
"s  c #6F2916",
"d  c #712716",
"f  c #702916",
"g  c #732916",
"h  c #732917",
"j  c #712A16",
"k  c #702B16",
"l  c #722B17",
"z  c #732B17",
"x  c #732C17",
"c  c #742C17",
"v  c #752D17",
"b  c #762D17",
"n  c #762E17",
"m  c #762718",
"M  c #772E18",
"N  c #772F18",
"B  c #792818",
"V  c #792918",
"C  c #7B2A19",
"Z  c #7A2B19",
"A  c #782F18",
"S  c #7F2D1A",
"D  c #703218",
"F  c #783018",
"G  c #7A3018",
"H  c #7A3118",
"J  c #7B3118",
"K  c #7B3219",
"L  c #7D3119",
"P  c #7F3019",
"I  c #7E3119",
"U  c #7C3219",
"Y  c #7D3319",
"T  c #7E3319",
"R  c #7F3419",
"E  c #7E3519",
"W  c #7F3619",
"Q  c #713E1A",
"!  c #644A1E",
"~  c #75451F",
"^  c #78421A",
"/  c #79431C",
"(  c #675023",
")  c #6C5023",
"_  c #6E5D27",
"`  c #81301A",
"'  c #84301B",
"]  c #85331B",
"[  c #80351A",
"{  c #81351A",
"}  c #81361A",
"|  c #82371A",
" . c #83371A",
".. c #85341B",
"X. c #87371A",
"o. c #89351C",
"O. c #83381A",
"+. c #84381A",
"@. c #84381B",
"#. c #85381B",
"$. c #86391B",
"%. c #873A1B",
"&. c #873B1B",
"*. c #883A1B",
"=. c #883B1B",
"-. c #8E3B1D",
";. c #893C1C",
":. c #8A3C1C",
">. c #8B3D1C",
",. c #8B3E1C",
"<. c #8D3C1C",
"1. c #8C3D1C",
"2. c #8D3D1C",
"3. c #8E3D1D",
"4. c #8D3E1C",
"5. c #8D3F1C",
"6. c #8D3F1D",
"7. c #8E3F1D",
"8. c #8F3F1D",
"9. c #903D1E",
"0. c #923C1E",
"q. c #913E1E",
"w. c #943D1E",
"e. c #963E1F",
"r. c #80471D",
"t. c #8E401D",
"y. c #8F401D",
"u. c #90401D",
"i. c #90411D",
"p. c #91411D",
"a. c #92411D",
"s. c #92421D",
"d. c #92401E",
"f. c #93401E",
"g. c #92421E",
"h. c #94411E",
"j. c #94431E",
"k. c #94441E",
"l. c #95441E",
"z. c #96441E",
"x. c #96451E",
"c. c #974420",
"v. c #984320",
"b. c #9A4220",
"n. c #9A4520",
"m. c #9B4620",
"M. c #9D4721",
"N. c #A04721",
"B. c #A14821",
"V. c #A44A22",
"C. c #856326",
"Z. c #826B28",
"A. c #84702C",
"S. c #807C2F",
"D. c #807F32",
"F. c #7D8837",
"G. c #7B8F39",
"H. c #57A02E",
"J. c #5CA837",
"K. c #62B029",
"L. c #64B22C",
"P. c #66BE2D",
"I. c #6CBF34",
"U. c #63B839",
"Y. c #69BE3F",
"T. c #73BF3A",
"R. c #74BC3C",
"E. c #68C631",
"W. c #68CC37",
"Q. c #68CD37",
"!. c #72C93F",
"~. c #76CA3F",
"^. c #71CE3C",
"/. c #69BB40",
"(. c #6BBB44",
"). c #6CB946",
"_. c #6EBA48",
"`. c #6EBB48",
"'. c #6EBB49",
"]. c #6EBC49",
"[. c #6FBC49",
"{. c #6FBC4A",
"}. c #70BF46",
"|. c #70BC4A",
" X c #70BD4B",
".X c #6CC044",
"XX c #7EC245",
"oX c #75C843",
"OX c #73CC40",
"+X c #72C04D",
"@X c #72D142",
/* pixels */
"                                        ",
"    {.'.{./..X X'.{.(.Y.+X X'.'.).U.J.  ",
"  }.T.!.K.E.~.R.OXL.P.^.XXoX@XI.W.W.H.  ",
"    ~ ) ^ S.A./ ( Q Z.D.r.! _ C.G.F.    ",
"    B L d.5.n 4 g 5.d.J q q X.k.R `     ",
"    q.d.k.n * R >.k.R * N =.h.=.4 S     ",
"    m.h.J * n d.d.} 4 a >.d.$.a 4 q.    ",
"    m.L * n 5.5.} * a 5.5.$.4 4 $.v.    ",
"    X.q g y.k.>.4 4 >.k.y.g * } k.V.    ",
"    m d >.5.$.g * } d.$.J * A h.$.e.    ",
"    ] 5.k.$.4 a } h.5.q 4 L d.d.n B     ",
"    v.d.5.q 4 5.>.d.n * $.5.d.L * o.    ",
"    M.5.4 4 } 5.5.g * L >.d.n * n e.    ",
"    q.g < $.k.5.g * L k.d.J * n h.N.    ",
"    B q L y.d.R * x d.y.=.4 q 5.5.B.    ",
"    B L d.5.N 4 g 5.d.J q q $.k.} ]     ",
"    q.d.k.N * L >.k.} * N =.h.>.4 S     ",
"    c.5.J * g 5.>.R > 4 $.y.O.4 > -.    ",
"    D $ . O $ $ u O X # # p + . @ u     ",
"                                        "
};
