/* XPM */
static char *_d2582da8e3547fef15c63b4c702b3a2txWuxFDCfWLf2aIa[] = {
/* columns rows colors chars-per-pixel */
"20 20 144 2 ",
"   c black",
".  c #B59315",
"X  c #D39F03",
"o  c #CE9B04",
"O  c #EEC819",
"+  c #EEC919",
"@  c #CE9A04",
"#  c #DDB210",
"$  c #D3A209",
"%  c #D3A009",
"&  c #DDAA10",
"*  c #D2A40B",
"=  c #D2A10B",
"-  c #CE9C04",
";  c #EEB719",
":  c #B69315",
">  c #DDA910",
",  c #EEB819",
"<  c #B26400",
"1  c #D29E04",
"2  c #D9A606",
"3  c #DAA606",
"4  c #D2A004",
"5  c #B27100",
"6  c #C99100",
"7  c #D5A70C",
"8  c #DEB918",
"9  c #E5CB25",
"0  c #EFE036",
"q  c None",
"w  c #E5C325",
"e  c #DEB218",
"r  c #D5A80C",
"t  c #C99400",
"y  c #C79100",
"u  c #DFBF1E",
"i  c #EBDA31",
"p  c #EBCF31",
"a  c #DFB01E",
"s  c #C79500",
"d  c #F2EA3D",
"f  c #F2C83D",
"g  c #C99600",
"h  c #EBBF31",
"j  c #D5A30C",
"k  c #DEAD18",
"l  c #B27C00",
"z  c #E5B725",
"x  c #EFC336",
"c  c #D9A306",
"v  c #DAA306",
"b  c #D3A104",
"n  c #D39E04",
"m  c #D5A80C",
"M  c #F5F243",
"N  c #F5F143",
"B  c #F4EC3E",
"V  c #F4E63E",
"C  c #F5D943",
"Z  c #F5E943",
"A  c #F9FA49",
"S  c #F1E438",
"D  c #EBD32A",
"F  c #EAD128",
"G  c #EAD229",
"H  c #EAD028",
"J  c #EBCF2A",
"K  c #F1D938",
"L  c #F9D749",
"P  c #F5F142",
"I  c #EDDA30",
"U  c #F8F949",
"Y  c #F7F545",
"T  c #F4ED3E",
"R  c #F8F549",
"E  c #F4D63E",
"W  c #EDC930",
"Q  c #EDC230",
"!  c #F5CC42",
"~  c #EAD329",
"^  c #F7F747",
"/  c #F4ED3F",
"(  c #E7CA23",
")  c #E4C11B",
"_  c #F4DA3F",
"`  c #F9E749",
"'  c #F7F047",
"]  c #EAC129",
"[  c #EDBF30",
"{  c #F9D149",
"}  c #F6F143",
"|  c #E9CF27",
" . c #E0B511",
".. c #DBA707",
"X. c #DBA708",
"o. c #E0B311",
"O. c #E9CC27",
"+. c #F6D842",
"@. c #F7CF47",
"#. c #EDC030",
"$. c #F1C538",
"%. c #F5CC43",
"&. c #DDAE0B",
"*. c #EED932",
"=. c #F3D33D",
"-. c #F3DE3D",
";. c #DDA80C",
":. c #EABA28",
">. c #F9D14A",
",. c #F4CA3E",
"<. c #EBBC2A",
"1. c #F8E149",
"2. c #F8E749",
"3. c #F8F349",
"4. c #F8DD48",
"5. c #F2C73B",
"6. c #F3C93D",
"7. c #F8D048",
"8. c #EABB28",
"9. c #F4C93E",
"0. c #F2E83A",
"q. c #DDAC0B",
"w. c #F8F348",
"e. c #F8D049",
"r. c #F2E73A",
"t. c #DDAB0B",
"y. c #F8D149",
"u. c #F8DE49",
"i. c #DDA80B",
"p. c #EEC132",
"a. c #F6D843",
"s. c #E9B927",
"d. c #E0AC11",
"f. c #DBA508",
"g. c #DBA507",
"h. c #E9BA27",
"j. c #F6CC42",
"k. c #F4CA3F",
"l. c #E4B21B",
"z. c #E7B723",
"x. c #EABC29",
"c. c #F7CE45",
"v. c #EABB29",
"b. c white",
/* pixels */
"    . X o O < 1 2 3 3 2 4 5 + @ X .     ",
"    # $ 6 7 8 9 0 q q 0 w e r t % &     ",
". # * y u i M N B B B V C Z p a s = & . ",
"X $ y u d A S D F F G H J K L f a s % X ",
"o 6 u d P I I B U Y T R E W Q ! f a g - ",
"O 7 i A I ~ ^ A / ( ) _ ` ' ] [ { h j ; ",
"< 8 M S I ^ } |  ...X.o.O.+.@.#.$.%.k l ",
"1 9 N D B A | &.*.=.-.*.;.:.>.,.<.%.z 1 ",
"2 0 B F U /  .*.1.2.3.4.5.6.7.7.8.9.x c ",
"3 q B F U 0.q.=.2.w.4.7.e.e.7.7.8.9.x v ",
"3 q B F U r.t.-.3.4.7.7.y.e.7.7.8.9.x v ",
"2 0 V H R _ o.*.u.e.e.7.5.6.7.7.8.9.x c ",
"b w C J E ` O.i.p.6.6.p.;.8.>.,.<.%.z n ",
"5 e Z K W ' a.s.d.f.g.d.h.j.@.#.$.%.k l ",
"+ m p L Q ] @.{ k.l.z.k.{ @.x.#.{ h j ; ",
"@ t a f ! [ #.,.y.,.c.y.,.#.#.! f a g - ",
"X % s a f { $.<.8.v.8.8.<.$.{ f a s % X ",
": & = s a h %.%.9.9.9.9.%.%.h a s = & : ",
"    & % g j k z x x x x z k j g % >     ",
"    . X - , l 1 c v v c 1 l ; - X .     "
};
