/* XPM */
static char *__removebg_preview1708699592[] = {
/* columns rows colors chars-per-pixel */
"50 50 180 2 ",
"   c None",
".  c #161515",
"X  c #191718",
"o  c #1D1B1C",
"O  c #211A1D",
"+  c #2C191C",
"@  c #29171A",
"#  c #3C191E",
"$  c #231D23",
"%  c #241E29",
"&  c #3F1C22",
"*  c #252223",
"=  c #2A2526",
"-  c #25212D",
";  c #292529",
":  c #2C2B2B",
">  c #392C2A",
",  c #39212E",
"<  c #3E322F",
"1  c #272333",
"2  c #2A2536",
"3  c #2E2935",
"4  c #29263A",
"5  c #2B293D",
"6  c #26263F",
"7  c #312331",
"8  c #322B3A",
"9  c #382935",
"0  c #353032",
"q  c #3C3633",
"w  c #3B3439",
"e  c #3D393B",
"r  c #55181F",
"t  c #411C22",
"y  c #4A1C22",
"u  c #581F26",
"i  c #661F27",
"p  c #681E26",
"a  c #701F27",
"s  c #751F28",
"d  c #45242E",
"f  c #432125",
"g  c #5D232D",
"h  c #52212B",
"j  c #482E31",
"k  c #482B34",
"l  c #532E3A",
"z  c #483738",
"x  c #4C3C38",
"c  c #583635",
"v  c #65222B",
"b  c #6F222B",
"n  c #67282C",
"m  c #702027",
"M  c #7B212A",
"N  c #72262C",
"B  c #6A2B32",
"V  c #662636",
"C  c #752B38",
"Z  c #633030",
"A  c #79403D",
"S  c #2B2B44",
"D  c #2E2E49",
"F  c #242748",
"G  c #312E40",
"H  c #2F3046",
"J  c #2F324B",
"K  c #323145",
"L  c #3D3847",
"P  c #32344C",
"I  c #353A4C",
"U  c #333552",
"Y  c #353955",
"T  c #363C59",
"R  c #393E5C",
"E  c #3B3C54",
"W  c #2B366D",
"Q  c #26316D",
"!  c #37405A",
"~  c #3B415E",
"^  c #3D4462",
"/  c #3F4C66",
"(  c #3B4478",
")  c #544B4D",
"_  c #574641",
"`  c #484051",
"'  c #4D4A5B",
"]  c #544E52",
"[  c #69484E",
"{  c #675146",
"}  c #73594C",
"|  c #785749",
" . c #7A4C52",
".. c #6B545A",
"X. c #695657",
"o. c #785E50",
"O. c #776157",
"+. c #7C6456",
"@. c #454A66",
"#. c #474C69",
"$. c #574F63",
"%. c #46536E",
"&. c #59556B",
"*. c #5E596C",
"=. c #434D7F",
"-. c #4E5570",
";. c #565772",
":. c #696567",
">. c #6C6578",
",. c #6A687A",
"<. c #726D71",
"1. c #776874",
"2. c #757174",
"3. c #89212B",
"4. c #97242F",
"5. c #862B38",
"6. c #9D343F",
"7. c #A32430",
"8. c #AB2431",
"9. c #BD2634",
"0. c #BC313D",
"q. c #833841",
"w. c #B63845",
"e. c #A84F58",
"r. c #AD4955",
"t. c #B74753",
"y. c #B8535D",
"u. c #866857",
"i. c #866B5E",
"p. c #886856",
"a. c #986A59",
"s. c #96745E",
"d. c #945E66",
"f. c #BF5C69",
"g. c #8A6F62",
"h. c #8F7568",
"j. c #947A6B",
"k. c #927461",
"l. c #816E7E",
"z. c #AB6069",
"x. c #B26C79",
"c. c #C24653",
"v. c #C26C79",
"b. c #A7836D",
"n. c #AF8D77",
"m. c #B28D75",
"M. c #CB9E7E",
"N. c #3E55B2",
"B. c #4C588E",
"V. c #4A5699",
"C. c #5D6582",
"Z. c #696D88",
"A. c #7A6C82",
"S. c #767487",
"D. c #6072BA",
"F. c #7177B3",
"G. c #817D81",
"H. c #9B7A86",
"J. c #A87E8C",
"K. c #A37E91",
"L. c #CF7D88",
"P. c #C27D87",
"I. c #7E88B6",
"U. c #88878E",
"Y. c #86838B",
"T. c #99818F",
"R. c #8F8D90",
"E. c #848698",
"W. c #AD868F",
"Q. c #BA9884",
"!. c #A28993",
"~. c #B88A97",
"^. c #8588BC",
"/. c #D08993",
"(. c #CBA387",
"). c #D1A282",
"_. c #DEB394",
"`. c #E7B896",
"'. c #E3B390",
"]. c #C4A9B4",
/* pixels */
"                                                                                                    ",
"                                                                      . * X                         ",
"                                                                  X o : e 0 * X                     ",
"                                                                X : : * : * = : o                   ",
"                                                                o o * * * * * : o                   ",
"                                                                o * e e 0 : * q *                   ",
"                                                                o 0 b.R.2.e * q *                   ",
"                                                                o o ' X.) e q < X                   ",
"                                                                : > m.M.n.b.< o.O                   ",
"                                                                O x M.`.'.n.j _ * % %               ",
"                                                              y # n a.)._.o.h j = 4 S % O           ",
"                                                            t 4.M 8.5.+.k.s.N f * 4 S - O           ",
"                                                              b 7.7.g } i.i.b t 1 D S $ O           ",
"                                                              i 9.9.B +.h.b.C u 8 J 5 O             ",
"                                                              y 8.9.Z ,.,.,.B k U S 6 O             ",
"                                                              O M 9.g / C./ V t S % $ O             ",
"                                                              o t 8.v T / ` i 7 - O O O             ",
"                                                              1 % M g T %.l g K I K 5 $             ",
"                                                            % 5 % p V ^ ~ v 9 S R ^ R 5 O           ",
"                                                            1 S % t u G x n G Y Y R R E 4           ",
"                                                            1 S $ @ y | b.} 9 S 1 T R R S           ",
"                                                            1 S % $ & | b.n.o.S 1 U R R 5           ",
"                                                            1 S 1 % 3 z (.(.g.S 1 D T R G           ",
"                                                            $ S S G l.H.g.} _ P 1 S Y R Y %         ",
"                                                          $ % 5 S &.v.w.B c L Y S 2 Y R Y -         ",
"                                                        $ 4 1 5 P H.c.r.6.t.K.@.5 4 S R Y -         ",
"                                                        1 S 1 1 S >.f.q.z.x.A.@.4 4 D T Y %         ",
"                                                      O 4 S % % S D >...e.K.@.T P 4 D Y Y 1         ",
"                                                        1 S % % S S S 4 2.;.R ~ E 1 T T U D         ",
"                                                        $ % $ % 6 S S 1 P ^ R R T 1 U ~ P D         ",
"                                                          O   O 4 S S 1 S ^ R R T 1 J R T G         ",
"                                                              O 5 S S 1 S J R ~ Y - D R R P         ",
"                                                              $ 5 S S 1 P ^ U R D % S T R U         ",
"                                                              - S S S 1 G R U R S 5 S S T U         ",
"                                                            $ 2 S F S 4 D R Y R I , C 5.V 7         ",
"                                                            X.T.&.S S 1 S R R R S.[ p 3.3.&         ",
"                                                            C c.x.&.G 1 S T R %.J.y.[ @             ",
"                                                            j W./.].Z.5 1 U R ;.].L.t.u             ",
"                                                              ..P.!.E S 5 2 Y ^ E.P.0. .            ",
"                                                                d.,.F S S 1 Y R R G.~.>.;           ",
"                                                                ' P S S 5 % J R R ^ -.D 2 1         ",
"                                                              1 S S S S 7 + 2 J R R U S S %         ",
"                                                            % 5 S F S 5 b p M 9 U U S 4 -           ",
"                                                              3 S S S 7 p   a , S S 1 %             ",
"                                                                % 3 3 %       % 3 ;                 ",
"                                                                  :.<.=         :.]                 ",
"                                                                  <.Y.G         <.<.                ",
"                                                              q @.U.^.W       B.B.Z.w               ",
"                                                            p.!.D.I.N.Q     ;.^.F.V.5               ",
"                                                            { 1.( ( W F     _ i.i.$.                "
};
