/* XPM */
static char *__removebg_preview1708699592[] = {
/* columns rows colors chars-per-pixel */
"50 50 169 2 ",
"   c None",
".  c #100E0F",
"X  c #141414",
"o  c #181717",
"O  c #1D1A1B",
"+  c #21191C",
"@  c #2D1A1E",
"#  c #37171C",
"$  c #231C25",
"%  c #241E29",
"&  c #2E1E29",
"*  c #301E28",
"=  c #381B24",
"-  c #252324",
";  c #2A2426",
":  c #26212E",
">  c #2B2728",
",  c #2B2A2A",
"<  c #302628",
"1  c #342C2E",
"2  c #3E2529",
"3  c #3F342E",
"4  c #262333",
"5  c #292535",
"6  c #2A2937",
"7  c #29273B",
"8  c #2B293D",
"9  c #272439",
"0  c #362939",
"q  c #343133",
"w  c #3C3539",
"e  c #383235",
"r  c #41191E",
"t  c #481C23",
"y  c #5B1E24",
"u  c #531D23",
"i  c #641F26",
"p  c #691F26",
"a  c #522227",
"s  c #57252E",
"d  c #5E212A",
"f  c #4A2533",
"g  c #572230",
"h  c #5D2E3A",
"j  c #47363F",
"k  c #4B3039",
"l  c #4D3F38",
"z  c #463A38",
"x  c #593A34",
"c  c #63232B",
"v  c #69222A",
"b  c #7A2029",
"n  c #713234",
"m  c #54423C",
"M  c #73403B",
"N  c #2C2C44",
"B  c #232748",
"V  c #2D2E49",
"C  c #362C44",
"Z  c #382F42",
"A  c #382D48",
"S  c #2F304A",
"D  c #353346",
"F  c #3B3244",
"G  c #32334C",
"H  c #3B3748",
"J  c #3E3E4E",
"K  c #2E325A",
"L  c #333651",
"P  c #383752",
"I  c #363955",
"U  c #393B53",
"Y  c #373C59",
"T  c #393E5C",
"R  c #33375C",
"E  c #423D43",
"W  c #543948",
"Q  c #3B415E",
"!  c #3D4254",
"~  c #3C4462",
"^  c #3B4966",
"/  c #484145",
"(  c #4F4A4E",
")  c #524B4D",
"_  c #564747",
"`  c #46485B",
"'  c #594C57",
"]  c #575154",
"[  c #634A47",
"{  c #6B5447",
"}  c #755749",
"|  c #7A5E4E",
" . c #625857",
".. c #6A575F",
"X. c #7E6052",
"o. c #756157",
"O. c #474C68",
"+. c #494C68",
"@. c #424865",
"#. c #524D64",
"$. c #43526D",
"%. c #585567",
"&. c #555D79",
"*. c #6C5C6B",
"=. c #635564",
"-. c #615F78",
";. c #6E696D",
":. c #726A7D",
">. c #797577",
",. c #84212B",
"<. c #9C232F",
"1. c #91222D",
"2. c #872432",
"3. c #9C2430",
"4. c #A32533",
"5. c #BA2635",
"6. c #A63F4B",
"7. c #B53542",
"8. c #814E46",
"9. c #994E56",
"0. c #8B525B",
"q. c #AF4D58",
"w. c #BF4452",
"e. c #A1565F",
"r. c #876654",
"t. c #BB5C68",
"y. c #97636C",
"u. c #8B736B",
"i. c #987964",
"p. c #836B7B",
"a. c #A27F67",
"s. c #A36875",
"d. c #AA6877",
"f. c #BD717D",
"g. c #C65965",
"h. c #C8616D",
"j. c #C76873",
"k. c #C16D7A",
"l. c #A18370",
"z. c #BD9378",
"x. c #2B3E8A",
"c. c #465084",
"v. c #4C5991",
"b. c #565F9A",
"n. c #5E668D",
"m. c #6A6786",
"M. c #6D6C81",
"N. c #676B84",
"B. c #786F83",
"V. c #767086",
"C. c #78768E",
"Z. c #5F6EAF",
"A. c #6776B3",
"S. c #946F80",
"D. c #887487",
"F. c #817F82",
"G. c #A17588",
"H. c #BB7582",
"J. c #8A8689",
"K. c #908086",
"L. c #9E898E",
"P. c #B5808B",
"I. c #8E90A3",
"U. c #8283B5",
"Y. c #A597A4",
"T. c #CE8F9A",
"R. c #DFAF8D",
"E. c #E3B694",
"W. c #CF99A3",
/* pixels */
"                                                                                                    ",
"                                                                                                    ",
"                                                                                                    ",
"                                                                . o q - X                           ",
"                                                              o - , , , , o                         ",
"                                                              O - - - - - >                         ",
"                                                              O O > - - , ,                         ",
"                                                              O ( J.;.w , q                         ",
"                                                              O e  .) e 1 >                         ",
"                                                              - _ z.l.o.m 3                         ",
"                                                              - r.E.R.a.z z O -                     ",
"                                                            t # n z.E.r.a 1 : 8 %                   ",
"                                                            ,.,.<.8.i.r.v < 4 V : O                 ",
"                                                            p 4.,.x | } v ; N 7 +                   ",
"                                                            i 5.<.[ u.u.n 0 G 7 +                   ",
"                                                            # 4.<.' m.%.c C N 7 +                   ",
"                                                            + b 3.F &.` y 7 : O +                   ",
"                                                          + O u 1.w ^ W s 8 - +                     ",
"                                                          + 4 & b F $.h f G Q V $                   ",
"                                                        + $ 7 & b F ! s C L Q Q N                   ",
"                                                      + + $ N $ t 2 [ k G V I Q I 4                 ",
"                                                    + + + $ N $ @ 2 z U Y 7 S T I :                 ",
"                                                  + + + $ : N : $ = N Q Q 8 N Q Y :                 ",
"                                                + + + $ 4 % 7 9 H :.M.+.Q 8 8 L Q N                 ",
"                                              4 + + $ : 7 % 7 N p.g.h.V.~ L 9 L Q N                 ",
"                                              D % + % 7 4   7 U d.w.5.f.B.L 9 S Q N                 ",
"                                              8 G 5 9 5     9 U s.9.e.f.:.P 9 S Y C                 ",
"                                                5 N 7       $ N #.p.9.G.@.U 7 S I V                 ",
"                                                  8 8       % N V 7 *.-.T T 8 ! I L :               ",
"                                                    5       $ 7 V 7 N ~ T Q 7 L Q S 4               ",
"                                                            + 7 V 7 7 Y Q T 8 S Q L 4               ",
"                                                            + 9 N 7 7 L T T 5 N Y Q 5               ",
"                                                            % 8 N 7 N T I L 5 N I T 8               ",
"                                                            % N N 7 8 T L G 5 C A P 8               ",
"                                                            J G N 7 N Y T Q j 2.3.c %               ",
"                                                          ' H.*.N 7 8 T T -.y.s y u                 ",
"                                                          a q.H.M.G 9 Y T D.h.0.#                   ",
"                                                            K.W.Y.U 9 N T C.T.7.y                   ",
"                                                              s.%.N N 9 Y @.S.t...                  ",
"                                                              =.G N N : P T +.m.D :                 ",
"                                                            : N N N 7 $ 8 T Q I N 7                 ",
"                                                            9 N N N f p g G I N N :                 ",
"                                                            9 N N 7 v p p N N 7 :                   ",
"                                                              : 5 % @     % :                       ",
"                                                                ;.W       / ]                       ",
"                                                                J.%.      ) >.                      ",
"                                                            w %.I.v.      c.n.H                     ",
"                                                          { L.A.Z.x.    m.U.b.V                     ",
"                                                            ] Y K B     m { )                       ",
"                                                                                                    "
};
