/* XPM */
static char *__removebg_preview1708699592[] = {
/* columns rows colors chars-per-pixel */
"50 50 171 2 ",
"   c None",
".  c gray4",
"X  c #100F0F",
"o  c #151515",
"O  c #1E1B1C",
"+  c #21191C",
"@  c #2A191D",
"#  c #231416",
"$  c #231C23",
"%  c #241E29",
"&  c #2C1D25",
"*  c #381B20",
"=  c #331D25",
"-  c #252223",
";  c #282626",
":  c #25212C",
">  c #2A242B",
",  c #2D2B2C",
"<  c #3B222A",
"1  c #262333",
"2  c #292535",
"3  c #2C2836",
"4  c #25253C",
"5  c #29263A",
"6  c #2A293D",
"7  c #322534",
"8  c #3C2533",
"9  c #322E37",
"0  c #353233",
"q  c #3B3434",
"w  c #3B3738",
"e  c #393838",
"r  c #481C23",
"t  c #521D22",
"y  c #5D1E25",
"u  c #651F26",
"i  c #741F28",
"p  c #45212C",
"a  c #49292D",
"s  c #51222E",
"d  c #5E232D",
"f  c #41342F",
"g  c #492635",
"h  c #422938",
"j  c #433431",
"k  c #4A3933",
"l  c #5F3433",
"z  c #662027",
"x  c #66222A",
"c  c #772129",
"v  c #7B202A",
"b  c #672731",
"n  c #742D30",
"m  c #7E2C35",
"M  c #74393B",
"N  c #4D4038",
"B  c #54433E",
"V  c #5A453B",
"C  c #6E443D",
"Z  c #2C2B44",
"A  c #2D2E49",
"S  c #322C43",
"D  c #2F3046",
"F  c #2F314B",
"G  c #313146",
"H  c #3D3246",
"J  c #31334B",
"K  c #34394C",
"L  c #2F3450",
"P  c #343652",
"I  c #363956",
"U  c #373B59",
"Y  c #3A3E5C",
"T  c #3A3A53",
"R  c #383E6D",
"E  c #443D41",
"W  c #41354B",
"Q  c #483F48",
"!  c #4D3543",
"~  c #7C3A40",
"^  c #37405B",
"/  c #3B415E",
"(  c #3C4462",
")  c #3C4C63",
"_  c #4F484B",
"`  c #4D474B",
"'  c #45475D",
"]  c #4E4A59",
"[  c #534F50",
"{  c #50495D",
"}  c #5A5658",
"|  c #664D43",
" . c #685348",
".. c #775446",
"X. c #6C5356",
"o. c #775F51",
"O. c #434965",
"+. c #404F6D",
"@. c #5A4E61",
"#. c #47546E",
"$. c #555266",
"%. c #54556A",
"&. c #5F566A",
"*. c #404B7F",
"=. c #575A75",
"-. c #6C5964",
";. c #605A6E",
":. c #5A617F",
">. c #6A6669",
",. c #6C687F",
"<. c #69667C",
"1. c #7B6B7C",
"2. c #756F7A",
"3. c #7C787E",
"4. c #82212B",
"5. c #8B232D",
"6. c #9B232F",
"7. c #92232E",
"8. c #972932",
"9. c #A22430",
"0. c #BF2735",
"q. c #B42533",
"w. c #BB323F",
"e. c #8D3840",
"r. c #9D3D47",
"t. c #AC3E48",
"y. c #974E55",
"u. c #985F54",
"i. c #876450",
"p. c #886A57",
"a. c #956455",
"s. c #BC5E6B",
"d. c #8F7262",
"f. c #9F7B66",
"g. c #937868",
"h. c #897076",
"j. c #92727D",
"k. c #A26872",
"l. c #B26F7C",
"z. c #C34C58",
"x. c #C95864",
"c. c #C8656F",
"v. c #C06975",
"b. c #C7717C",
"n. c #A7846D",
"m. c #AF8C73",
"M. c #B18E75",
"N. c #C0977B",
"B. c #2B3E8B",
"V. c #4A5998",
"C. c #535F93",
"Z. c #776F87",
"A. c #786E83",
"S. c #5D6CAD",
"D. c #6D6FA0",
"F. c #6474B2",
"G. c #827A85",
"H. c #917483",
"J. c #A97986",
"K. c #B97985",
"L. c #C37B86",
"P. c #878488",
"I. c #91849A",
"U. c #A0919E",
"Y. c #8885AC",
"T. c #9194A8",
"R. c #D2959E",
"E. c #C8A285",
"W. c #D5A483",
"Q. c #E8B995",
"!. c #C4A8B4",
/* pixels */
"                                                                                                    ",
"                                                                                                    ",
"                                                                . O O                               ",
"                                                              O - e 0 O o                           ",
"                                                            O ; ; - - ; ;                           ",
"                                                            + O - - - - 3 o                         ",
"                                                            O e ] ' 0 ; e o                         ",
"                                                            O _ n.2.w , 0 o                         ",
"                                                            - l f.u.X.j k X                         ",
"                                                            ; i.Q.W.N.N  .O +                       ",
"                                                          # @ ..W.Q.n.a f - 4 : +                   ",
"                                                          c c 8.a.M.p.n a - Z 5 +                   ",
"                                                          4.6.5.C p.f.n < 1 Z 1 +                   ",
"                                                          c 0.6.| d.g.M r D A % +                   ",
"                                        V k               y q.9.-.2.1.M g K Z % +                   ",
"                                      V  .k               @ 7.9.E C.#.b 8 5 % + +                   ",
"                                      n.E.C             + O u 6.H ( ' d 7 : + +                     ",
"                                      o.m.` :         + + 1 = 4.H +.! s D K Z :                     ",
"                                      > 9 A 5       $ O $ 5 & 4.W ) b h G / / K :                   ",
"                                      J P A 5 %   $ 2 $ % Z $ t 8 s u W P P / / Z                   ",
"                                      3 A Z Z % $ 5 Z % 1 Z $ * y 4.= U G 6 Y Y G                   ",
"                                      $ Z Z Z 2 4 Z 5 + 1 Z Z % r 7 T Y J 5 U Y G                   ",
"                                        6 A 5 2 Z Z % + % Z Z A ] @.O.Y J 5 P Y P :                 ",
"                                        6 K Z Z A 5 $ # $ 5 Z 1.l.b.Z./ U 1 Z U U 1                 ",
"                                        $ D A F A : +     5 ' l.z.t.b.G.W Z Z U U 2                 ",
"                                          $ 2 Z : +       5 ' l.t.y.c.H./ 4 Z I U 2                 ",
"                                                          1 Z &.j.y.K.%.U Z Z K U 1                 ",
"                                                          1 Z Z J -.Z.( Y A S U P Z                 ",
"                                                          % Z Z 6 6 ( / Y J 6 ( P Z                 ",
"                                                          $ 4 Z 5 5 ^ ( Y J 6 U U D                 ",
"                                                          + 5 Z 5 5 F U / J 5 P / K                 ",
"                                                          % Z Z 6 6 / U Y G 5 P Y P                 ",
"                                                          2 Z Z Z 5 Y P Y J 2 Z P K                 ",
"                                                          9 A Z 4 5 U U / { = p g r                 ",
"                                                          X.{ Z 5 5 Y Y O.J.e.u u t                 ",
"                                                          M K.<.G 2 I Y :.v.b.m                     ",
"                                                          h.R.U.T 5 Z U =.!.x.5.                    ",
"                                                          r.L.$.Z Z 1 I R <.s.k.                    ",
"                                                          H.1.J Z Z : J T ( ,.$.:                   ",
"                                                          Z J Z Z Z $ 1 T Y U A 1                   ",
"                                                          6 Z Z Z g y d S U J Z 1                   ",
"                                                          5 Z Z 5 z z c 7 Z Z 1                     ",
"                                                            1 3 1 @     $ 2 $                       ",
"                                                              >.E       q >.q                       ",
"                                                            , P.$.      0 3.[                       ",
"                                                          H %.T.V.      *.C.%.                      ",
"                                                        p.I.F.S.B.    ;.Y.D.R                       ",
"                                                        j Q A A 4     j V B 3                       ",
"                                                                                                    ",
"                                                                                                    "
};
