/* XPM */
static char *__removebg_preview1708699593[] = {
/* columns rows colors chars-per-pixel */
"50 50 176 2 ",
"   c None",
".  c #0D0D0D",
"X  c #0F0F11",
"o  c #141414",
"O  c #1E1D1D",
"+  c #24171A",
"@  c #21191C",
"#  c #2C191C",
"$  c #3C1A1F",
"%  c #231C24",
"&  c #2B1B21",
"*  c #241F29",
"=  c #2B1F2A",
"-  c #301C23",
";  c #252224",
":  c #292425",
">  c #272827",
",  c #25212D",
"<  c #29242B",
"1  c #2C292A",
"2  c #352C2B",
"3  c #3F322F",
"4  c #262333",
"5  c #282535",
"6  c #272538",
"7  c #28263A",
"8  c #2B2A3D",
"9  c #2A2835",
"0  c #352E32",
"q  c #3A2A38",
"w  c #343132",
"e  c #3B3438",
"r  c #441C23",
"t  c #4D1C23",
"y  c #541D23",
"u  c #5D1D25",
"i  c #641E26",
"p  c #6E1F28",
"a  c #621F28",
"s  c #751F27",
"d  c #44212D",
"f  c #4C212A",
"g  c #4F282E",
"h  c #5A212B",
"j  c #5A292F",
"k  c #472938",
"l  c #422735",
"z  c #5F2737",
"x  c #542D34",
"c  c #5D2A35",
"v  c #493934",
"b  c #58363A",
"n  c #69222B",
"m  c #742028",
"M  c #7A2029",
"N  c #782A37",
"B  c #68383A",
"V  c #743C39",
"C  c #5B463B",
"Z  c #2B2B44",
"A  c #2D2E4A",
"S  c #232441",
"D  c #312F43",
"F  c #392E40",
"G  c #2F304B",
"H  c #313244",
"J  c #3B3242",
"K  c #32334B",
"L  c #383A4F",
"P  c #333652",
"I  c #363A55",
"U  c #3D3D53",
"Y  c #373C59",
"T  c #393E5C",
"R  c #433C4B",
"E  c #413A47",
"W  c #3A405D",
"Q  c #37405B",
"!  c #3C4260",
"~  c #3E4A68",
"^  c #4F4A4E",
"/  c #4B4449",
"(  c #5B4948",
")  c #484658",
"_  c #524D52",
"`  c #7B4E4B",
"'  c #6F5347",
"]  c #79554B",
"[  c #774C52",
"{  c #6C545A",
"}  c #605B5F",
"|  c #765F51",
" . c #7E604F",
".. c #7B6253",
"X. c #7F6659",
"o. c #434A66",
"O. c #444966",
"+. c #42536D",
"@. c #535167",
"#. c #59596B",
"$. c #5A5C76",
"%. c #515470",
"&. c #6A5C6E",
"*. c #775E6C",
"=. c #566178",
"-. c #6E6A6E",
";. c #7E6760",
":. c #75646D",
">. c #62647C",
",. c #756E73",
"<. c #787579",
"1. c #B51915",
"2. c #BC1E11",
"3. c #83212A",
"4. c #8D212C",
"5. c #9E232E",
"6. c #93232D",
"7. c #88283A",
"8. c #843536",
"9. c #A92431",
"0. c #BC2633",
"q. c #C82910",
"w. c #C22311",
"e. c #C02634",
"r. c #C1323F",
"t. c #AF3541",
"y. c #9D414B",
"u. c #864B53",
"i. c #B8414D",
"p. c #BC505B",
"a. c #876B5A",
"s. c #8D715E",
"d. c #9B7A65",
"f. c #867C7C",
"g. c #A0616C",
"h. c #BF626D",
"j. c #A77965",
"k. c #BB6B78",
"l. c #A8717E",
"z. c #B4717F",
"x. c #C54B57",
"c. c #C7606B",
"v. c #A58269",
"b. c #CE9177",
"n. c #2B3F91",
"m. c #464F84",
"M. c #525787",
"N. c #4C5B9A",
"B. c #5F6485",
"V. c #726B83",
"C. c #7F788E",
"Z. c #7A7388",
"A. c #5867A8",
"S. c #6373B1",
"D. c #857F9D",
"F. c #9A7F90",
"G. c #AB7A88",
"H. c #B37C87",
"J. c #837EA4",
"K. c #C87580",
"L. c #8B898E",
"P. c #BA808D",
"I. c #A48290",
"U. c #BE8692",
"Y. c #B39199",
"T. c #8B84A1",
"R. c #8F90A5",
"E. c #A79FAD",
"W. c #AF9DAB",
"Q. c #CF8089",
"!. c #C09781",
"~. c #D0949C",
"^. c #CFA485",
"/. c #DCAC8C",
"(. c #D3A88A",
"). c #E5B694",
/* pixels */
"                                                                                                    ",
"                                                                                                    ",
"                                                                                                    ",
"                                                            o o w w o                               ",
"                                                          O > > 1 1 1 >                             ",
"                                                        . ; @ : % > @ 1 O                           ",
"                                                        . @ : 0 2 < > w ;                           ",
"                                                        . O _ L.<.^ : w >                           ",
"                                                        . @ x ;.| ^ 2 3 O                           ",
"                                1.                      o : ] /.b.b.v ..:                           ",
"                                q.w.                    X @  ./.).^.v v : , , @                     ",
"                                2.1.  ' a.            $ i u 8.j.(.v.n g : 6 Z % @                   ",
"                                      d.s.              6.4.5.V ..v.V f , 7 Z % @                   ",
"                                    3 X.(               3.0.4.b ] ..B f 5 A 7 %                     ",
"                                  9 K 8 8 <             M e.5.{ ,.f.` h H K 7 @                     ",
"                                  9 L Z 6 9 ,           $ 9.5.L B.=.x t A 7 , @                     ",
"                                    D P Z Z 6         @ + 3.9.D O.+.z r 4 % + @                     ",
"                                    8 G Z Z 7 %     @ O * - 4.q O.^ p D H 9 , @                     ",
"                                    > A Z Z Z % @ O + % 7 - 3.J ~ R j 8 W W Y 9                     ",
"                                      8 Z Z Z 4 % % + * Z & i q J n k G I T T P ,                   ",
"                                      < G Z 7 7 7 % + 6 Z % $ t 3.u I P 7 I ! Y 4                   ",
"                                      @ 8 A Z Z 6 @ O 4 Z 4 = y r D T Y 4 P T Y 4                   ",
"                                        ; 4 7 6 % + @ 4 Z Z Z E ) O.T I 4 A T T 8                   ",
"                                          @ @ @ O O   % Z Z &.H.H.D.T T 8 7 I ! K                   ",
"                                                      * Z I l.x.r.H.Z.O.Z 7 P T K                   ",
"                                                      * 7 @.k.t.y.c.H.%.7 6 G T K                   ",
"                                                      @ 9 A :.g.u.K.V.W D 7 Z Y K                   ",
"                                                        4 Z A I { I.O.T I 7 Y P P 9                 ",
"                                                        4 Z Z 7 8 o.W W Y 9 Y Y P 5                 ",
"                                                        % 7 Z Z 4 T ! W Y 9 K T I 6                 ",
"                                                        % 7 Z Z 6 A Y T I 6 G T T 8                 ",
"                                                        * Z Z S 9 T Y Y K * A T W D                 ",
"                                                        6 Z Z 8 6 Y I Y Z 7 Z G Y D                 ",
"                                                      < D Z Z Z 6 Y Y Y U k N 7.z =                 ",
"                                                      ;.I.O.Z 7 7 T T T Z.[ a s i #                 ",
"                                                      N x.G.#.G 4 Y R O.G.h.[ +                     ",
"                                                        Y.~.E.U 7 Z Y O.W.K.t.r                     ",
"                                                        B H.@.Z Z 4 G W $.H.p.*.                    ",
"                                                        q &.K Z Z 4 Z W W $.Z.U 5                   ",
"                                                        6 A Z Z Z % = P W T I Z 8                   ",
"                                                        Z Z Z Z q u a q I I Z Z 5                   ",
"                                                      * 7 Z Z Z u p s f Z Z 7 ,                     ",
"                                                          4 9 5 &     & 5 ,                         ",
"                                                          0 <./         } ^                         ",
"                                                          w L.#.        ,.-.                        ",
"                                                        J >.R.N.      m.N.B.0                       ",
"                                                      s.J.S.A.n.    ) T.J.M.4                       ",
"                                                      v R G A S     2 C ( e                         ",
"                                                                                                    ",
"                                                                                                    "
};
