/* XPM */
static char *__removebg_preview__1_1708699593[] = {
/* columns rows colors chars-per-pixel */
"50 50 184 2 ",
"   c None",
".  c #0D0C0D",
"X  c #161516",
"o  c #1C1B1C",
"O  c #1A1518",
"+  c #21191C",
"@  c #2F191C",
"#  c #3B1A1F",
"$  c #311D1E",
"%  c #231D24",
"&  c #241F2A",
"*  c #361C23",
"=  c #3F1C21",
"-  c #262324",
";  c #292727",
":  c #25212D",
">  c #2A262B",
",  c #2D2B2C",
"<  c #3C222C",
"1  c #322A2B",
"2  c #36302F",
"3  c #262334",
"4  c #292534",
"5  c #2E2935",
"6  c #25253B",
"7  c #29263A",
"8  c #2A293C",
"9  c #3D2633",
"0  c #332C3C",
"q  c #362B35",
"w  c #3C393B",
"e  c #393534",
"r  c #461D22",
"t  c #4A1C22",
"y  c #501D23",
"u  c #5D1D24",
"i  c #501F28",
"p  c #651E25",
"a  c #6E1F27",
"s  c #721F27",
"d  c #46282A",
"f  c #53232A",
"g  c #43322D",
"h  c #4E2E33",
"j  c #472331",
"k  c #512632",
"l  c #493837",
"z  c #5D3238",
"x  c #64222C",
"c  c #6B232C",
"v  c #6C282C",
"b  c #77232A",
"n  c #712B33",
"m  c #733738",
"M  c #2B2B44",
"N  c #2E2E49",
"B  c #332F44",
"V  c #2F3045",
"C  c #2F314B",
"Z  c #323146",
"A  c #32334C",
"S  c #393749",
"D  c #333652",
"F  c #353955",
"G  c #373B58",
"H  c #393E5C",
"J  c #26316A",
"K  c #2E3A78",
"L  c #443D42",
"P  c #583D44",
"I  c #462C45",
"U  c #3B415F",
"Y  c #3A455C",
"T  c #3D4462",
"R  c #4D4548",
"E  c #564848",
"W  c #47465A",
"Q  c #5A5359",
"!  c #634D41",
"~  c #6A564B",
"^  c #74564A",
"/  c #604F58",
"(  c #685758",
")  c #7C5350",
"_  c #7D6253",
"`  c #444D69",
"'  c #454A65",
"]  c #42526C",
"[  c #4F526B",
"{  c #52526A",
"}  c #494F75",
"|  c #4F5570",
" . c #525772",
".. c #7C5B64",
"X. c #6A6568",
"o. c #666579",
"O. c #7C6774",
"+. c #746F73",
"@. c #746A79",
"#. c #757175",
"$. c #7C757E",
"%. c #B00918",
"&. c #BF0717",
"*. c #B51C16",
"=. c #B92618",
"-. c #BA3516",
";. c #8B222B",
":. c #842837",
">. c #A3232F",
",. c #A62430",
"<. c #BB2633",
"1. c #B42835",
"2. c #CE0315",
"3. c #C70716",
"4. c #D10B14",
"5. c #C71914",
"6. c #D41E11",
"7. c #D31214",
"8. c #DA370F",
"9. c #C42815",
"0. c #D42413",
"q. c #D42816",
"w. c #C53B16",
"e. c #CD381B",
"r. c #DA3A12",
"t. c #C02633",
"y. c #CC4513",
"u. c #D74615",
"i. c #D65010",
"p. c #E25616",
"a. c #953A43",
"s. c #A33E48",
"d. c #BD3744",
"f. c #8F4340",
"g. c #99454D",
"h. c #975058",
"j. c #875A56",
"k. c #A5555D",
"l. c #876B5B",
"z. c #8D6E5C",
"x. c #836656",
"c. c #BC5C68",
"v. c #8B6F60",
"b. c #806773",
"n. c #956E7A",
"m. c #BA656F",
"M. c #A27F68",
"N. c #A66F7F",
"B. c #C14450",
"V. c #C7535E",
"C. c #C55C69",
"Z. c #C1666E",
"A. c #C96771",
"S. c #A8826B",
"D. c #B3886E",
"F. c #B58F76",
"G. c #B79279",
"H. c #C7957A",
"J. c #374C9F",
"K. c #4C5A98",
"L. c #535685",
"P. c #59618E",
"I. c #656983",
"U. c #726981",
"Y. c #5463A9",
"T. c #6471A7",
"R. c #887587",
"E. c #977989",
"W. c #867C97",
"Q. c #AF7A87",
"!. c #CD7D87",
"~. c #7783BA",
"^. c #8C898B",
"/. c #8B8B97",
"(. c #948698",
"). c #A88F8E",
"_. c #BC8591",
"`. c #B0A6B4",
"'. c #C3828C",
"]. c #C7909A",
"[. c #DFB08E",
"{. c #D8A487",
"}. c #E5B695",
"|. c #C59AA4",
/* pixels */
"                                                                                                    ",
"                                                                                                    ",
"                                                            . X .                                   ",
"                                                        X X ; w , o X                               ",
"                                                      X ; ; - ; - - ; X                             ",
"                                                      o + - - - - - , o                             ",
"                  =.                                  o - R R R 5 - e o                             ",
"                e.0.5.=.                              X , #.^.+.w ; e -                             ",
"              %.4.4.0.q.w.                            o $ ) z.j.E 2 g o                             ",
"                &.2.4.0.p.i.w.                        , g H.[.{.F.e ^ o O                           ",
"                  3.2.6.6.r.i.*.    ~                 O g D.}.}.S.< l % 4 : %                       ",
"                3.q.0.r.u.y.-.    _ l.              c p ;.f.S.G.x.c h ; 8 M : +                     ",
"              %.2.7.8.5.9.      ! M.l.              b ;.,.b ^ z.S.v d - 8 M & +                     ",
"                5.0.9.=.        l ( R               u 1.<.x ^ z.v.m y 0 C 7 +                       ",
"                  *.          V F 8 4 : +           t >.<.n #.@.U.m k A N 8 +                       ",
"                              8 F N 8 8 :           + b <.v W P.] u j M 4 % +                       ",
"                                Z A M M 3         + % # ,.x F ` W p q - % o +                       ",
"                                8 A M M M %     + + & & a p G ] l x M A V 4 %                       ",
"                                4 N M M M % + % + + 7 & p c U Y c j N U H H 8 %                     ",
"                                  N N M M : % % + % M & # i 5 k p S A A H H G 4                     ",
"                                  > N M 7 8 M & o & M : % t p s 9 G A 3 G H H 7                     ",
"                                  + 8 N M M 3 + + & M 6 6 * t 5 F H A 3 A H G 7                     ",
"                                    & : 3 3 + + + % M M N S W { ' H A 4 N G H V                     ",
"                                      + + + + +     3 M W Q.Z.'.I.H H 7 8 G T D &                   ",
"                                                    6 N @.C.k.t.Q.R.' 7 7 C H D -                   ",
"                                                    3 M R.V.a.k.A.E.` 7 7 C H D -                   ",
"                                                    & M S R.j.g._.| H N 3 N G D &                   ",
"                                                    & M M C B b.@.U H G 4 G D D 8                   ",
"                                                    % 7 M M 3 C T T H G 3 F H D M                   ",
"                                                      3 M M 3 8 Y U H G 3 A H G M                   ",
"                                                    % : M M 4 M D G U G 4 M F H Z                   ",
"                                                    % 7 M M 4 M U D H G : 8 D G A                   ",
"                                                    & M M M 3 M H D G G Z : V D Z                   ",
"                                                    4 A M M 3 M H G G  .n.j 3 I :.r                 ",
"                                                    P O.Z M 4 8 H H U E.V.s.< c ;.r                 ",
"                                                    z m.(.{ 7 6 G T  ._.A.'.h @ *                   ",
"                                                    ( ].|.o.M 6 M G [ `.!.1.f                       ",
"                                                      h.E.M M M 3 D H | Q.c.O.                      ",
"                                                      / W M M M : A H H [ o.A                       ",
"                                                      & M M M 6 + 4 D H G C M %                     ",
"                                                        8 M M x u c 0 F F A C : +                   ",
"                                                        & M 4 p i a r M M M 4 %                     ",
"                                                        4 0 &       & 5 >                           ",
"                                                        ( #.2         X.Q                           ",
"                                                        X./.G       & +.#.                          ",
"                                                    E } /.T.K       K.K.P.0                         ",
"                                                  ! ).Y.T.J.J     / (.W.L.3                         ",
"                                                    l M M 6 3     1 l l q                           ",
"                                                                                                    ",
"                                                                                                    "
};
