/* XPM */
static char *__removebg_preview1708699593[] = {
/* columns rows colors chars-per-pixel */
"50 50 198 2 ",
"   c None",
".  c #100F0F",
"X  c #110F10",
"o  c #151414",
"O  c #1A1719",
"+  c #1E1A1C",
"@  c #0D0B0C",
"#  c #21191C",
"$  c #28181C",
"%  c #3B1B1F",
"&  c #331B1E",
"*  c #231D24",
"=  c #241E29",
"-  c #311D24",
";  c #3F1B20",
":  c #252324",
">  c #26212C",
",  c #29252B",
"<  c #2D2A2B",
"1  c #282627",
"2  c #312C2F",
"3  c #37272A",
"4  c #262333",
"5  c #292535",
"6  c #29263A",
"7  c #2A293D",
"8  c #2B2938",
"9  c #322C3D",
"0  c #372735",
"q  c #3B3434",
"w  c #383436",
"e  c #421C21",
"r  c #4B1C23",
"t  c #401F28",
"y  c #561E25",
"u  c #711F27",
"i  c #5F2129",
"p  c #42342E",
"a  c #412C3E",
"s  c #512631",
"d  c #5F2739",
"f  c #473C39",
"g  c #59353D",
"h  c #4C2427",
"j  c #6C222A",
"k  c #62232C",
"l  c #74222A",
"z  c #7B212B",
"x  c #732A2F",
"c  c #753132",
"v  c #6F2A3D",
"b  c #6B493F",
"n  c #2C2B44",
"m  c #2D2E49",
"M  c #2F3147",
"N  c #2F304A",
"B  c #323147",
"V  c #33344C",
"C  c #3A394B",
"Z  c #333552",
"A  c #363955",
"S  c #393D54",
"D  c #373C59",
"F  c #393E5C",
"G  c #252D5B",
"H  c #473E43",
"J  c #3B405D",
"K  c #3F495F",
"L  c #3D4462",
"P  c #3E4C69",
"I  c #474144",
"U  c #4F494B",
"Y  c #5B4847",
"T  c #494757",
"R  c #534E53",
"E  c #575156",
"W  c #644F44",
"Q  c #7F5F4F",
"!  c #6D514D",
"~  c #796054",
"^  c #444967",
"/  c #514F64",
"(  c #4C506B",
")  c #41526F",
"_  c #51557E",
"`  c #6B656B",
"'  c #65637C",
"]  c #656073",
"[  c #756976",
"{  c #7F7A7C",
"}  c #746269",
"|  c #BE1814",
" . c #B61717",
".. c #AC0F1A",
"X. c #AB201D",
"o. c #B8231B",
"O. c #BE3618",
"+. c #821F29",
"@. c #83222C",
"#. c #8A222B",
"$. c #98232E",
"%. c #923035",
"&. c #AF3023",
"*. c #B8372B",
"=. c #AE2531",
"-. c #B7332A",
";. c #D2150F",
":. c #D31D0E",
">. c #CD1410",
",. c #D21711",
"<. c #D21B12",
"1. c #D5240F",
"2. c #D62B0F",
"3. c #D7320E",
"4. c #D8340E",
"5. c #D93B0E",
"6. c #C72714",
"7. c #D42312",
"8. c #D62B13",
"9. c #D4291D",
"0. c #CB3815",
"q. c #D53213",
"w. c #D93B15",
"e. c #D73719",
"r. c #CD2E22",
"t. c #C43D24",
"y. c #C43B29",
"u. c #D43620",
"i. c #C12634",
"p. c #BD452F",
"a. c #CC421E",
"s. c #DC4514",
"d. c #DA4B1D",
"f. c #DB4415",
"g. c #DD5013",
"h. c #E67811",
"j. c #CB422B",
"k. c #DA4B23",
"l. c #D84523",
"z. c #CB5626",
"x. c #DD5322",
"c. c #DD5727",
"v. c #C04C32",
"b. c #D25C36",
"n. c #DC7125",
"m. c #D96A35",
"M. c #E26723",
"N. c #8C3740",
"B. c #A23B46",
"V. c #C33E4A",
"C. c #9C4E55",
"Z. c #8C525A",
"A. c #8C595F",
"S. c #A94C56",
"D. c #856A5A",
"F. c #8A6856",
"G. c #996F5C",
"H. c #90705B",
"J. c #855960",
"K. c #886E60",
"L. c #927463",
"P. c #836A7A",
"I. c #866473",
"U. c #906771",
"Y. c #847275",
"T. c #A16B62",
"R. c #A67E66",
"E. c #B96572",
"W. c #BE737E",
"Q. c #C4454F",
"!. c #C35964",
"~. c #C6616C",
"^. c #C96872",
"/. c #AE8971",
"(. c #A4826B",
"). c #2D3C81",
"_. c #374481",
"`. c #485386",
"'. c #5F6785",
"]. c #646385",
"[. c #7D6F85",
"{. c #747386",
"}. c #4F60AC",
"|. c #6776B7",
" X c #827283",
".X c #907A8C",
"XX c #B27A87",
"oX c #908F9E",
"OX c #878388",
"+X c #A58595",
"@X c #BA8792",
"#X c #8087AC",
"$X c #9696A3",
"%X c #D1909A",
"&X c #C28B94",
"*X c #DAA988",
"=X c #E8B995",
"-X c #CE9CA5",
/* pixels */
"                                                                                                    ",
"                                                                                                    ",
"                                                                o 1 +                               ",
"              &.j.p.                                        O : 1 w 2 : o                           ",
"            | q.q.m.m.*.                                    : : : : : : :                           ",
"          0.2.:.w.c.c.j.-.                                o # + 1 1 : : < .                         ",
"        t.d.1.1.1.w.8.2.d.a. .                            o * R ` E w 1 w o                         ",
"        6.8.1.3.,.,.q.1.4.5.7.y.                          o # E Y.` w < 2 X                         ",
"      o.,.7.7.1.,.7.2.:.2.s.8.u.m.                        O : ! R.T.Y f p @                         ",
"      -.9.,.2.5.4.8.1.l.e.5.4.<.k.n.v.                    + 3 R.=X*X(.f Y + *                       ",
"       .<.2.w.k.7.7.7.q.M.w.g.4.w.h.z...  ~               # & F.*X=XD.h 3 , 6 = #                   ",
"      ..7.8.f.8.,.7.1.:.x.x.s.w.d.z.    W L.            r l @.$.G./.Q x 3 , m 6 #                   ",
"        6.:.2.,.,.,.8.7.q.q.e.6.O.      F.L.              #.$.@.W H.H.x 3 4 m = #                   ",
"        >.2.f.u.;.8.w.8.k.x.j.*.      , f H >             #.i.@.W K.D.c ; N n * +                   ",
"          6.,.7.1.g.k.l.0.o.          V M 5 4 *           z i.@.` [ [ x a N m *                     ",
"             .r.7.k.6.*.              M V 7 7 4           % =.@.J ].^ j 9 6 = #                     ",
"              X.o.o.                  > V m n 5 :       # # @.@.V P T i 5 * # #                     ",
"                                        B m n n =     # # 4 r z Z P g s B C n *                     ",
"                                        7 m n n = + # # * 6 ; l S ^ k 0 B L F m *                   ",
"                                        7 m n n 5 * * # 4 6 - y 0 s k C V A F F 7                   ",
"                                        , n m 6 6 n * # 6 6 * ; y z 0 F 7 m J F n                   ",
"                                          , m n n 4 # # 6 n 6 - y 5 Z F n n F F B                   ",
"                                          * > 5 5 * # + 5 n n N H ^ ^ F n 8 A F V                   ",
"                                            # # # O #   * n n P.W.@X' F Z 4 N F A ,                 ",
"                                                        = 6 / E.V.B.@X' S 5 m S A 4                 ",
"                                                        = n _ !.B.S.^..XS 5 m D A 5                 ",
"                                                        # 6 B U.Z.C.XX( D 5 m Z A 5                 ",
"                                                        # 5 n V C U.[.J F n B A Z 7                 ",
"                                                          5 n n 5 S L J J 7 M L Z m                 ",
"                                                          * n n 6 n L L J n n D D n                 ",
"                                                          = n n 5 7 Z J J n 6 D J B                 ",
"                                                          = n n 5 M D S D 4 n A J V                 ",
"                                                          5 m n 4 n F Z S 4 n m D V                 ",
"                                                        * 7 m m 4 n F A D 5 d v d 0                 ",
"                                                        }  XZ n 5 n F F ^ I.i #.+.;                 ",
"                                                        N.!.P.A 5 7 F F ' E.J.-                     ",
"                                                        Y &X-XoXB 5 Z D {.%X~.u                     ",
"                                                          J.@X/ n n 6 D ( +XV.Z.                    ",
"                                                          g P.N n n 4 D F ( oX[ 8                   ",
"                                                          9 C n n n * n F L L B 7 4                 ",
"                                                          6 n n n 0 e 0 Z F Z n 7                   ",
"                                                        = n n n 4 z z z 7 Z m 6                     ",
"                                                          4 6 n 4 e   r 4 5 >                       ",
"                                                            w R 2       5 H                         ",
"                                                            U OXH       I {                         ",
"                                                          * E $X^       V {.R                       ",
"                                                        ~ ].#X|.).    `.|.}.F                       ",
"                                                        D.].`._.G     ~ Y.[ m                       ",
"                                                                                                    ",
"                                                                                                    "
};
