/* XPM */
static char *result[] = {
/* columns rows colors chars-per-pixel */
"50 50 206 2 ",
"   c #63322E",
".  c #64332E",
"X  c #64332F",
"o  c #65332F",
"O  c #64342F",
"+  c #65342F",
"@  c #653530",
"#  c #693A36",
"$  c #683B36",
"%  c #693B36",
"&  c #693B37",
"*  c #6A3B36",
"=  c #6A3B37",
"-  c #683C37",
";  c #693C37",
":  c #693C38",
">  c #693D38",
",  c #714238",
"<  c #704239",
"1  c #74443A",
"2  c #75453A",
"3  c #8B4D2A",
"4  c #8B4D2B",
"5  c #894D2D",
"6  c #894D2E",
"7  c #9F5E36",
"8  c #9F5F36",
"9  c #9C5D38",
"0  c #AC6027",
"q  c #AC6127",
"w  c #AC6227",
"e  c #AE6327",
"r  c #AC6128",
"t  c #AE6328",
"y  c #AD642B",
"u  c #AF662B",
"i  c #BC7130",
"p  c #BD7130",
"a  c #BD7334",
"s  c #BE7334",
"d  c #C67E34",
"f  c #BB823F",
"g  c #BB833F",
"h  c #CD8737",
"j  c #CD8837",
"k  c #D2833C",
"l  c #D2843C",
"z  c #D3843C",
"x  c #D3843D",
"c  c #D3853D",
"v  c #D3863E",
"b  c #D5863D",
"n  c #D4863E",
"m  c #D5863E",
"M  c #D4873F",
"N  c #D4883F",
"B  c #BB8240",
"V  c #BB8340",
"C  c #BD8747",
"Z  c #BC8848",
"A  c #D38741",
"S  c #D38742",
"D  c #D48840",
"F  c #D58840",
"G  c #D48940",
"H  c #D58940",
"J  c #D58841",
"K  c #D58941",
"L  c #D58A41",
"P  c #D58842",
"I  c #D68B42",
"U  c #D68C43",
"Y  c #D78C43",
"T  c #D78F45",
"R  c #D88F45",
"E  c #D39442",
"W  c #D49443",
"Q  c #D99148",
"!  c #D99248",
"~  c #DA944A",
"^  c #DB944A",
"/  c #DB954B",
"(  c #DB964B",
")  c #DC984D",
"_  c #DD984D",
"`  c #DD994E",
"'  c #DE9B50",
"]  c #DE9C50",
"[  c #DF9C50",
"{  c #DF9D52",
"}  c #E09E52",
"|  c #E09E53",
" . c #E09F53",
".. c #E9A446",
"X. c #E9A546",
"o. c #EAA546",
"O. c #F9BA4A",
"+. c #F9BB4A",
"@. c #F9BA4B",
"#. c #F9BB4B",
"$. c #FABB4A",
"%. c #F9BB4C",
"&. c #FABB4C",
"*. c #F9BC4C",
"=. c #FABC4C",
"-. c #FABD4C",
";. c #FABC4D",
":. c #FBBD4D",
">. c #FBBE4C",
",. c #F9BC4E",
"<. c #F9BC4F",
"1. c #F9BD4F",
"2. c #E2A558",
"3. c #E3A558",
"4. c #E6AC5E",
"5. c #E7AD5F",
"6. c #F9BD50",
"7. c #F9BD51",
"8. c #F9BE52",
"9. c #F9BE53",
"0. c #F9BF53",
"q. c #FABF53",
"w. c #F9BF54",
"e. c #F8BF56",
"r. c #E8AE60",
"t. c #E8AF61",
"y. c #EBB566",
"u. c #ECB666",
"i. c #EDB768",
"p. c #EDB868",
"a. c #EEBA6A",
"s. c #EFBC6B",
"d. c #F0BD6C",
"f. c #F1BF6E",
"g. c #FAC156",
"h. c #FAC157",
"j. c #F8C059",
"k. c #F8C15B",
"l. c #FAC25A",
"z. c #FAC35A",
"x. c #FAC25B",
"c. c #FAC35B",
"v. c #FAC45D",
"b. c #F7C463",
"n. c #F8C260",
"m. c #FAC560",
"M. c #FAC660",
"N. c #FBC660",
"B. c #FBC761",
"V. c #FBC662",
"C. c #FAC763",
"Z. c #FBC763",
"A. c #FBC764",
"S. c #FBC864",
"D. c #FBC865",
"F. c #FBC866",
"G. c #FBC966",
"H. c #F3C270",
"J. c #F3C271",
"K. c #F4C372",
"L. c #F4C472",
"P. c #F4C473",
"I. c #F4C573",
"U. c #F5C573",
"Y. c #F5C574",
"T. c #F5C674",
"R. c #F6C875",
"E. c #F7CB77",
"W. c #F7CB78",
"Q. c #F7CB79",
"!. c #F6CE7F",
"~. c #F8CB79",
"^. c #F8CC79",
"/. c #F9CE7B",
"(. c #FACE7B",
"). c #FCD279",
"_. c #FDD279",
"`. c #FDD37B",
"'. c #FED37A",
"]. c #FED37B",
"[. c #FBD07D",
"{. c #FCD27E",
"}. c #F6CE80",
"|. c #F6CE81",
" X c #FDD580",
".X c #FFD680",
"XX c #FED681",
"oX c #FFD681",
"OX c #FED781",
"+X c #FFD781",
"@X c #FED682",
"#X c #FFD682",
"$X c #FED782",
"%X c #FFD782",
"&X c #FED783",
"*X c #FFD783",
"=X c #FFD883",
"-X c #FFD983",
";X c #FFD984",
":X c #FFDA84",
">X c #F6D38D",
",X c #F4F0DC",
"<X c #F3F2E0",
"1X c #F4F2E0",
"2X c #F4F2E1",
"3X c None",
/* pixels */
"3X3X3X3X3X3X3X3X3X3X3X3X3X3X3X3X3X3X3X3X3X3X3X3X3X3X3X3X3X3X3X3X3X3X3X3X3X3X3X3X3X3X3X3X3X3X3X3X3X3X",
"3X3X3X3X3X3X3X3X3X3X3X3X3X3X3X3X3X3X3X3X3X3X3X3X3X3X3X3X3X3X3X3X3X3X3X3X3X3X3X3X3X3X3X3X3X3X3X3X3X3X",
"3X3X3X3X3X3X= % % % % % % % % % % % % % % % % % % % % % % % % % % % % % % % % % % % * ; 3X3X3X3X3X3X",
"3X3X3X3X3X$ + + + + + + + + + + + + + + + + + + + + + + + + + + + + + + + + + + + + + + & 3X3X3X3X3X",
"3X3X3X3X3X> @ o X X X X X X X X X X X X X X X X X X X X X X X X X X X X X X X X X X O + : 3X3X3X3X3X",
"3X3X3X3X3X3X< 6 3 4 4 4 4 4 4 4 4 4 4 4 4 4 4 4 4 4 4 4 4 4 4 4 4 4 4 4 4 4 4 4 4 4 5 , 3X3X3X3X3X3X",
"3X3X3X3X3X3X3Xu t t t t t t t t t t t t t t t t t t t t t t t t t t t t t t t t t e u 3X3X3X3X3X3X3X",
"3X3X3X3X3X3X3Xy q r r r r r r r q 0 0 0 0 0 0 0 0 0 0 0 0 0 0 0 0 q r r r r r r r w y 3X3X3X3X3X3X3X",
"3X3X3X3X3X3X3Xa i p p p p p p i d j h h h h h h h h h h h h h h j d i p p p p p p p s 3X3X3X3X3X3X3X",
"3X3X3X3X3X3X3XA c c c c c c c c X.;.*.*.*.*.*.*.*.*.*.*.*.*.*.*.;.X.c c c c c c c c A 3X3X3X3X3X3X3X",
"3X3X3X3X3X3X3XS c c c c c c c c ..=.%.%.#.#.#.%.%.%.%.#.#.#.%.%.=.X.c c c c c c c c S 3X3X3X3X3X3X3X",
"3X3X3X3X3X3X3XS c c l l l x c c ..=.%.w.v.v.v.w.%.%.0.v.v.v.w.%.=.X.c c x l l z c c S 3X3X3X3X3X3X3X",
"3X3X3X3X3X3X3XS c M 2.r.5.! l c ..=.#.D.OXXXOXC.#.#.C.@XXX$XD.#.=.X.c z Q 5.r.3.M c A 3X3X3X3X3X3X3X",
"3X3X3X3X3X3X3XS c H Y.;X$X| l c ..=.#.F.$X%X&XA.#.#.A.*X%X*XF.%.=.X.c k | %X;XT.K c A 3X3X3X3X3X3X3X",
"3X3X3X3X3X3X3XS c H P.=XXX} l c ..=.#.F.$X%X&XA.#.#.A.*X%X*XD.%.=.X.c k } XX=XU.H c A 3X3X3X3X3X3X3X",
"3X3X3X3X3X3X3XS c H I.=XXX} l c ..=.#.F.$X%X&XA.#.#.A.*X%X*XD.%.=.X.c k } XX=XU.H c A 3X3X3X3X3X3X3X",
"3X3X3X3X3X3X3XS c H J. X{.{ k c ..=.#.F.*X%X&XS.#.#.A.*X%X=XG.%.=.X.c k { {. XJ.H c A 3X3X3X3X3X3X3X",
"3X3X3X3X3X3X3XS c v ^ ` _ I c c ..=.#.V.`.'.`.M.#.#.M.`.'.].B.%.=.X.c c I _ ` ^ n c A 3X3X3X3X3X3X3X",
"3X3X3X3X3X3X3XS c c l l l c c c ..=.%.<.8.8.8.1.%.%.1.8.8.8.<.%.=.X.c c c l l z c c A 3X3X3X3X3X3X3X",
"3X3X3X3X3X3X3XS c c c v v c c c ..=.%.%.#.#.#.%.%.%.%.#.#.#.%.%.=.X.c c c v v c c c A 3X3X3X3X3X3X3X",
"3X3X3X3X3X3X3XS c N t.s.a./ z c ..=.%.,.6.7.7.,.%.%.,.7.7.7.,.%.=.X.c l ( a.s.t.N c A 3X3X3X3X3X3X3X",
"3X3X3X3X3X3X3XS c H T.:X%X| l c ..=.#.M._._.).m.#.#.m._._._.N.#.=.X.c k | %X;XT.K c A 3X3X3X3X3X3X3X",
"3X3X3X3X3X3X3XS c H P.=XXX} l c ..=.#.F.&X*X&XA.#.#.A.*X*X*XD.#.=.X.c k } XX=XU.H c A 3X3X3X3X3X3X3X",
"3X3X3X3X3X3X3XS c H I.;X@X| l c ..=.#.D.XX.XXXC.#.#.Z.XX.X+XD.%.=.X.c k | #X;XU.H c A 3X3X3X3X3X3X3X",
"3X3X3X3X3X3X3XS c G d./.~.' l c ..=.%.0.c.l.x.9.%.%.8.c.z.z.q.%.=.X.c k ' ^./.d.H c A 3X3X3X3X3X3X3X",
"3X3X3X3X3X3X3XS c c U R T F c c ..;.%.O.+.#.@.%.%.%.%.#.#.#.%.%.=.X.c c D R R Y c c A 3X3X3X3X3X3X3X",
"3X3X3X3X3X3X3XS c c z z z c c c ..&.n.>Xb.#.%.%.%.%.%.%.%.%.%.%.=.X.c c c z z z c c A 3X3X3X3X3X3X3X",
"3X3X3X3X3X3X3XS c c H L L n c c ..$.Q.2X|.O.%.%.%.%.%.%.%.%.%.%.=.X.c c n L L H c c S 3X3X3X3X3X3X3X",
"3X3X3X3X3X3X3XS c D p.R.T.` l c ..$.W.1X}.O.%.%.%.%.%.%.%.%.%.%.=.X.c l ` T.R.p.D c S 3X3X3X3X3X3X3X",
"3X3X3X3X3X3X3XS c H Y.;X$X| l c ..$.W.<X}.O.%.%.%.%.%.%.%.%.%.%.=.X.c k | %X;XT.H c A 3X3X3X3X3X3X3X",
"3X3X3X3X3X3X3XS c H P.=XXX} l c ..+.W.,X!.O.%.%.%.%.%.%.%.%.%.%.=.X.c k } XX=XU.H c S 3X3X3X3X3X3X3X",
"3X3X3X3X3X3X3XS c H Y.;X%X| l c ..*.j.E.k.#.%.%.%.%.%.%.%.%.%.%.=.X.c k | %X;XT.H c S 3X3X3X3X3X3X3X",
"3X3X3X3X3X3X3XS c D y.L.H.) z c ..=.#.O.#.%.%.%.%.%.%.%.%.%.%.%.=.X.c l _ J.K.y.D c S 3X3X3X3X3X3X3X",
"3X3X3X3X3X3X3XS c c M F D v c c ..=.%.%.%.%.%.%.%.%.%.%.%.%.%.%.=.X.c c n F F M c c S 3X3X3X3X3X3X3X",
"3X3X3X3X3X3X3XS c c z l l c c c ..=.%.%.%.%.%.%.%.%.%.%.%.%.%.%.=.X.c c c l z z c c S 3X3X3X3X3X3X3X",
"3X3X3X3X3X3X3XS c v T ! Q H c c ..=.%.%.%.%.%.%.%.%.%.%.%.%.%.%.=.X.c c H Q ! R v c S 3X3X3X3X3X3X3X",
"3X3X3X3X3X3X3XS c H f.[.(.] l c ..=.%.%.%.%.%.%.%.%.%.%.%.%.%.%.=.X.c l [ (.[.f.H c S 3X3X3X3X3X3X3X",
"3X3X3X3X3X3X3XS c H I.-XXX| l c ..=.%.%.%.%.%.%.%.%.%.%.%.%.%.%.=.X.c k | oX=XU.H c S 3X3X3X3X3X3X3X",
"3X3X3X3X3X3X3XS c H P.=XXX} l c ..=.%.%.%.%.%.%.%.%.%.%.%.%.%.%.=.X.c k } XX=XU.H c S 3X3X3X3X3X3X3X",
"3X3X3X3X3X3X3XS c H Y.;X%X .l c ..=.%.%.%.%.%.%.%.%.%.%.%.%.%.%.=.X.c k  .%X;XT.K c S 3X3X3X3X3X3X3X",
"3X3X3X3X3X3X3XS c M 4.i.u.~ l c ..=.%.%.%.%.%.%.%.%.%.%.%.%.%.%.=.X.c z ~ u.i.4.M c S 3X3X3X3X3X3X3X",
"3X3X3X3X3X3X3XS c c c c c c c c ..=.%.%.%.%.%.%.%.%.%.%.%.%.%.%.=.X.c c c c c c c c S 3X3X3X3X3X3X3X",
"3X3X3X3X3X3X3XS c c c c c c c c ..=.%.%.%.%.%.%.%.%.%.%.%.%.%.%.=.X.c c c c c c c c S 3X3X3X3X3X3X3X",
"3X3X3X3X3X3X3XP b m m m m m m b X.=.%.%.%.%.%.%.%.%.%.%.%.%.%.%.=.o.b m m m m m m b J 3X3X3X3X3X3X3X",
"3X3X3X3X3X3X2 9 8 8 8 8 8 8 8 7 W :.%.%.%.%.%.%.%.%.%.%.%.%.%.%.-.E 7 8 8 8 8 8 8 8 9 1 3X3X3X3X3X3X",
"3X3X3X3X3X- + X X X X X X X X   B :.%.%.%.%.%.%.%.%.%.%.%.%.%.%.:.f   X X X X X X X X + ; 3X3X3X3X3X",
"3X3X3X3X3X$ + + + + + + + + + . V >.%.%.%.%.%.%.%.%.%.%.%.%.%.%.:.g X + + + + + + + + + & 3X3X3X3X3X",
"3X3X3X3X3X3X= * * * * % % % * # C h.e.e.e.e.e.e.e.e.e.e.e.e.e.e.g.Z # * * % % * * * % % 3X3X3X3X3X3X",
"3X3X3X3X3X3X3X3X3X3X3X3X3X3X3X3X3X3X3X3X3X3X3X3X3X3X3X3X3X3X3X3X3X3X3X3X3X3X3X3X3X3X3X3X3X3X3X3X3X3X",
"3X3X3X3X3X3X3X3X3X3X3X3X3X3X3X3X3X3X3X3X3X3X3X3X3X3X3X3X3X3X3X3X3X3X3X3X3X3X3X3X3X3X3X3X3X3X3X3X3X3X"
};
