/* XPM */
static char *_5f5a720407f4a2dbbe69a68052cac7596m69S59YE3DtY1a[] = {
/* columns rows colors chars-per-pixel */
"50 50 228 2 ",
"   c None",
".  c #050505",
"X  c #0B0505",
"o  c #060409",
"O  c #0C0B0B",
"+  c #0B0708",
"@  c #130D0D",
"#  c #1B0D0B",
"$  c #19110D",
"%  c #090914",
"&  c #120F11",
"*  c #121212",
"=  c #1B1413",
"-  c #161419",
";  c #1C1B1B",
":  c #1B1818",
">  c #0C100E",
",  c #29150A",
"<  c #321B0A",
"1  c #261A16",
"2  c #221D1C",
"3  c #271915",
"4  c #331F16",
"5  c #3D200E",
"6  c #2C211C",
"7  c #392318",
"8  c #090A29",
"9  c #0D1D25",
"0  c #171D23",
"q  c #0C0F33",
"w  c #2C1F3A",
"e  c #19242A",
"r  c #1A2C3A",
"t  c #1C3039",
"y  c #232324",
"u  c #25262A",
"i  c #2C2B2C",
"p  c #262829",
"a  c #3A2923",
"s  c #372A27",
"d  c #39312C",
"f  c #2B2E30",
"g  c #23333D",
"h  c #28363B",
"j  c #343333",
"k  c #3D3C3D",
"l  c #37363A",
"z  c #3C2F38",
"x  c #421F0C",
"c  c #47240D",
"v  c #4A2914",
"b  c #592D14",
"n  c #5A3416",
"m  c #582E0E",
"M  c #6D2A0D",
"N  c #66360D",
"B  c #76380C",
"V  c #6B2D10",
"C  c #6A3517",
"Z  c #763715",
"A  c #432E27",
"S  c #4A352B",
"D  c #583729",
"F  c #583A30",
"G  c #4C372D",
"H  c #673927",
"J  c #7A420D",
"K  c #7A4518",
"L  c #6A4538",
"P  c #764C2A",
"I  c #121457",
"U  c #121147",
"Y  c #223942",
"T  c #2A3047",
"R  c #0F1265",
"E  c #11136A",
"W  c #181974",
"Q  c #0F1270",
"!  c #1B2064",
"~  c #533B47",
"^  c #473D63",
"/  c #42357D",
"(  c #3A474E",
")  c #294451",
"_  c #364B56",
"`  c #2A424C",
"'  c #504C50",
"]  c #745244",
"[  c #684B41",
"{  c #4F4D74",
"}  c #6B5673",
"|  c #72706E",
" . c #803C09",
".. c #8C4A0C",
"X. c #9E5A0E",
"o. c #9D560E",
"O. c #8B4C13",
"+. c #814517",
"@. c #93531B",
"#. c #9D5919",
"$. c #905211",
"%. c #AB590D",
"&. c #A45A15",
"*. c #B25F10",
"=. c #957818",
"-. c #BD6209",
";. c #B6610B",
":. c #B2750D",
">. c #AC6418",
",. c #B76717",
"<. c #B6771A",
"1. c #AE761F",
"2. c #875836",
"3. c #9C5B39",
"4. c #9D5821",
"5. c #977425",
"6. c #A76926",
"7. c #A8712A",
"8. c #C36306",
"9. c #C36509",
"0. c #CC6A0B",
"q. c #DC740E",
"w. c #D5780C",
"e. c #CA6E12",
"r. c #D77717",
"t. c #CD710E",
"y. c #EA7C0C",
"u. c #E97D12",
"i. c #E47B16",
"p. c #C96E3D",
"a. c #EE6D30",
"s. c #875D4F",
"d. c #996B55",
"f. c #8F694E",
"g. c #A86E55",
"h. c #A8745C",
"j. c #B07649",
"k. c #8D6D78",
"l. c #B57F66",
"z. c #A67E65",
"x. c #CD7C55",
"c. c #B69311",
"v. c #B1831E",
"b. c #9F822F",
"n. c #B18626",
"m. c #DA880D",
"M. c #D59617",
"N. c #EC840E",
"B. c #F4840E",
"V. c #F9850B",
"C. c #F58B0C",
"Z. c #F2980B",
"A. c #EA8413",
"S. c #F38511",
"D. c #EA950A",
"F. c #DEA11D",
"G. c #EDA90C",
"H. c #F2A30A",
"J. c #F4B40D",
"K. c #F5B70A",
"L. c #F6BC13",
"P. c #F6B813",
"I. c #CC8B30",
"U. c #E6923B",
"Y. c #D8A73D",
"T. c #D4A42E",
"R. c #F2BC28",
"E. c #ECB22C",
"W. c #F4C00D",
"Q. c #8B857E",
"!. c #B79068",
"~. c #CC8A4F",
"^. c #F18A57",
"/. c #D3A742",
"(. c #D2AA55",
"). c #F0B052",
"_. c #C78968",
"`. c #DB9267",
"'. c #D79473",
"]. c #F39B6A",
"[. c #E79C74",
"{. c #ED966A",
"}. c #CAA67F",
"|. c #F5A375",
" X c #F4A57A",
".X c #F7A679",
"XX c #EFA47A",
"oX c #131587",
"OX c #141799",
"+X c #2A2386",
"@X c #2B3281",
"#X c #322D95",
"$X c #161CA3",
"%X c #3D37A7",
"&X c #292CB9",
"*X c #2125AE",
"=X c #44379A",
"-X c #433FBB",
";X c #7D7F95",
":X c #5356B4",
">X c #4E49B4",
",X c #7A53AA",
"<X c #7254A9",
"1X c #676EB7",
"2X c #1B21D0",
"3X c #2A2BC4",
"4X c #3738C3",
"5X c #2027D0",
"6X c #1922E4",
"7X c #4F50C1",
"8X c #6152C2",
"9X c #AB7B86",
"0X c #825BAA",
"qX c #818187",
"wX c #B58F9B",
"eX c #B6AA9D",
"rX c #8E91A0",
"tX c #B2ABA4",
"yX c #CA9695",
"uX c #C8AC91",
"iX c #ECA381",
"pX c #EEC7A1",
"aX c #969CDE",
"sX c #8485CC",
"dX c #B0B2C2",
"fX c #A9AEEC",
"gX c #CED0E0",
"hX c #E9EAF8",
/* pixels */
"                                                                                                    ",
"                                                                                                    ",
"                                                                                                    ",
"                                              V K 6.+.V C C V                                       ",
"                                        M V M O.).  <.O.6.T.>.B V                                   ",
"                                    b B 7.7.C X.R.R.R.M.F.L.F...<.@.V H                             ",
"                                        @.I./.I.P.L.L.L.L.L.J.F.E.o.B B C                           ",
"                                      M  .M.E.(./.Y.Y.Y.Y.Y.Y./.2.Z <.<.Z                           ",
"                  o + O O O o       C Z j.~.k.=X%X%X4X-X:X8X8X>X%X^ b.1.Z                           ",
"              o O &         * * O *     +X&X&X@X@X#X5X:XdXhXgX;XrXqX{ ~                             ",
"            o *                   & o o % / <X>X6X6X6X7XsXfXaX1XaX1X4X3X                            ",
"          - -                     O o o X 3.E.(.0X,X,X#X=X,X,X<X+XoX*X                              ",
"                          o + + o O     + 3.).).|.].{.} k.|.|.'.{ q                                 ",
"                  o + O o + ;           @ 3.^.{.|. X XyXyX X XiXwXz                                 ",
"          o o O + o *                     D b P `.|.|. X|.].|.|.`.D                                 ",
"        + + +                               % @ H ~.]..X^.a.a.x.L                                   ",
"    + + O                                   O * j A g._.x.p.j.D                                     ",
"  o +                                 o * - - ; i i = # 3 3 3                                       ",
"  o                                 + - j k k j ; o . . y i o ; ;                                   ",
"                                O . + l k f j k l ; ; + y i & l i y y                               ",
"                              e g g g _ ) r r ` _ _ _ t Y ) r _ e T Y g                             ",
"                            y l ( ( ( e 9 9 0 e p p p e h Y 9 e 9 h t e                             ",
"                          + i u y k j o . m X.:.c.c.:.,.P u , K # f ; *                             ",
"                        & i l y + O & + X J m.J.H.G.J.L.5.u < &.x d ; o -                           ",
"                        * l k l y o *   + B w.Z.K.W.H.H.5.u < ;.&.5 O + O                           ",
"                      & l k k k u *     X J q.V.D.J.K.J.v.S 7 O.;.x y u O                           ",
"                    ; 0 k i p j u *     X b >.u.C.H.H.Z.S.7.d , &.c u j ;                           ",
"                    ; l s L ] G y         + < J $.=.n.7.6.2.j # n , - j l u                         ",
"                    ; d f.[.h.a -         O . . . X 1 2 2 2 ; X X o . ; l ; @ ] [ :                 ",
"                    F l.XX Xl.G 1         o 5 O.X.X.X.X.o.&.&.&.#.5 X y f 3 d.[._.d.s.              ",
"                    D  X|. X.X'.s.2       o B D.K.J.Z.C.C.V.B.N.S.e.,.K & 4 [. X X Xh.=             ",
"                    D  X X X.X[.f.=       ; P I.D.D.G.J.Z.V.e.N r.V.V.&.# 4 _.'.'.d.G               ",
"                    F _._._._.s.A       > k Q.uX~.I.e.m.w.e.>.m ,.e.u.A.&.# a 7 7                   ",
"                      1 3 3 1           . l ' | tXeXj.#.C , c 4.N v &.u.,.n                         ",
"                                        n !.pXuX| ' | d     @ , #.;.-.8.0.r.K                       ",
"                                      # ,.S.S.U.}.d.[ f       3 C %.-.-.9.q.i.c                     ",
"                                    4 O.q.V.y.0.-.>.<           # O.-.-.-.8.r.c                     ",
"                                  c &.N.V.B.q.-.%.n               v ..-.-.-.e.>.n                   ",
"                                  m A.V.B.q.9.-.@.3               @ B -.-.-.8.A.N                   ",
"                                Z r.B.y.t.9.;.O.7                 @ B -.-.9.q.N.N                   ",
"                            X +.u.V.y.0.-.-.Z 3                   @ B -.8.-.0.u.N                   ",
"                            + K r.B.y.9.-.&.n                     @ N ........&.v                   ",
"                              X v @.+.J K v                           @ X X X X O                   ",
"                            o * 2 : X X @                               8 R R 8                     ",
"                            o * y ; o +                               I oXoXQ 8 % %                 ",
"                        8 W T u ! Q %                               - R 2XOXOXOXOXOXW - $           ",
"                      : z ^ ' / 3X$X8                                 8 I Q 2X6X6X8X9Xg.d.a         ",
"                    * G z.l.l.9X} q -                                       U U U w A S A =         ",
"                    O ; a a a a 6 :                                                                 ",
"                                                                                                    "
};
