/* XPM */
static char *__removebg_preview1708699593[] = {
/* columns rows colors chars-per-pixel */
"50 50 193 2 ",
"   c None",
".  c #1C1B1C",
"X  c #151414",
"o  c #090909",
"O  c #21191D",
"+  c #2E1D1F",
"@  c #34181C",
"#  c #231C23",
"$  c #231E28",
"%  c #2B1C25",
"&  c #351E2A",
"*  c #252323",
"=  c #2A2625",
"-  c #25212D",
";  c #2C2A2B",
":  c #2A252E",
">  c #332E2D",
",  c #37232A",
"<  c #272332",
"1  c #292535",
"2  c #2C2935",
"3  c #24243B",
"4  c #29273B",
"5  c #2B293C",
"6  c #332D34",
"7  c #352A39",
"8  c #362536",
"9  c #333131",
"0  c #3A323C",
"q  c #451F25",
"w  c #4D1D23",
"e  c #4B1E28",
"r  c #521C23",
"t  c #6B1F27",
"y  c #631D24",
"u  c #731F29",
"i  c #4A232A",
"p  c #412625",
"a  c #542026",
"s  c #53222A",
"d  c #53292B",
"f  c #59262C",
"g  c #452A34",
"h  c #452A38",
"j  c #483A34",
"k  c #4F3731",
"l  c #63232B",
"z  c #672429",
"x  c #73212A",
"c  c #622634",
"v  c #672D39",
"b  c #743337",
"n  c #6B433C",
"m  c #70453E",
"M  c #2B2B44",
"N  c #2D2E48",
"B  c #2F3047",
"V  c #2F304A",
"C  c #31334C",
"Z  c #39394F",
"A  c #38354E",
"S  c #262C56",
"D  c #333651",
"F  c #363A55",
"G  c #373C59",
"H  c #393E5C",
"J  c #443643",
"K  c #573E4A",
"L  c #3A405E",
"P  c #36445A",
"I  c #3C4461",
"U  c #42404A",
"Y  c #564540",
"T  c #45445A",
"R  c #5A4F57",
"E  c #5A5358",
"W  c #5E5A5E",
"Q  c #674C48",
"!  c #655145",
"~  c #7A5D4C",
"^  c #6C4B53",
"/  c #695B5D",
"(  c #7D6354",
")  c #444A66",
"_  c #494D6B",
"`  c #474F66",
"'  c #504F65",
"]  c #4E516D",
"[  c #59566A",
"{  c #5E5F77",
"}  c #545B76",
"|  c #635E62",
" . c #6E696E",
".. c #6A6266",
"X. c #736B6B",
"o. c #766979",
"O. c #747073",
"+. c #AF0E19",
"@. c #BD0C14",
"#. c #AD1315",
"$. c #AA151A",
"%. c #B61916",
"&. c #B82416",
"*. c #87212C",
"=. c #94222E",
"-. c #9E232F",
";. c #9F2330",
":. c #8C3738",
">. c #BB3C2F",
",. c #AA2833",
"<. c #B92534",
"1. c #D31D0F",
"2. c #C51A17",
"3. c #D31C11",
"4. c #D21817",
"5. c #D62B0F",
"6. c #D4240F",
"7. c #D93B0F",
"8. c #CD2411",
"9. c #CD2D14",
"0. c #C72715",
"q. c #D42412",
"w. c #D62C14",
"e. c #D4231B",
"r. c #CC3419",
"t. c #D83512",
"y. c #DA3B12",
"u. c #D8371C",
"i. c #D7371C",
"p. c #D52C21",
"a. c #C73B29",
"s. c #D93D20",
"d. c #D63721",
"f. c #C92724",
"g. c #BF4629",
"h. c #DB451B",
"j. c #DA4419",
"k. c #CA521E",
"l. c #DF5317",
"z. c #DF6F13",
"x. c #D74A22",
"c. c #DB5626",
"v. c #C95834",
"b. c #DA6938",
"n. c #E26921",
"m. c #E27922",
"M. c #823D45",
"N. c #B73D49",
"B. c #864D55",
"V. c #A2545C",
"C. c #89695C",
"Z. c #94725F",
"A. c #BB5A65",
"S. c #887063",
"D. c #9B7A64",
"F. c #927562",
"G. c #8A6F7F",
"H. c #976E7B",
"J. c #AA7864",
"K. c #BC6772",
"L. c #BA727D",
"P. c #C34D59",
"I. c #C55460",
"U. c #C6646F",
"Y. c #CC6A74",
"T. c #9B8174",
"R. c #B08579",
"E. c #AC8572",
"W. c #36499A",
"Q. c #4A5285",
"!. c #495897",
"~. c #57608B",
"^. c #676B83",
"/. c #7E7085",
"(. c #616DA7",
"). c #6D7BB1",
"_. c #9B7082",
"`. c #817997",
"'. c #AB7282",
"]. c #84838E",
"[. c #998391",
"{. c #838596",
"}. c #B6838F",
"|. c #B38997",
" X c #BB9299",
".X c #9592A4",
"XX c #BF99A2",
"oX c #CC828C",
"OX c #D0A383",
"+X c #DFB08E",
"@X c #DFB090",
"#X c #CBA487",
"$X c #E2B291",
/* pixels */
"                                                                                                    ",
"                                                                                                    ",
"                                                                  o * ; X                           ",
"                                                                . = ; 9 ; *                         ",
"                $.                                            . * = * = * ; *                       ",
"            #.@.f.&.%.                                        . O * * = * ; *                       ",
"      >.d.2.8.p.4.w.8.8.r.%.                                  . > X.O.E ; > ;                       ",
"      %.w.6.w.p.e.w.5.7.y.6.a.                                . = / X.R > > =                       ",
"    %.q.6.6.6.q.t.y.q.w.l.w.d.b.g.                            * p E.E.E.k n =                       ",
"    4.d.1.6.7.7.s.u.u.x.c.h.e.j.m.v.                          * j OX+X+X! n 9 . #                   ",
"    0.3.5.j.h.w.w.w.q.n.c.l.7.j.z.k.$.        (             @ @ w J.+XOXY p ; 2 1 #                 ",
"    $.9.q.u.w.s.q.3.6.u.h.7.t.c.g.          ( F.            x u =.:.Z.T.n d = 2 M # O               ",
"      2.q.y.q.4.4.u.w.s.u.w.0.&.            D.C.            a =.,.c ~ T.n a * N 4 # O               ",
"      %.9.9.i.4.4.u.x.r.c.a.              7 J 0 2           q ,.<.b S.H.C.l 8 N 4 O                 ",
"            +.@.8.&.%.                    F B 1 < #         + *.f.v ^.^.K s B M 1 .                 ",
"                %.                        B D M M -         . r ,.c _ } J e 3 $ # O                 ",
"                                          2 D M M 3       O O % =.c G ` v 7 : * .                   ",
"                                          : C M M 4 #   O O - $ t c I T l 7 F F N #                 ",
"                                            5 N M M $ O O . 1 < y c P h s B G L H 5                 ",
"                                            2 V M M < $ # # M $ @ i i t h D B F I F :               ",
"                                            # M N 4 M 4 O # M - # w x i A F < D H F :               ",
"                                              1 M M 4 # O O M M 4 & % C L F 1 V H G <               ",
"                                                # $ $ O O # < M V [ o.{ L H 4 M G H M               ",
"                                                # O . O     < M ] Y.P.}.} H B 4 F H N               ",
"                                                            1 N _.A.N.P.}.} M 4 C H N               ",
"                                                            < M o.I.m U.'._ M 4 C L M               ",
"                                                            # 4 A o.^ A./.G V 4 B F C               ",
"                                                            # M M M B o.) G D 1 L D D <             ",
"                                                              1 M M 3 G L H F 4 F G C <             ",
"                                                              3 M M - V L L F < C H F <             ",
"                                                              < M M < C F L H < V L H 2             ",
"                                                            # 4 M M < F G G F < N F L 5             ",
"                                                            $ 5 M M < D G F G < 8 8 A 5             ",
"                                                            U Z M M < D H G _ 0 y ;.z #             ",
"                                                            B.H.Z 3 < D H H `.V.Q f r               ",
"                                                            B.U.[.' 3 M F ) |.Y.L.i                 ",
"                                                             . XXX[ M 3 C I .XoX,.f                 ",
"                                                              B.o.M M M M H ) _.K...                ",
"                                                              R K M M 3 2 G H _ { 5                 ",
"                                                              - S M M $ % V H H V M 1               ",
"                                                              - M M 8 x u g D D N 4 $               ",
"                                                              4 M M , x y e M 5 4 -                 ",
"                                                              - 2 2 #     # < ;                     ",
"                                                                .. .        | E                     ",
"                                                                X.].        W O.                    ",
"                                                            Y _ {.).S     Q.!.~.                    ",
"                                                          j R.(.(.W.S   0 `.`.Q.3                   ",
"                                                            0 5 3 3       j k 6                     ",
"                                                                                                    ",
"                                                                                                    "
};
